{"glyphs":{"0":{"ha":874,"x_min":0,"x_max":0,"o":"m 679 700 b 608 870 679 766 655 823 b 437 941 561 917 504 941 b 266 870 370 941 313 917 b 195 700 219 823 195 766 l 195 368 b 266 197 195 301 219 244 b 437 127 313 150 370 127 b 608 197 504 127 561 150 b 679 368 655 244 679 301 l 679 700 m 823 368 b 710 96 823 262 785 171 b 437 -17 634 21 543 -17 b 164 96 330 -17 240 21 b 52 368 89 171 52 262 l 52 700 b 164 972 52 806 89 897 b 437 1085 240 1047 330 1085 b 710 972 543 1085 634 1047 b 823 700 785 897 823 806 l 823 368 "},"1":{"ha":968,"x_min":0,"x_max":0,"o":"m 606 0 l 465 0 l 465 902 l 361 902 l 504 1085 l 606 1085 "},"2":{"ha":887,"x_min":0,"x_max":0,"o":"m 252 342 b 441 483 326 397 389 444 b 580 608 493 522 539 564 b 642 758 621 653 642 703 b 584 897 642 812 622 859 b 444 955 545 936 498 955 b 304 897 390 955 343 936 b 243 726 271 864 251 807 l 102 777 b 203 998 117 871 151 945 b 444 1099 270 1065 350 1099 b 685 999 538 1099 618 1065 b 784 758 751 932 784 852 b 688 514 784 664 752 583 b 546 388 647 470 600 428 b 366 252 492 347 432 302 b 269 141 308 209 275 172 l 784 141 l 784 0 l 104 0 b 252 342 129 173 179 287 "},"3":{"ha":887,"x_min":0,"x_max":0,"o":"m 321 561 l 321 700 b 443 712 383 701 423 705 b 507 760 462 720 484 736 b 541 844 530 785 541 813 b 509 923 541 876 530 902 b 429 956 487 945 460 956 b 351 924 399 956 372 945 b 309 841 338 911 324 883 l 178 892 b 249 1024 197 954 221 997 b 429 1099 299 1074 359 1099 b 611 1023 501 1099 561 1074 b 686 844 661 973 686 913 b 560 640 686 774 644 706 b 687 572 600 637 643 615 b 784 328 752 502 784 421 b 685 86 784 234 751 153 b 444 -14 618 20 538 -14 b 203 87 350 -14 270 20 b 102 309 151 140 117 214 l 243 359 b 304 188 251 278 271 221 b 444 130 343 149 390 130 b 584 188 498 130 545 149 b 642 328 622 226 642 273 b 584 473 642 383 622 431 b 406 559 545 515 486 544 "},"4":{"ha":916,"x_min":0,"x_max":0,"o":"m 702 1085 l 702 433 l 798 433 l 798 293 l 702 293 l 702 0 l 562 0 l 562 293 l 117 293 l 579 1085 m 361 433 l 562 433 l 562 768 "},"5":{"ha":891,"x_min":0,"x_max":0,"o":"m 305 792 b 385 800 330 798 357 800 b 530 776 435 800 484 792 b 764 578 635 740 713 674 b 812 393 796 518 812 457 b 793 275 812 354 806 315 b 601 40 761 170 697 92 b 418 -7 542 9 481 -7 b 298 12 379 -7 338 0 b 79 176 214 38 141 93 l 178 286 b 340 149 229 212 282 166 b 416 137 366 141 392 137 b 533 167 456 137 495 147 b 656 317 595 200 636 250 b 669 394 665 343 669 369 b 638 511 669 433 659 472 b 486 640 605 573 554 616 b 389 655 457 650 424 655 b 203 619 340 655 278 643 l 118 693 l 240 1030 l 240 1085 l 637 1085 l 637 945 l 359 945 l 305 792 "},"6":{"ha":876,"x_min":0,"x_max":0,"o":"m 198 368 b 269 197 198 301 222 244 b 440 127 316 150 373 127 b 611 197 507 127 563 150 b 682 368 658 244 682 301 b 611 539 682 435 658 492 b 440 610 563 586 507 610 b 269 539 373 610 316 586 b 198 368 222 492 198 435 m 279 669 b 479 734 320 713 386 734 b 713 642 573 734 651 703 b 825 368 788 566 825 475 b 713 96 825 262 788 171 b 440 -17 638 21 547 -17 b 168 96 334 -17 243 21 b 58 399 95 168 59 269 l 58 401 b 162 739 58 529 93 641 b 444 1085 232 836 326 952 l 629 1085 b 279 669 465 915 348 777 "},"7":{"ha":884,"x_min":0,"x_max":0,"o":"m 607 675 b 346 355 494 549 407 443 b 247 0 284 268 251 150 l 104 0 b 216 424 109 185 147 326 b 465 731 286 521 369 624 b 621 945 562 839 613 910 l 105 945 l 105 1085 l 780 1085 b 607 675 777 938 719 801 "},"8":{"ha":878,"x_min":0,"x_max":0,"o":"m 439 130 b 604 188 510 130 565 149 b 662 328 643 226 662 273 b 604 472 662 383 643 431 b 439 557 566 514 511 542 b 273 472 366 542 311 514 b 216 328 235 431 216 383 b 273 188 216 273 235 226 b 439 130 312 149 367 130 m 439 -14 b 172 86 328 -14 239 20 b 73 328 106 153 73 234 b 263 640 73 443 136 548 b 172 844 202 706 172 774 b 246 1023 172 913 196 973 b 427 1099 295 1074 356 1099 l 450 1099 b 631 1023 521 1099 582 1074 b 706 844 681 973 706 913 b 607 642 706 774 673 706 b 805 328 739 548 805 443 b 705 86 805 234 772 153 b 439 -14 639 20 550 -14 m 435 955 b 427 956 432 955 430 956 b 349 923 397 956 370 945 b 316 844 327 902 316 876 b 350 760 316 813 327 785 b 412 713 373 736 394 720 b 439 705 422 709 431 707 b 465 713 446 707 455 709 b 527 760 483 720 504 736 b 562 844 550 785 562 813 b 529 923 562 876 551 902 b 450 956 507 945 481 956 b 442 955 448 956 445 955 l 435 955 "},"9":{"ha":876,"x_min":0,"x_max":0,"o":"m 686 717 b 615 888 686 784 663 841 b 444 958 568 935 511 958 b 274 888 378 958 321 935 b 203 717 226 841 203 784 b 274 546 203 650 226 593 b 444 475 321 499 378 475 b 615 546 511 475 568 499 b 686 717 663 593 686 650 m 605 416 b 405 351 565 372 498 351 b 172 444 311 351 234 382 b 59 717 97 519 59 610 b 172 989 59 823 97 914 b 444 1102 247 1064 338 1102 b 717 989 550 1102 641 1064 b 826 686 789 917 826 816 l 826 684 b 722 347 826 556 791 444 b 440 0 653 249 559 133 l 256 0 b 605 416 420 170 536 309 "},"ˈ":{"ha":1244,"x_min":0,"x_max":0,"o":"m 639 197 b 636 212 639 207 638 212 l 622 212 l 622 191 l 635 191 l 635 197 l 639 197 m 1004 555 b 1000 571 1004 566 1003 571 l 986 571 l 986 550 l 999 550 l 999 555 l 1004 555 m 749 860 b 758 867 752 860 755 862 b 765 893 763 873 765 882 b 758 918 764 903 762 911 b 747 925 755 923 751 925 b 736 918 743 925 739 923 b 729 893 731 912 729 904 b 736 868 730 882 732 873 b 749 860 740 863 744 860 m 987 631 b 1000 637 993 631 997 633 b 1006 664 1004 643 1006 652 b 999 689 1006 674 1003 682 b 987 696 996 694 992 696 b 977 689 983 696 979 694 b 971 664 973 682 971 674 b 978 637 971 653 973 644 b 987 631 981 633 984 631 m 256 378 b 268 385 261 378 265 380 b 273 411 271 391 273 400 b 267 436 273 422 271 431 b 256 443 264 441 260 443 b 243 436 250 443 246 441 b 237 411 239 432 237 423 b 244 386 237 400 240 392 b 256 378 247 380 251 378 m 511 155 b 518 182 516 162 518 171 b 513 207 518 193 516 201 b 500 214 509 211 505 214 b 488 207 495 214 491 211 b 482 182 484 201 482 193 b 488 155 482 170 484 161 b 498 149 490 151 494 149 b 511 155 503 149 507 151 m 272 550 b 268 564 272 559 271 564 l 254 564 l 254 543 l 267 543 l 267 550 l 272 550 m 650 170 l 635 170 l 635 176 l 622 176 l 622 153 b 632 147 622 149 625 147 l 632 136 l 589 136 l 589 147 b 597 150 595 147 597 148 l 597 212 b 589 215 597 214 595 215 l 589 227 l 657 227 l 657 197 l 650 197 m 872 214 l 872 227 l 905 227 l 905 214 b 897 210 901 214 898 212 l 878 175 l 878 150 b 886 147 878 148 880 147 l 886 136 l 846 136 l 846 147 b 854 150 852 147 854 148 l 854 175 l 835 210 b 827 214 833 212 830 214 l 827 227 l 865 227 l 865 214 l 860 214 l 868 196 l 878 214 m 389 926 l 389 939 l 419 939 l 419 926 b 411 922 415 926 413 925 l 395 886 l 395 861 b 403 859 395 859 397 859 l 403 847 l 359 847 l 359 859 b 370 861 366 859 370 859 l 370 886 l 349 922 b 343 926 348 925 346 926 l 343 939 l 379 939 l 379 926 l 374 926 l 385 907 l 393 926 m 262 811 l 262 823 l 294 823 l 294 811 b 288 807 291 811 288 810 l 268 772 l 268 747 b 277 745 268 746 271 745 l 277 732 l 235 732 l 235 745 b 243 747 240 745 243 746 l 243 772 l 225 807 b 216 811 223 810 220 811 l 216 823 l 254 823 l 254 811 l 249 811 l 258 791 l 268 811 m 1015 529 l 999 529 l 999 534 l 986 534 l 986 513 b 996 507 986 509 989 507 l 996 494 l 954 494 l 954 507 b 962 510 960 507 962 508 l 962 571 b 954 574 962 573 960 574 l 954 586 l 1022 586 l 1022 555 l 1015 555 m 994 329 l 994 342 l 1028 342 l 1028 329 b 1019 325 1023 329 1020 328 l 1000 290 l 1000 265 b 1008 262 1000 263 1003 262 l 1008 252 l 968 252 l 968 262 b 977 265 974 262 977 263 l 977 290 l 957 325 b 949 329 955 328 952 329 l 949 342 l 986 342 l 986 329 l 982 329 l 990 311 l 1000 329 m 237 863 b 250 860 237 861 242 860 l 250 847 l 212 847 l 212 860 b 220 863 217 860 220 861 l 220 918 b 212 926 220 924 217 926 l 212 939 l 232 939 l 272 892 l 272 924 b 261 926 272 925 268 926 l 261 939 l 298 939 l 298 926 b 292 924 294 926 292 925 l 292 847 l 279 847 l 237 895 m 501 880 l 525 939 l 553 939 l 553 926 b 546 918 548 926 546 924 l 546 863 b 553 860 546 861 548 860 l 553 847 l 517 847 l 517 860 b 521 861 519 860 521 860 l 521 882 l 507 847 l 490 847 l 472 884 l 472 863 b 478 860 472 861 474 860 l 478 847 l 447 847 l 447 860 b 453 863 451 860 453 861 l 453 918 b 447 926 453 924 451 926 l 447 939 l 472 939 m 791 893 b 781 860 791 880 788 869 b 749 846 773 850 763 846 b 714 860 733 846 721 850 b 703 893 706 869 703 880 b 714 925 703 906 706 917 b 747 939 721 934 732 939 b 781 925 762 939 773 934 b 791 893 788 917 791 906 m 848 863 b 861 860 848 861 853 860 l 861 847 l 822 847 l 822 860 b 828 863 826 860 828 861 l 828 918 b 822 926 828 924 826 926 l 822 939 l 843 939 l 882 892 l 882 924 b 871 926 882 925 878 926 l 871 939 l 908 939 l 908 926 b 903 924 904 926 903 925 l 903 847 l 888 847 l 848 895 m 1025 908 l 1007 908 b 1003 924 1007 918 1006 924 l 1000 924 l 1000 863 b 1008 860 1000 861 1003 860 l 1008 847 l 968 847 l 968 860 b 977 863 974 860 977 861 l 977 924 l 974 924 b 969 908 971 924 969 918 l 951 908 l 951 939 l 1025 939 m 622 865 b 632 860 622 862 625 860 l 632 847 l 589 847 l 589 860 b 597 863 595 860 597 861 l 597 924 b 589 926 597 925 595 926 l 589 939 l 657 939 l 657 908 l 639 908 b 636 924 639 918 638 924 l 622 924 l 622 901 l 635 901 l 635 907 l 650 907 l 650 882 l 635 882 l 635 888 l 622 888 m 971 150 b 983 147 971 148 975 147 l 983 136 l 945 136 l 945 147 b 951 150 949 147 951 148 l 951 205 b 945 214 951 211 949 214 l 945 227 l 965 227 l 1004 179 l 1004 211 b 993 214 1004 213 1001 214 l 993 227 l 1032 227 l 1032 214 b 1025 211 1027 214 1025 213 l 1025 136 l 1011 136 l 971 182 m 989 406 l 1014 464 l 1042 464 l 1042 452 b 1036 443 1038 452 1036 449 l 1036 387 b 1042 385 1036 385 1038 385 l 1042 374 l 1004 374 l 1004 385 b 1011 386 1009 385 1011 385 l 1011 406 l 994 374 l 979 374 l 961 408 l 961 387 b 966 385 961 385 963 385 l 966 374 l 935 374 l 935 385 b 940 387 938 385 940 385 l 940 443 b 935 452 940 449 938 452 l 935 464 l 961 464 m 1032 663 b 1022 631 1032 649 1029 639 b 987 616 1015 621 1003 616 b 956 629 972 616 962 621 b 945 663 948 638 945 649 b 954 696 945 677 948 688 b 986 710 961 705 972 710 b 1022 696 1003 710 1015 705 b 1032 663 1029 688 1032 677 m 971 754 b 983 751 971 752 975 751 l 983 739 l 945 739 l 945 751 b 951 754 949 751 951 752 l 951 810 b 945 818 951 815 949 818 l 945 831 l 965 831 l 1004 782 l 1004 815 b 993 818 1004 817 1001 818 l 993 831 l 1032 831 l 1032 818 b 1025 815 1027 818 1025 817 l 1025 739 l 1011 739 l 971 785 m 292 199 l 275 199 b 271 212 275 208 273 212 l 268 212 l 268 151 b 277 149 268 149 271 149 l 277 138 l 235 138 l 235 149 b 243 151 240 149 243 149 l 243 212 l 240 212 b 236 199 237 212 236 208 l 220 199 l 220 228 l 292 228 m 257 644 l 282 701 l 309 701 l 309 690 b 302 681 304 690 302 687 l 302 625 b 309 623 302 623 304 623 l 309 610 l 272 610 l 272 623 b 279 625 277 623 279 623 l 279 644 l 262 610 l 245 610 l 229 646 l 229 625 b 233 623 229 623 231 623 l 233 610 l 203 610 l 203 623 b 208 625 206 623 208 623 l 208 681 b 203 690 208 687 206 690 l 203 701 l 229 701 m 298 411 b 290 378 298 397 296 386 b 256 366 283 370 271 366 b 224 378 240 366 229 370 b 212 411 216 386 212 397 b 222 443 212 425 216 436 b 254 457 229 452 239 457 b 290 443 271 457 283 452 b 298 411 296 436 298 425 m 237 260 b 250 257 237 258 242 257 l 250 244 l 212 244 l 212 257 b 220 260 217 257 220 258 l 220 315 b 212 322 220 320 217 322 l 212 335 l 232 335 l 272 288 l 272 319 b 261 322 272 321 268 322 l 261 335 l 298 335 l 298 322 b 292 319 294 322 292 321 l 292 244 l 279 244 l 237 290 m 749 170 l 774 227 l 800 227 l 800 215 b 794 205 796 215 794 212 l 794 150 b 800 147 794 148 796 147 l 800 136 l 764 136 l 764 147 b 770 150 768 147 770 148 l 770 170 l 754 136 l 739 136 l 721 171 l 721 150 b 726 147 721 148 723 147 l 726 136 l 694 136 l 694 147 b 700 150 698 147 700 148 l 700 205 b 694 215 700 212 698 215 l 694 227 l 720 227 m 465 214 b 500 228 472 223 484 228 b 533 214 514 228 525 223 b 543 180 540 206 543 195 b 532 147 543 168 539 157 b 498 136 524 140 513 136 b 465 149 484 136 472 140 b 456 180 459 157 456 168 b 465 214 456 195 459 206 m 364 150 b 376 147 364 148 368 147 l 376 136 l 339 136 l 339 147 b 345 150 343 147 345 148 l 345 205 b 339 215 345 212 343 215 l 339 227 l 358 227 l 399 179 l 399 212 b 386 215 399 214 394 215 l 386 227 l 424 227 l 424 215 b 416 212 419 215 416 214 l 416 136 l 404 136 l 364 182 m 283 522 l 267 522 l 267 528 l 254 528 l 254 505 b 264 500 254 502 257 500 l 264 489 l 222 489 l 222 500 b 231 503 228 500 231 501 l 231 564 b 222 567 231 566 228 567 l 222 579 l 290 579 l 290 550 l 283 550 "},"‣":{"ha":1244,"x_min":0,"x_max":0,"o":"m 639 197 l 635 197 l 635 191 l 622 191 l 622 212 l 636 212 b 639 197 638 212 639 207 m 1004 555 l 999 555 l 999 550 l 986 550 l 986 571 l 1000 571 b 1004 555 1003 571 1004 566 m 749 860 b 736 868 744 860 740 863 b 729 893 732 873 730 882 b 736 918 729 904 731 912 b 747 925 739 923 743 925 b 758 918 751 925 755 923 b 765 893 762 911 764 903 b 758 867 765 882 763 873 b 749 860 755 862 752 860 m 987 631 b 978 637 984 631 981 633 b 971 664 973 644 971 653 b 977 689 971 674 973 682 b 987 696 979 694 983 696 b 999 689 992 696 996 694 b 1006 664 1003 682 1006 674 b 1000 637 1006 652 1004 643 b 987 631 997 633 993 631 m 256 378 b 244 386 251 378 247 380 b 237 411 240 392 237 400 b 243 436 237 423 239 432 b 256 443 246 441 250 443 b 267 436 260 443 264 441 b 273 411 271 431 273 422 b 268 385 273 400 271 391 b 256 378 265 380 261 378 m 511 155 b 498 149 507 151 503 149 b 488 155 494 149 490 151 b 482 182 484 161 482 170 b 488 207 482 193 484 201 b 500 214 491 211 495 214 b 513 207 505 214 509 211 b 518 182 516 201 518 193 b 511 155 518 171 516 162 m 272 550 l 267 550 l 267 543 l 254 543 l 254 564 l 268 564 b 272 550 271 564 272 559 m 650 197 l 657 197 l 657 227 l 589 227 l 589 215 b 597 212 595 215 597 214 l 597 150 b 589 147 597 148 595 147 l 589 136 l 632 136 l 632 147 b 622 153 625 147 622 149 l 622 176 l 635 176 l 635 170 l 650 170 m 878 214 l 868 196 l 860 214 l 865 214 l 865 227 l 827 227 l 827 214 b 835 210 830 214 833 212 l 854 175 l 854 150 b 846 147 854 148 852 147 l 846 136 l 886 136 l 886 147 b 878 150 880 147 878 148 l 878 175 l 897 210 b 905 214 898 212 901 214 l 905 227 l 872 227 l 872 214 m 393 926 l 385 907 l 374 926 l 379 926 l 379 939 l 343 939 l 343 926 b 349 922 346 926 348 925 l 370 886 l 370 861 b 359 859 370 859 366 859 l 359 847 l 403 847 l 403 859 b 395 861 397 859 395 859 l 395 886 l 411 922 b 419 926 413 925 415 926 l 419 939 l 389 939 l 389 926 m 268 811 l 258 791 l 249 811 l 254 811 l 254 823 l 216 823 l 216 811 b 225 807 220 811 223 810 l 243 772 l 243 747 b 235 745 243 746 240 745 l 235 732 l 277 732 l 277 745 b 268 747 271 745 268 746 l 268 772 l 288 807 b 294 811 288 810 291 811 l 294 823 l 262 823 l 262 811 m 1015 555 l 1022 555 l 1022 586 l 954 586 l 954 574 b 962 571 960 574 962 573 l 962 510 b 954 507 962 508 960 507 l 954 494 l 996 494 l 996 507 b 986 513 989 507 986 509 l 986 534 l 999 534 l 999 529 l 1015 529 m 1000 329 l 990 311 l 982 329 l 986 329 l 986 342 l 949 342 l 949 329 b 957 325 952 329 955 328 l 977 290 l 977 265 b 968 262 977 263 974 262 l 968 252 l 1008 252 l 1008 262 b 1000 265 1003 262 1000 263 l 1000 290 l 1019 325 b 1028 329 1020 328 1023 329 l 1028 342 l 994 342 l 994 329 m 237 895 l 279 847 l 292 847 l 292 924 b 298 926 292 925 294 926 l 298 939 l 261 939 l 261 926 b 272 924 268 926 272 925 l 272 892 l 232 939 l 212 939 l 212 926 b 220 918 217 926 220 924 l 220 863 b 212 860 220 861 217 860 l 212 847 l 250 847 l 250 860 b 237 863 242 860 237 861 m 472 939 l 447 939 l 447 926 b 453 918 451 926 453 924 l 453 863 b 447 860 453 861 451 860 l 447 847 l 478 847 l 478 860 b 472 863 474 860 472 861 l 472 884 l 490 847 l 507 847 l 521 882 l 521 861 b 517 860 521 860 519 860 l 517 847 l 553 847 l 553 860 b 546 863 548 860 546 861 l 546 918 b 553 926 546 924 548 926 l 553 939 l 525 939 l 501 880 m 791 893 b 781 925 791 906 788 917 b 747 939 773 934 762 939 b 714 925 732 939 721 934 b 703 893 706 917 703 906 b 714 860 703 880 706 869 b 749 846 721 850 733 846 b 781 860 763 846 773 850 b 791 893 788 869 791 880 m 848 895 l 888 847 l 903 847 l 903 924 b 908 926 903 925 904 926 l 908 939 l 871 939 l 871 926 b 882 924 878 926 882 925 l 882 892 l 843 939 l 822 939 l 822 926 b 828 918 826 926 828 924 l 828 863 b 822 860 828 861 826 860 l 822 847 l 861 847 l 861 860 b 848 863 853 860 848 861 m 1025 939 l 951 939 l 951 908 l 969 908 b 974 924 969 918 971 924 l 977 924 l 977 863 b 968 860 977 861 974 860 l 968 847 l 1008 847 l 1008 860 b 1000 863 1003 860 1000 861 l 1000 924 l 1003 924 b 1007 908 1006 924 1007 918 l 1025 908 m 622 888 l 635 888 l 635 882 l 650 882 l 650 907 l 635 907 l 635 901 l 622 901 l 622 924 l 636 924 b 639 908 638 924 639 918 l 657 908 l 657 939 l 589 939 l 589 926 b 597 924 595 926 597 925 l 597 863 b 589 860 597 861 595 860 l 589 847 l 632 847 l 632 860 b 622 865 625 860 622 862 m 971 182 l 1011 136 l 1025 136 l 1025 211 b 1032 214 1025 213 1027 214 l 1032 227 l 993 227 l 993 214 b 1004 211 1001 214 1004 213 l 1004 179 l 965 227 l 945 227 l 945 214 b 951 205 949 214 951 211 l 951 150 b 945 147 951 148 949 147 l 945 136 l 983 136 l 983 147 b 971 150 975 147 971 148 m 961 464 l 935 464 l 935 452 b 940 443 938 452 940 449 l 940 387 b 935 385 940 385 938 385 l 935 374 l 966 374 l 966 385 b 961 387 963 385 961 385 l 961 408 l 979 374 l 994 374 l 1011 406 l 1011 386 b 1004 385 1011 385 1009 385 l 1004 374 l 1042 374 l 1042 385 b 1036 387 1038 385 1036 385 l 1036 443 b 1042 452 1036 449 1038 452 l 1042 464 l 1014 464 l 989 406 m 1032 663 b 1022 696 1032 677 1029 688 b 986 710 1015 705 1003 710 b 954 696 972 710 961 705 b 945 663 948 688 945 677 b 956 629 945 649 948 638 b 987 616 962 621 972 616 b 1022 631 1003 616 1015 621 b 1032 663 1029 639 1032 649 m 971 785 l 1011 739 l 1025 739 l 1025 815 b 1032 818 1025 817 1027 818 l 1032 831 l 993 831 l 993 818 b 1004 815 1001 818 1004 817 l 1004 782 l 965 831 l 945 831 l 945 818 b 951 810 949 818 951 815 l 951 754 b 945 751 951 752 949 751 l 945 739 l 983 739 l 983 751 b 971 754 975 751 971 752 m 292 228 l 220 228 l 220 199 l 236 199 b 240 212 236 208 237 212 l 243 212 l 243 151 b 235 149 243 149 240 149 l 235 138 l 277 138 l 277 149 b 268 151 271 149 268 149 l 268 212 l 271 212 b 275 199 273 212 275 208 l 292 199 m 229 701 l 203 701 l 203 690 b 208 681 206 690 208 687 l 208 625 b 203 623 208 623 206 623 l 203 610 l 233 610 l 233 623 b 229 625 231 623 229 623 l 229 646 l 245 610 l 262 610 l 279 644 l 279 625 b 272 623 279 623 277 623 l 272 610 l 309 610 l 309 623 b 302 625 304 623 302 623 l 302 681 b 309 690 302 687 304 690 l 309 701 l 282 701 l 257 644 m 298 411 b 290 443 298 425 296 436 b 254 457 283 452 271 457 b 222 443 239 457 229 452 b 212 411 216 436 212 425 b 224 378 212 397 216 386 b 256 366 229 370 240 366 b 290 378 271 366 283 370 b 298 411 296 386 298 397 m 237 290 l 279 244 l 292 244 l 292 319 b 298 322 292 321 294 322 l 298 335 l 261 335 l 261 322 b 272 319 268 322 272 321 l 272 288 l 232 335 l 212 335 l 212 322 b 220 315 217 322 220 320 l 220 260 b 212 257 220 258 217 257 l 212 244 l 250 244 l 250 257 b 237 260 242 257 237 258 m 720 227 l 694 227 l 694 215 b 700 205 698 215 700 212 l 700 150 b 694 147 700 148 698 147 l 694 136 l 726 136 l 726 147 b 721 150 723 147 721 148 l 721 171 l 739 136 l 754 136 l 770 170 l 770 150 b 764 147 770 148 768 147 l 764 136 l 800 136 l 800 147 b 794 150 796 147 794 148 l 794 205 b 800 215 794 212 796 215 l 800 227 l 774 227 l 749 170 m 465 214 b 456 180 459 206 456 195 b 465 149 456 168 459 157 b 498 136 472 140 484 136 b 532 147 513 136 524 140 b 543 180 539 157 543 168 b 533 214 543 195 540 206 b 500 228 525 223 514 228 b 465 214 484 228 472 223 m 364 182 l 404 136 l 416 136 l 416 212 b 424 215 416 214 419 215 l 424 227 l 386 227 l 386 215 b 399 212 394 215 399 214 l 399 179 l 358 227 l 339 227 l 339 215 b 345 205 343 215 345 212 l 345 150 b 339 147 345 148 343 147 l 339 136 l 376 136 l 376 147 b 364 150 368 147 364 148 m 283 550 l 290 550 l 290 579 l 222 579 l 222 567 b 231 564 228 567 231 566 l 231 503 b 222 500 231 501 228 500 l 222 489 l 264 489 l 264 500 b 254 505 257 500 254 502 l 254 528 l 267 528 l 267 522 l 283 522 "},"․":{"ha":1244,"x_min":0,"x_max":0,"o":"m 639 197 b 636 212 639 207 638 212 l 622 212 l 622 191 l 635 191 l 635 197 l 639 197 m 1004 555 b 1000 571 1004 566 1003 571 l 986 571 l 986 550 l 999 550 l 999 555 l 1004 555 m 749 860 b 758 867 752 860 755 862 b 765 893 763 873 765 882 b 758 918 764 903 762 911 b 747 925 755 923 751 925 b 736 918 743 925 739 923 b 729 893 731 912 729 904 b 736 868 730 882 732 873 b 749 860 740 863 744 860 m 987 631 b 1000 637 993 631 997 633 b 1006 664 1004 643 1006 652 b 999 689 1006 674 1003 682 b 987 696 996 694 992 696 b 977 689 983 696 979 694 b 971 664 973 682 971 674 b 978 637 971 653 973 644 b 987 631 981 633 984 631 m 256 378 b 268 385 261 378 265 380 b 273 411 271 391 273 400 b 267 436 273 422 271 431 b 256 443 264 441 260 443 b 243 436 250 443 246 441 b 237 411 239 432 237 423 b 244 386 237 400 240 392 b 256 378 247 380 251 378 m 511 155 b 518 182 516 162 518 171 b 513 207 518 193 516 201 b 500 214 509 211 505 214 b 488 207 495 214 491 211 b 482 182 484 201 482 193 b 488 155 482 170 484 161 b 498 149 490 151 494 149 b 511 155 503 149 507 151 m 272 550 b 268 564 272 559 271 564 l 254 564 l 254 543 l 267 543 l 267 550 l 272 550 m 650 170 l 635 170 l 635 176 l 622 176 l 622 153 b 632 147 622 149 625 147 l 632 136 l 589 136 l 589 147 b 597 150 595 147 597 148 l 597 212 b 589 215 597 214 595 215 l 589 227 l 657 227 l 657 197 l 650 197 m 872 214 l 872 227 l 905 227 l 905 214 b 897 210 901 214 898 212 l 878 175 l 878 150 b 886 147 878 148 880 147 l 886 136 l 846 136 l 846 147 b 854 150 852 147 854 148 l 854 175 l 835 210 b 827 214 833 212 830 214 l 827 227 l 865 227 l 865 214 l 860 214 l 868 196 l 878 214 m 389 926 l 389 939 l 419 939 l 419 926 b 411 922 415 926 413 925 l 395 886 l 395 861 b 403 859 395 859 397 859 l 403 847 l 359 847 l 359 859 b 370 861 366 859 370 859 l 370 886 l 349 922 b 343 926 348 925 346 926 l 343 939 l 379 939 l 379 926 l 374 926 l 385 907 l 393 926 m 262 811 l 262 823 l 294 823 l 294 811 b 288 807 291 811 288 810 l 268 772 l 268 747 b 277 745 268 746 271 745 l 277 732 l 235 732 l 235 745 b 243 747 240 745 243 746 l 243 772 l 225 807 b 216 811 223 810 220 811 l 216 823 l 254 823 l 254 811 l 249 811 l 258 791 l 268 811 m 1015 529 l 999 529 l 999 534 l 986 534 l 986 513 b 996 507 986 509 989 507 l 996 494 l 954 494 l 954 507 b 962 510 960 507 962 508 l 962 571 b 954 574 962 573 960 574 l 954 586 l 1022 586 l 1022 555 l 1015 555 m 994 329 l 994 342 l 1028 342 l 1028 329 b 1019 325 1023 329 1020 328 l 1000 290 l 1000 265 b 1008 262 1000 263 1003 262 l 1008 252 l 968 252 l 968 262 b 977 265 974 262 977 263 l 977 290 l 957 325 b 949 329 955 328 952 329 l 949 342 l 986 342 l 986 329 l 982 329 l 990 311 l 1000 329 m 237 863 b 250 860 237 861 242 860 l 250 847 l 212 847 l 212 860 b 220 863 217 860 220 861 l 220 918 b 212 926 220 924 217 926 l 212 939 l 232 939 l 272 892 l 272 924 b 261 926 272 925 268 926 l 261 939 l 298 939 l 298 926 b 292 924 294 926 292 925 l 292 847 l 279 847 l 237 895 m 501 880 l 525 939 l 553 939 l 553 926 b 546 918 548 926 546 924 l 546 863 b 553 860 546 861 548 860 l 553 847 l 517 847 l 517 860 b 521 861 519 860 521 860 l 521 882 l 507 847 l 490 847 l 472 884 l 472 863 b 478 860 472 861 474 860 l 478 847 l 447 847 l 447 860 b 453 863 451 860 453 861 l 453 918 b 447 926 453 924 451 926 l 447 939 l 472 939 m 791 893 b 781 860 791 880 788 869 b 749 846 773 850 763 846 b 714 860 733 846 721 850 b 703 893 706 869 703 880 b 714 925 703 906 706 917 b 747 939 721 934 732 939 b 781 925 762 939 773 934 b 791 893 788 917 791 906 m 848 863 b 861 860 848 861 853 860 l 861 847 l 822 847 l 822 860 b 828 863 826 860 828 861 l 828 918 b 822 926 828 924 826 926 l 822 939 l 843 939 l 882 892 l 882 924 b 871 926 882 925 878 926 l 871 939 l 908 939 l 908 926 b 903 924 904 926 903 925 l 903 847 l 888 847 l 848 895 m 1025 908 l 1007 908 b 1003 924 1007 918 1006 924 l 1000 924 l 1000 863 b 1008 860 1000 861 1003 860 l 1008 847 l 968 847 l 968 860 b 977 863 974 860 977 861 l 977 924 l 974 924 b 969 908 971 924 969 918 l 951 908 l 951 939 l 1025 939 m 622 865 b 632 860 622 862 625 860 l 632 847 l 589 847 l 589 860 b 597 863 595 860 597 861 l 597 924 b 589 926 597 925 595 926 l 589 939 l 657 939 l 657 908 l 639 908 b 636 924 639 918 638 924 l 622 924 l 622 901 l 635 901 l 635 907 l 650 907 l 650 882 l 635 882 l 635 888 l 622 888 m 971 150 b 983 147 971 148 975 147 l 983 136 l 945 136 l 945 147 b 951 150 949 147 951 148 l 951 205 b 945 214 951 211 949 214 l 945 227 l 965 227 l 1004 179 l 1004 211 b 993 214 1004 213 1001 214 l 993 227 l 1032 227 l 1032 214 b 1025 211 1027 214 1025 213 l 1025 136 l 1011 136 l 971 182 m 989 406 l 1014 464 l 1042 464 l 1042 452 b 1036 443 1038 452 1036 449 l 1036 387 b 1042 385 1036 385 1038 385 l 1042 374 l 1004 374 l 1004 385 b 1011 386 1009 385 1011 385 l 1011 406 l 994 374 l 979 374 l 961 408 l 961 387 b 966 385 961 385 963 385 l 966 374 l 935 374 l 935 385 b 940 387 938 385 940 385 l 940 443 b 935 452 940 449 938 452 l 935 464 l 961 464 m 1032 663 b 1022 631 1032 649 1029 639 b 987 616 1015 621 1003 616 b 956 629 972 616 962 621 b 945 663 948 638 945 649 b 954 696 945 677 948 688 b 986 710 961 705 972 710 b 1022 696 1003 710 1015 705 b 1032 663 1029 688 1032 677 m 971 754 b 983 751 971 752 975 751 l 983 739 l 945 739 l 945 751 b 951 754 949 751 951 752 l 951 810 b 945 818 951 815 949 818 l 945 831 l 965 831 l 1004 782 l 1004 815 b 993 818 1004 817 1001 818 l 993 831 l 1032 831 l 1032 818 b 1025 815 1027 818 1025 817 l 1025 739 l 1011 739 l 971 785 m 292 199 l 275 199 b 271 212 275 208 273 212 l 268 212 l 268 151 b 277 149 268 149 271 149 l 277 138 l 235 138 l 235 149 b 243 151 240 149 243 149 l 243 212 l 240 212 b 236 199 237 212 236 208 l 220 199 l 220 228 l 292 228 m 257 644 l 282 701 l 309 701 l 309 690 b 302 681 304 690 302 687 l 302 625 b 309 623 302 623 304 623 l 309 610 l 272 610 l 272 623 b 279 625 277 623 279 623 l 279 644 l 262 610 l 245 610 l 229 646 l 229 625 b 233 623 229 623 231 623 l 233 610 l 203 610 l 203 623 b 208 625 206 623 208 623 l 208 681 b 203 690 208 687 206 690 l 203 701 l 229 701 m 298 411 b 290 378 298 397 296 386 b 256 366 283 370 271 366 b 224 378 240 366 229 370 b 212 411 216 386 212 397 b 222 443 212 425 216 436 b 254 457 229 452 239 457 b 290 443 271 457 283 452 b 298 411 296 436 298 425 m 237 260 b 250 257 237 258 242 257 l 250 244 l 212 244 l 212 257 b 220 260 217 257 220 258 l 220 315 b 212 322 220 320 217 322 l 212 335 l 232 335 l 272 288 l 272 319 b 261 322 272 321 268 322 l 261 335 l 298 335 l 298 322 b 292 319 294 322 292 321 l 292 244 l 279 244 l 237 290 m 749 170 l 774 227 l 800 227 l 800 215 b 794 205 796 215 794 212 l 794 150 b 800 147 794 148 796 147 l 800 136 l 764 136 l 764 147 b 770 150 768 147 770 148 l 770 170 l 754 136 l 739 136 l 721 171 l 721 150 b 726 147 721 148 723 147 l 726 136 l 694 136 l 694 147 b 700 150 698 147 700 148 l 700 205 b 694 215 700 212 698 215 l 694 227 l 720 227 m 465 214 b 500 228 472 223 484 228 b 533 214 514 228 525 223 b 543 180 540 206 543 195 b 532 147 543 168 539 157 b 498 136 524 140 513 136 b 465 149 484 136 472 140 b 456 180 459 157 456 168 b 465 214 456 195 459 206 m 364 150 b 376 147 364 148 368 147 l 376 136 l 339 136 l 339 147 b 345 150 343 147 345 148 l 345 205 b 339 215 345 212 343 215 l 339 227 l 358 227 l 399 179 l 399 212 b 386 215 399 214 394 215 l 386 227 l 424 227 l 424 215 b 416 212 419 215 416 214 l 416 136 l 404 136 l 364 182 m 283 522 l 267 522 l 267 528 l 254 528 l 254 505 b 264 500 254 502 257 500 l 264 489 l 222 489 l 222 500 b 231 503 228 500 231 501 l 231 564 b 222 567 231 566 228 567 l 222 579 l 290 579 l 290 550 l 283 550 "},"‥":{"ha":1244,"x_min":0,"x_max":0,"o":"m 639 197 l 635 197 l 635 191 l 622 191 l 622 212 l 636 212 b 639 197 638 212 639 207 m 1004 555 l 999 555 l 999 550 l 986 550 l 986 571 l 1000 571 b 1004 555 1003 571 1004 566 m 749 860 b 736 868 744 860 740 863 b 729 893 732 873 730 882 b 736 918 729 904 731 912 b 747 925 739 923 743 925 b 758 918 751 925 755 923 b 765 893 762 911 764 903 b 758 867 765 882 763 873 b 749 860 755 862 752 860 m 987 631 b 978 637 984 631 981 633 b 971 664 973 644 971 653 b 977 689 971 674 973 682 b 987 696 979 694 983 696 b 999 689 992 696 996 694 b 1006 664 1003 682 1006 674 b 1000 637 1006 652 1004 643 b 987 631 997 633 993 631 m 256 378 b 244 386 251 378 247 380 b 237 411 240 392 237 400 b 243 436 237 423 239 432 b 256 443 246 441 250 443 b 267 436 260 443 264 441 b 273 411 271 431 273 422 b 268 385 273 400 271 391 b 256 378 265 380 261 378 m 511 155 b 498 149 507 151 503 149 b 488 155 494 149 490 151 b 482 182 484 161 482 170 b 488 207 482 193 484 201 b 500 214 491 211 495 214 b 513 207 505 214 509 211 b 518 182 516 201 518 193 b 511 155 518 171 516 162 m 272 550 l 267 550 l 267 543 l 254 543 l 254 564 l 268 564 b 272 550 271 564 272 559 m 650 197 l 657 197 l 657 227 l 589 227 l 589 215 b 597 212 595 215 597 214 l 597 150 b 589 147 597 148 595 147 l 589 136 l 632 136 l 632 147 b 622 153 625 147 622 149 l 622 176 l 635 176 l 635 170 l 650 170 m 878 214 l 868 196 l 860 214 l 865 214 l 865 227 l 827 227 l 827 214 b 835 210 830 214 833 212 l 854 175 l 854 150 b 846 147 854 148 852 147 l 846 136 l 886 136 l 886 147 b 878 150 880 147 878 148 l 878 175 l 897 210 b 905 214 898 212 901 214 l 905 227 l 872 227 l 872 214 m 393 926 l 385 907 l 374 926 l 379 926 l 379 939 l 343 939 l 343 926 b 349 922 346 926 348 925 l 370 886 l 370 861 b 359 859 370 859 366 859 l 359 847 l 403 847 l 403 859 b 395 861 397 859 395 859 l 395 886 l 411 922 b 419 926 413 925 415 926 l 419 939 l 389 939 l 389 926 m 268 811 l 258 791 l 249 811 l 254 811 l 254 823 l 216 823 l 216 811 b 225 807 220 811 223 810 l 243 772 l 243 747 b 235 745 243 746 240 745 l 235 732 l 277 732 l 277 745 b 268 747 271 745 268 746 l 268 772 l 288 807 b 294 811 288 810 291 811 l 294 823 l 262 823 l 262 811 m 1015 555 l 1022 555 l 1022 586 l 954 586 l 954 574 b 962 571 960 574 962 573 l 962 510 b 954 507 962 508 960 507 l 954 494 l 996 494 l 996 507 b 986 513 989 507 986 509 l 986 534 l 999 534 l 999 529 l 1015 529 m 1000 329 l 990 311 l 982 329 l 986 329 l 986 342 l 949 342 l 949 329 b 957 325 952 329 955 328 l 977 290 l 977 265 b 968 262 977 263 974 262 l 968 252 l 1008 252 l 1008 262 b 1000 265 1003 262 1000 263 l 1000 290 l 1019 325 b 1028 329 1020 328 1023 329 l 1028 342 l 994 342 l 994 329 m 237 895 l 279 847 l 292 847 l 292 924 b 298 926 292 925 294 926 l 298 939 l 261 939 l 261 926 b 272 924 268 926 272 925 l 272 892 l 232 939 l 212 939 l 212 926 b 220 918 217 926 220 924 l 220 863 b 212 860 220 861 217 860 l 212 847 l 250 847 l 250 860 b 237 863 242 860 237 861 m 472 939 l 447 939 l 447 926 b 453 918 451 926 453 924 l 453 863 b 447 860 453 861 451 860 l 447 847 l 478 847 l 478 860 b 472 863 474 860 472 861 l 472 884 l 490 847 l 507 847 l 521 882 l 521 861 b 517 860 521 860 519 860 l 517 847 l 553 847 l 553 860 b 546 863 548 860 546 861 l 546 918 b 553 926 546 924 548 926 l 553 939 l 525 939 l 501 880 m 791 893 b 781 925 791 906 788 917 b 747 939 773 934 762 939 b 714 925 732 939 721 934 b 703 893 706 917 703 906 b 714 860 703 880 706 869 b 749 846 721 850 733 846 b 781 860 763 846 773 850 b 791 893 788 869 791 880 m 848 895 l 888 847 l 903 847 l 903 924 b 908 926 903 925 904 926 l 908 939 l 871 939 l 871 926 b 882 924 878 926 882 925 l 882 892 l 843 939 l 822 939 l 822 926 b 828 918 826 926 828 924 l 828 863 b 822 860 828 861 826 860 l 822 847 l 861 847 l 861 860 b 848 863 853 860 848 861 m 1025 939 l 951 939 l 951 908 l 969 908 b 974 924 969 918 971 924 l 977 924 l 977 863 b 968 860 977 861 974 860 l 968 847 l 1008 847 l 1008 860 b 1000 863 1003 860 1000 861 l 1000 924 l 1003 924 b 1007 908 1006 924 1007 918 l 1025 908 m 622 888 l 635 888 l 635 882 l 650 882 l 650 907 l 635 907 l 635 901 l 622 901 l 622 924 l 636 924 b 639 908 638 924 639 918 l 657 908 l 657 939 l 589 939 l 589 926 b 597 924 595 926 597 925 l 597 863 b 589 860 597 861 595 860 l 589 847 l 632 847 l 632 860 b 622 865 625 860 622 862 m 971 182 l 1011 136 l 1025 136 l 1025 211 b 1032 214 1025 213 1027 214 l 1032 227 l 993 227 l 993 214 b 1004 211 1001 214 1004 213 l 1004 179 l 965 227 l 945 227 l 945 214 b 951 205 949 214 951 211 l 951 150 b 945 147 951 148 949 147 l 945 136 l 983 136 l 983 147 b 971 150 975 147 971 148 m 961 464 l 935 464 l 935 452 b 940 443 938 452 940 449 l 940 387 b 935 385 940 385 938 385 l 935 374 l 966 374 l 966 385 b 961 387 963 385 961 385 l 961 408 l 979 374 l 994 374 l 1011 406 l 1011 386 b 1004 385 1011 385 1009 385 l 1004 374 l 1042 374 l 1042 385 b 1036 387 1038 385 1036 385 l 1036 443 b 1042 452 1036 449 1038 452 l 1042 464 l 1014 464 l 989 406 m 1032 663 b 1022 696 1032 677 1029 688 b 986 710 1015 705 1003 710 b 954 696 972 710 961 705 b 945 663 948 688 945 677 b 956 629 945 649 948 638 b 987 616 962 621 972 616 b 1022 631 1003 616 1015 621 b 1032 663 1029 639 1032 649 m 971 785 l 1011 739 l 1025 739 l 1025 815 b 1032 818 1025 817 1027 818 l 1032 831 l 993 831 l 993 818 b 1004 815 1001 818 1004 817 l 1004 782 l 965 831 l 945 831 l 945 818 b 951 810 949 818 951 815 l 951 754 b 945 751 951 752 949 751 l 945 739 l 983 739 l 983 751 b 971 754 975 751 971 752 m 292 228 l 220 228 l 220 199 l 236 199 b 240 212 236 208 237 212 l 243 212 l 243 151 b 235 149 243 149 240 149 l 235 138 l 277 138 l 277 149 b 268 151 271 149 268 149 l 268 212 l 271 212 b 275 199 273 212 275 208 l 292 199 m 229 701 l 203 701 l 203 690 b 208 681 206 690 208 687 l 208 625 b 203 623 208 623 206 623 l 203 610 l 233 610 l 233 623 b 229 625 231 623 229 623 l 229 646 l 245 610 l 262 610 l 279 644 l 279 625 b 272 623 279 623 277 623 l 272 610 l 309 610 l 309 623 b 302 625 304 623 302 623 l 302 681 b 309 690 302 687 304 690 l 309 701 l 282 701 l 257 644 m 298 411 b 290 443 298 425 296 436 b 254 457 283 452 271 457 b 222 443 239 457 229 452 b 212 411 216 436 212 425 b 224 378 212 397 216 386 b 256 366 229 370 240 366 b 290 378 271 366 283 370 b 298 411 296 386 298 397 m 237 290 l 279 244 l 292 244 l 292 319 b 298 322 292 321 294 322 l 298 335 l 261 335 l 261 322 b 272 319 268 322 272 321 l 272 288 l 232 335 l 212 335 l 212 322 b 220 315 217 322 220 320 l 220 260 b 212 257 220 258 217 257 l 212 244 l 250 244 l 250 257 b 237 260 242 257 237 258 m 720 227 l 694 227 l 694 215 b 700 205 698 215 700 212 l 700 150 b 694 147 700 148 698 147 l 694 136 l 726 136 l 726 147 b 721 150 723 147 721 148 l 721 171 l 739 136 l 754 136 l 770 170 l 770 150 b 764 147 770 148 768 147 l 764 136 l 800 136 l 800 147 b 794 150 796 147 794 148 l 794 205 b 800 215 794 212 796 215 l 800 227 l 774 227 l 749 170 m 465 214 b 456 180 459 206 456 195 b 465 149 456 168 459 157 b 498 136 472 140 484 136 b 532 147 513 136 524 140 b 543 180 539 157 543 168 b 533 214 543 195 540 206 b 500 228 525 223 514 228 b 465 214 484 228 472 223 m 364 182 l 404 136 l 416 136 l 416 212 b 424 215 416 214 419 215 l 424 227 l 386 227 l 386 215 b 399 212 394 215 399 214 l 399 179 l 358 227 l 339 227 l 339 215 b 345 205 343 215 345 212 l 345 150 b 339 147 345 148 343 147 l 339 136 l 376 136 l 376 147 b 364 150 368 147 364 148 m 283 550 l 290 550 l 290 579 l 222 579 l 222 567 b 231 564 228 567 231 566 l 231 503 b 222 500 231 501 228 500 l 222 489 l 264 489 l 264 500 b 254 505 257 500 254 502 l 254 528 l 267 528 l 267 522 l 283 522 "},"‱":{"ha":1244,"x_min":0,"x_max":0,"o":"m 639 197 b 636 212 639 207 638 212 l 622 212 l 622 191 l 635 191 l 635 197 l 639 197 m 1004 555 b 1000 571 1004 566 1003 571 l 986 571 l 986 550 l 999 550 l 999 555 l 1004 555 m 749 860 b 758 867 752 860 755 862 b 765 893 763 873 765 882 b 758 918 764 903 762 911 b 747 925 755 923 751 925 b 736 918 743 925 739 923 b 729 893 731 912 729 904 b 736 868 730 882 732 873 b 749 860 740 863 744 860 m 987 631 b 1000 637 993 631 997 633 b 1006 664 1004 643 1006 652 b 999 689 1006 674 1003 682 b 987 696 996 694 992 696 b 977 689 983 696 979 694 b 971 664 973 682 971 674 b 978 637 971 653 973 644 b 987 631 981 633 984 631 m 256 378 b 268 385 261 378 265 380 b 273 411 271 391 273 400 b 267 436 273 422 271 431 b 256 443 264 441 260 443 b 243 436 250 443 246 441 b 237 411 239 432 237 423 b 244 386 237 400 240 392 b 256 378 247 380 251 378 m 511 155 b 518 182 516 162 518 171 b 513 207 518 193 516 201 b 500 214 509 211 505 214 b 488 207 495 214 491 211 b 482 182 484 201 482 193 b 488 155 482 170 484 161 b 498 149 490 151 494 149 b 511 155 503 149 507 151 m 272 550 b 268 564 272 559 271 564 l 254 564 l 254 543 l 267 543 l 267 550 l 272 550 m 650 170 l 635 170 l 635 176 l 622 176 l 622 153 b 632 147 622 149 625 147 l 632 136 l 589 136 l 589 147 b 597 150 595 147 597 148 l 597 212 b 589 215 597 214 595 215 l 589 227 l 657 227 l 657 197 l 650 197 m 872 214 l 872 227 l 905 227 l 905 214 b 897 210 901 214 898 212 l 878 175 l 878 150 b 886 147 878 148 880 147 l 886 136 l 846 136 l 846 147 b 854 150 852 147 854 148 l 854 175 l 835 210 b 827 214 833 212 830 214 l 827 227 l 865 227 l 865 214 l 860 214 l 868 196 l 878 214 m 389 926 l 389 939 l 419 939 l 419 926 b 411 922 415 926 413 925 l 395 886 l 395 861 b 403 859 395 859 397 859 l 403 847 l 359 847 l 359 859 b 370 861 366 859 370 859 l 370 886 l 349 922 b 343 926 348 925 346 926 l 343 939 l 379 939 l 379 926 l 374 926 l 385 907 l 393 926 m 262 811 l 262 823 l 294 823 l 294 811 b 288 807 291 811 288 810 l 268 772 l 268 747 b 277 745 268 746 271 745 l 277 732 l 235 732 l 235 745 b 243 747 240 745 243 746 l 243 772 l 225 807 b 216 811 223 810 220 811 l 216 823 l 254 823 l 254 811 l 249 811 l 258 791 l 268 811 m 1015 529 l 999 529 l 999 534 l 986 534 l 986 513 b 996 507 986 509 989 507 l 996 494 l 954 494 l 954 507 b 962 510 960 507 962 508 l 962 571 b 954 574 962 573 960 574 l 954 586 l 1022 586 l 1022 555 l 1015 555 m 994 329 l 994 342 l 1028 342 l 1028 329 b 1019 325 1023 329 1020 328 l 1000 290 l 1000 265 b 1008 262 1000 263 1003 262 l 1008 252 l 968 252 l 968 262 b 977 265 974 262 977 263 l 977 290 l 957 325 b 949 329 955 328 952 329 l 949 342 l 986 342 l 986 329 l 982 329 l 990 311 l 1000 329 m 237 863 b 250 860 237 861 242 860 l 250 847 l 212 847 l 212 860 b 220 863 217 860 220 861 l 220 918 b 212 926 220 924 217 926 l 212 939 l 232 939 l 272 892 l 272 924 b 261 926 272 925 268 926 l 261 939 l 298 939 l 298 926 b 292 924 294 926 292 925 l 292 847 l 279 847 l 237 895 m 501 880 l 525 939 l 553 939 l 553 926 b 546 918 548 926 546 924 l 546 863 b 553 860 546 861 548 860 l 553 847 l 517 847 l 517 860 b 521 861 519 860 521 860 l 521 882 l 507 847 l 490 847 l 472 884 l 472 863 b 478 860 472 861 474 860 l 478 847 l 447 847 l 447 860 b 453 863 451 860 453 861 l 453 918 b 447 926 453 924 451 926 l 447 939 l 472 939 m 791 893 b 781 860 791 880 788 869 b 749 846 773 850 763 846 b 714 860 733 846 721 850 b 703 893 706 869 703 880 b 714 925 703 906 706 917 b 747 939 721 934 732 939 b 781 925 762 939 773 934 b 791 893 788 917 791 906 m 848 863 b 861 860 848 861 853 860 l 861 847 l 822 847 l 822 860 b 828 863 826 860 828 861 l 828 918 b 822 926 828 924 826 926 l 822 939 l 843 939 l 882 892 l 882 924 b 871 926 882 925 878 926 l 871 939 l 908 939 l 908 926 b 903 924 904 926 903 925 l 903 847 l 888 847 l 848 895 m 1025 908 l 1007 908 b 1003 924 1007 918 1006 924 l 1000 924 l 1000 863 b 1008 860 1000 861 1003 860 l 1008 847 l 968 847 l 968 860 b 977 863 974 860 977 861 l 977 924 l 974 924 b 969 908 971 924 969 918 l 951 908 l 951 939 l 1025 939 m 622 865 b 632 860 622 862 625 860 l 632 847 l 589 847 l 589 860 b 597 863 595 860 597 861 l 597 924 b 589 926 597 925 595 926 l 589 939 l 657 939 l 657 908 l 639 908 b 636 924 639 918 638 924 l 622 924 l 622 901 l 635 901 l 635 907 l 650 907 l 650 882 l 635 882 l 635 888 l 622 888 m 971 150 b 983 147 971 148 975 147 l 983 136 l 945 136 l 945 147 b 951 150 949 147 951 148 l 951 205 b 945 214 951 211 949 214 l 945 227 l 965 227 l 1004 179 l 1004 211 b 993 214 1004 213 1001 214 l 993 227 l 1032 227 l 1032 214 b 1025 211 1027 214 1025 213 l 1025 136 l 1011 136 l 971 182 m 989 406 l 1014 464 l 1042 464 l 1042 452 b 1036 443 1038 452 1036 449 l 1036 387 b 1042 385 1036 385 1038 385 l 1042 374 l 1004 374 l 1004 385 b 1011 386 1009 385 1011 385 l 1011 406 l 994 374 l 979 374 l 961 408 l 961 387 b 966 385 961 385 963 385 l 966 374 l 935 374 l 935 385 b 940 387 938 385 940 385 l 940 443 b 935 452 940 449 938 452 l 935 464 l 961 464 m 1032 663 b 1022 631 1032 649 1029 639 b 987 616 1015 621 1003 616 b 956 629 972 616 962 621 b 945 663 948 638 945 649 b 954 696 945 677 948 688 b 986 710 961 705 972 710 b 1022 696 1003 710 1015 705 b 1032 663 1029 688 1032 677 m 971 754 b 983 751 971 752 975 751 l 983 739 l 945 739 l 945 751 b 951 754 949 751 951 752 l 951 810 b 945 818 951 815 949 818 l 945 831 l 965 831 l 1004 782 l 1004 815 b 993 818 1004 817 1001 818 l 993 831 l 1032 831 l 1032 818 b 1025 815 1027 818 1025 817 l 1025 739 l 1011 739 l 971 785 m 292 199 l 275 199 b 271 212 275 208 273 212 l 268 212 l 268 151 b 277 149 268 149 271 149 l 277 138 l 235 138 l 235 149 b 243 151 240 149 243 149 l 243 212 l 240 212 b 236 199 237 212 236 208 l 220 199 l 220 228 l 292 228 m 257 644 l 282 701 l 309 701 l 309 690 b 302 681 304 690 302 687 l 302 625 b 309 623 302 623 304 623 l 309 610 l 272 610 l 272 623 b 279 625 277 623 279 623 l 279 644 l 262 610 l 245 610 l 229 646 l 229 625 b 233 623 229 623 231 623 l 233 610 l 203 610 l 203 623 b 208 625 206 623 208 623 l 208 681 b 203 690 208 687 206 690 l 203 701 l 229 701 m 298 411 b 290 378 298 397 296 386 b 256 366 283 370 271 366 b 224 378 240 366 229 370 b 212 411 216 386 212 397 b 222 443 212 425 216 436 b 254 457 229 452 239 457 b 290 443 271 457 283 452 b 298 411 296 436 298 425 m 237 260 b 250 257 237 258 242 257 l 250 244 l 212 244 l 212 257 b 220 260 217 257 220 258 l 220 315 b 212 322 220 320 217 322 l 212 335 l 232 335 l 272 288 l 272 319 b 261 322 272 321 268 322 l 261 335 l 298 335 l 298 322 b 292 319 294 322 292 321 l 292 244 l 279 244 l 237 290 m 749 170 l 774 227 l 800 227 l 800 215 b 794 205 796 215 794 212 l 794 150 b 800 147 794 148 796 147 l 800 136 l 764 136 l 764 147 b 770 150 768 147 770 148 l 770 170 l 754 136 l 739 136 l 721 171 l 721 150 b 726 147 721 148 723 147 l 726 136 l 694 136 l 694 147 b 700 150 698 147 700 148 l 700 205 b 694 215 700 212 698 215 l 694 227 l 720 227 m 465 214 b 500 228 472 223 484 228 b 533 214 514 228 525 223 b 543 180 540 206 543 195 b 532 147 543 168 539 157 b 498 136 524 140 513 136 b 465 149 484 136 472 140 b 456 180 459 157 456 168 b 465 214 456 195 459 206 m 364 150 b 376 147 364 148 368 147 l 376 136 l 339 136 l 339 147 b 345 150 343 147 345 148 l 345 205 b 339 215 345 212 343 215 l 339 227 l 358 227 l 399 179 l 399 212 b 386 215 399 214 394 215 l 386 227 l 424 227 l 424 215 b 416 212 419 215 416 214 l 416 136 l 404 136 l 364 182 m 283 522 l 267 522 l 267 528 l 254 528 l 254 505 b 264 500 254 502 257 500 l 264 489 l 222 489 l 222 500 b 231 503 228 500 231 501 l 231 564 b 222 567 231 566 228 567 l 222 579 l 290 579 l 290 550 l 283 550 "},"※":{"ha":1244,"x_min":0,"x_max":0,"o":"m 639 197 l 635 197 l 635 191 l 622 191 l 622 212 l 636 212 b 639 197 638 212 639 207 m 1004 555 l 999 555 l 999 550 l 986 550 l 986 571 l 1000 571 b 1004 555 1003 571 1004 566 m 749 860 b 736 868 744 860 740 863 b 729 893 732 873 730 882 b 736 918 729 904 731 912 b 747 925 739 923 743 925 b 758 918 751 925 755 923 b 765 893 762 911 764 903 b 758 867 765 882 763 873 b 749 860 755 862 752 860 m 987 631 b 978 637 984 631 981 633 b 971 664 973 644 971 653 b 977 689 971 674 973 682 b 987 696 979 694 983 696 b 999 689 992 696 996 694 b 1006 664 1003 682 1006 674 b 1000 637 1006 652 1004 643 b 987 631 997 633 993 631 m 256 378 b 244 386 251 378 247 380 b 237 411 240 392 237 400 b 243 436 237 423 239 432 b 256 443 246 441 250 443 b 267 436 260 443 264 441 b 273 411 271 431 273 422 b 268 385 273 400 271 391 b 256 378 265 380 261 378 m 511 155 b 498 149 507 151 503 149 b 488 155 494 149 490 151 b 482 182 484 161 482 170 b 488 207 482 193 484 201 b 500 214 491 211 495 214 b 513 207 505 214 509 211 b 518 182 516 201 518 193 b 511 155 518 171 516 162 m 272 550 l 267 550 l 267 543 l 254 543 l 254 564 l 268 564 b 272 550 271 564 272 559 m 650 197 l 657 197 l 657 227 l 589 227 l 589 215 b 597 212 595 215 597 214 l 597 150 b 589 147 597 148 595 147 l 589 136 l 632 136 l 632 147 b 622 153 625 147 622 149 l 622 176 l 635 176 l 635 170 l 650 170 m 878 214 l 868 196 l 860 214 l 865 214 l 865 227 l 827 227 l 827 214 b 835 210 830 214 833 212 l 854 175 l 854 150 b 846 147 854 148 852 147 l 846 136 l 886 136 l 886 147 b 878 150 880 147 878 148 l 878 175 l 897 210 b 905 214 898 212 901 214 l 905 227 l 872 227 l 872 214 m 393 926 l 385 907 l 374 926 l 379 926 l 379 939 l 343 939 l 343 926 b 349 922 346 926 348 925 l 370 886 l 370 861 b 359 859 370 859 366 859 l 359 847 l 403 847 l 403 859 b 395 861 397 859 395 859 l 395 886 l 411 922 b 419 926 413 925 415 926 l 419 939 l 389 939 l 389 926 m 268 811 l 258 791 l 249 811 l 254 811 l 254 823 l 216 823 l 216 811 b 225 807 220 811 223 810 l 243 772 l 243 747 b 235 745 243 746 240 745 l 235 732 l 277 732 l 277 745 b 268 747 271 745 268 746 l 268 772 l 288 807 b 294 811 288 810 291 811 l 294 823 l 262 823 l 262 811 m 1015 555 l 1022 555 l 1022 586 l 954 586 l 954 574 b 962 571 960 574 962 573 l 962 510 b 954 507 962 508 960 507 l 954 494 l 996 494 l 996 507 b 986 513 989 507 986 509 l 986 534 l 999 534 l 999 529 l 1015 529 m 1000 329 l 990 311 l 982 329 l 986 329 l 986 342 l 949 342 l 949 329 b 957 325 952 329 955 328 l 977 290 l 977 265 b 968 262 977 263 974 262 l 968 252 l 1008 252 l 1008 262 b 1000 265 1003 262 1000 263 l 1000 290 l 1019 325 b 1028 329 1020 328 1023 329 l 1028 342 l 994 342 l 994 329 m 237 895 l 279 847 l 292 847 l 292 924 b 298 926 292 925 294 926 l 298 939 l 261 939 l 261 926 b 272 924 268 926 272 925 l 272 892 l 232 939 l 212 939 l 212 926 b 220 918 217 926 220 924 l 220 863 b 212 860 220 861 217 860 l 212 847 l 250 847 l 250 860 b 237 863 242 860 237 861 m 472 939 l 447 939 l 447 926 b 453 918 451 926 453 924 l 453 863 b 447 860 453 861 451 860 l 447 847 l 478 847 l 478 860 b 472 863 474 860 472 861 l 472 884 l 490 847 l 507 847 l 521 882 l 521 861 b 517 860 521 860 519 860 l 517 847 l 553 847 l 553 860 b 546 863 548 860 546 861 l 546 918 b 553 926 546 924 548 926 l 553 939 l 525 939 l 501 880 m 791 893 b 781 925 791 906 788 917 b 747 939 773 934 762 939 b 714 925 732 939 721 934 b 703 893 706 917 703 906 b 714 860 703 880 706 869 b 749 846 721 850 733 846 b 781 860 763 846 773 850 b 791 893 788 869 791 880 m 848 895 l 888 847 l 903 847 l 903 924 b 908 926 903 925 904 926 l 908 939 l 871 939 l 871 926 b 882 924 878 926 882 925 l 882 892 l 843 939 l 822 939 l 822 926 b 828 918 826 926 828 924 l 828 863 b 822 860 828 861 826 860 l 822 847 l 861 847 l 861 860 b 848 863 853 860 848 861 m 1025 939 l 951 939 l 951 908 l 969 908 b 974 924 969 918 971 924 l 977 924 l 977 863 b 968 860 977 861 974 860 l 968 847 l 1008 847 l 1008 860 b 1000 863 1003 860 1000 861 l 1000 924 l 1003 924 b 1007 908 1006 924 1007 918 l 1025 908 m 622 888 l 635 888 l 635 882 l 650 882 l 650 907 l 635 907 l 635 901 l 622 901 l 622 924 l 636 924 b 639 908 638 924 639 918 l 657 908 l 657 939 l 589 939 l 589 926 b 597 924 595 926 597 925 l 597 863 b 589 860 597 861 595 860 l 589 847 l 632 847 l 632 860 b 622 865 625 860 622 862 m 971 182 l 1011 136 l 1025 136 l 1025 211 b 1032 214 1025 213 1027 214 l 1032 227 l 993 227 l 993 214 b 1004 211 1001 214 1004 213 l 1004 179 l 965 227 l 945 227 l 945 214 b 951 205 949 214 951 211 l 951 150 b 945 147 951 148 949 147 l 945 136 l 983 136 l 983 147 b 971 150 975 147 971 148 m 961 464 l 935 464 l 935 452 b 940 443 938 452 940 449 l 940 387 b 935 385 940 385 938 385 l 935 374 l 966 374 l 966 385 b 961 387 963 385 961 385 l 961 408 l 979 374 l 994 374 l 1011 406 l 1011 386 b 1004 385 1011 385 1009 385 l 1004 374 l 1042 374 l 1042 385 b 1036 387 1038 385 1036 385 l 1036 443 b 1042 452 1036 449 1038 452 l 1042 464 l 1014 464 l 989 406 m 1032 663 b 1022 696 1032 677 1029 688 b 986 710 1015 705 1003 710 b 954 696 972 710 961 705 b 945 663 948 688 945 677 b 956 629 945 649 948 638 b 987 616 962 621 972 616 b 1022 631 1003 616 1015 621 b 1032 663 1029 639 1032 649 m 971 785 l 1011 739 l 1025 739 l 1025 815 b 1032 818 1025 817 1027 818 l 1032 831 l 993 831 l 993 818 b 1004 815 1001 818 1004 817 l 1004 782 l 965 831 l 945 831 l 945 818 b 951 810 949 818 951 815 l 951 754 b 945 751 951 752 949 751 l 945 739 l 983 739 l 983 751 b 971 754 975 751 971 752 m 292 228 l 220 228 l 220 199 l 236 199 b 240 212 236 208 237 212 l 243 212 l 243 151 b 235 149 243 149 240 149 l 235 138 l 277 138 l 277 149 b 268 151 271 149 268 149 l 268 212 l 271 212 b 275 199 273 212 275 208 l 292 199 m 229 701 l 203 701 l 203 690 b 208 681 206 690 208 687 l 208 625 b 203 623 208 623 206 623 l 203 610 l 233 610 l 233 623 b 229 625 231 623 229 623 l 229 646 l 245 610 l 262 610 l 279 644 l 279 625 b 272 623 279 623 277 623 l 272 610 l 309 610 l 309 623 b 302 625 304 623 302 623 l 302 681 b 309 690 302 687 304 690 l 309 701 l 282 701 l 257 644 m 298 411 b 290 443 298 425 296 436 b 254 457 283 452 271 457 b 222 443 239 457 229 452 b 212 411 216 436 212 425 b 224 378 212 397 216 386 b 256 366 229 370 240 366 b 290 378 271 366 283 370 b 298 411 296 386 298 397 m 237 290 l 279 244 l 292 244 l 292 319 b 298 322 292 321 294 322 l 298 335 l 261 335 l 261 322 b 272 319 268 322 272 321 l 272 288 l 232 335 l 212 335 l 212 322 b 220 315 217 322 220 320 l 220 260 b 212 257 220 258 217 257 l 212 244 l 250 244 l 250 257 b 237 260 242 257 237 258 m 720 227 l 694 227 l 694 215 b 700 205 698 215 700 212 l 700 150 b 694 147 700 148 698 147 l 694 136 l 726 136 l 726 147 b 721 150 723 147 721 148 l 721 171 l 739 136 l 754 136 l 770 170 l 770 150 b 764 147 770 148 768 147 l 764 136 l 800 136 l 800 147 b 794 150 796 147 794 148 l 794 205 b 800 215 794 212 796 215 l 800 227 l 774 227 l 749 170 m 465 214 b 456 180 459 206 456 195 b 465 149 456 168 459 157 b 498 136 472 140 484 136 b 532 147 513 136 524 140 b 543 180 539 157 543 168 b 533 214 543 195 540 206 b 500 228 525 223 514 228 b 465 214 484 228 472 223 m 364 182 l 404 136 l 416 136 l 416 212 b 424 215 416 214 419 215 l 424 227 l 386 227 l 386 215 b 399 212 394 215 399 214 l 399 179 l 358 227 l 339 227 l 339 215 b 345 205 343 215 345 212 l 345 150 b 339 147 345 148 343 147 l 339 136 l 376 136 l 376 147 b 364 150 368 147 364 148 m 283 550 l 290 550 l 290 579 l 222 579 l 222 567 b 231 564 228 567 231 566 l 231 503 b 222 500 231 501 228 500 l 222 489 l 264 489 l 264 500 b 254 505 257 500 254 502 l 254 528 l 267 528 l 267 522 l 283 522 "},"‽":{"ha":1244,"x_min":0,"x_max":0,"o":"m 639 197 b 636 212 639 207 638 212 l 622 212 l 622 191 l 635 191 l 635 197 l 639 197 m 1004 555 b 1000 571 1004 566 1003 571 l 986 571 l 986 550 l 999 550 l 999 555 l 1004 555 m 749 860 b 758 867 752 860 755 862 b 765 893 763 873 765 882 b 758 918 764 903 762 911 b 747 925 755 923 751 925 b 736 918 743 925 739 923 b 729 893 731 912 729 904 b 736 868 730 882 732 873 b 749 860 740 863 744 860 m 987 631 b 1000 637 993 631 997 633 b 1006 664 1004 643 1006 652 b 999 689 1006 674 1003 682 b 987 696 996 694 992 696 b 977 689 983 696 979 694 b 971 664 973 682 971 674 b 978 637 971 653 973 644 b 987 631 981 633 984 631 m 256 378 b 268 385 261 378 265 380 b 273 411 271 391 273 400 b 267 436 273 422 271 431 b 256 443 264 441 260 443 b 243 436 250 443 246 441 b 237 411 239 432 237 423 b 244 386 237 400 240 392 b 256 378 247 380 251 378 m 511 155 b 518 182 516 162 518 171 b 513 207 518 193 516 201 b 500 214 509 211 505 214 b 488 207 495 214 491 211 b 482 182 484 201 482 193 b 488 155 482 170 484 161 b 498 149 490 151 494 149 b 511 155 503 149 507 151 m 272 550 b 268 564 272 559 271 564 l 254 564 l 254 543 l 267 543 l 267 550 l 272 550 m 650 170 l 635 170 l 635 176 l 622 176 l 622 153 b 632 147 622 149 625 147 l 632 136 l 589 136 l 589 147 b 597 150 595 147 597 148 l 597 212 b 589 215 597 214 595 215 l 589 227 l 657 227 l 657 197 l 650 197 m 872 214 l 872 227 l 905 227 l 905 214 b 897 210 901 214 898 212 l 878 175 l 878 150 b 886 147 878 148 880 147 l 886 136 l 846 136 l 846 147 b 854 150 852 147 854 148 l 854 175 l 835 210 b 827 214 833 212 830 214 l 827 227 l 865 227 l 865 214 l 860 214 l 868 196 l 878 214 m 389 926 l 389 939 l 419 939 l 419 926 b 411 922 415 926 413 925 l 395 886 l 395 861 b 403 859 395 859 397 859 l 403 847 l 359 847 l 359 859 b 370 861 366 859 370 859 l 370 886 l 349 922 b 343 926 348 925 346 926 l 343 939 l 379 939 l 379 926 l 374 926 l 385 907 l 393 926 m 262 811 l 262 823 l 294 823 l 294 811 b 288 807 291 811 288 810 l 268 772 l 268 747 b 277 745 268 746 271 745 l 277 732 l 235 732 l 235 745 b 243 747 240 745 243 746 l 243 772 l 225 807 b 216 811 223 810 220 811 l 216 823 l 254 823 l 254 811 l 249 811 l 258 791 l 268 811 m 1015 529 l 999 529 l 999 534 l 986 534 l 986 513 b 996 507 986 509 989 507 l 996 494 l 954 494 l 954 507 b 962 510 960 507 962 508 l 962 571 b 954 574 962 573 960 574 l 954 586 l 1022 586 l 1022 555 l 1015 555 m 994 329 l 994 342 l 1028 342 l 1028 329 b 1019 325 1023 329 1020 328 l 1000 290 l 1000 265 b 1008 262 1000 263 1003 262 l 1008 252 l 968 252 l 968 262 b 977 265 974 262 977 263 l 977 290 l 957 325 b 949 329 955 328 952 329 l 949 342 l 986 342 l 986 329 l 982 329 l 990 311 l 1000 329 m 237 863 b 250 860 237 861 242 860 l 250 847 l 212 847 l 212 860 b 220 863 217 860 220 861 l 220 918 b 212 926 220 924 217 926 l 212 939 l 232 939 l 272 892 l 272 924 b 261 926 272 925 268 926 l 261 939 l 298 939 l 298 926 b 292 924 294 926 292 925 l 292 847 l 279 847 l 237 895 m 501 880 l 525 939 l 553 939 l 553 926 b 546 918 548 926 546 924 l 546 863 b 553 860 546 861 548 860 l 553 847 l 517 847 l 517 860 b 521 861 519 860 521 860 l 521 882 l 507 847 l 490 847 l 472 884 l 472 863 b 478 860 472 861 474 860 l 478 847 l 447 847 l 447 860 b 453 863 451 860 453 861 l 453 918 b 447 926 453 924 451 926 l 447 939 l 472 939 m 791 893 b 781 860 791 880 788 869 b 749 846 773 850 763 846 b 714 860 733 846 721 850 b 703 893 706 869 703 880 b 714 925 703 906 706 917 b 747 939 721 934 732 939 b 781 925 762 939 773 934 b 791 893 788 917 791 906 m 848 863 b 861 860 848 861 853 860 l 861 847 l 822 847 l 822 860 b 828 863 826 860 828 861 l 828 918 b 822 926 828 924 826 926 l 822 939 l 843 939 l 882 892 l 882 924 b 871 926 882 925 878 926 l 871 939 l 908 939 l 908 926 b 903 924 904 926 903 925 l 903 847 l 888 847 l 848 895 m 1025 908 l 1007 908 b 1003 924 1007 918 1006 924 l 1000 924 l 1000 863 b 1008 860 1000 861 1003 860 l 1008 847 l 968 847 l 968 860 b 977 863 974 860 977 861 l 977 924 l 974 924 b 969 908 971 924 969 918 l 951 908 l 951 939 l 1025 939 m 622 865 b 632 860 622 862 625 860 l 632 847 l 589 847 l 589 860 b 597 863 595 860 597 861 l 597 924 b 589 926 597 925 595 926 l 589 939 l 657 939 l 657 908 l 639 908 b 636 924 639 918 638 924 l 622 924 l 622 901 l 635 901 l 635 907 l 650 907 l 650 882 l 635 882 l 635 888 l 622 888 m 971 150 b 983 147 971 148 975 147 l 983 136 l 945 136 l 945 147 b 951 150 949 147 951 148 l 951 205 b 945 214 951 211 949 214 l 945 227 l 965 227 l 1004 179 l 1004 211 b 993 214 1004 213 1001 214 l 993 227 l 1032 227 l 1032 214 b 1025 211 1027 214 1025 213 l 1025 136 l 1011 136 l 971 182 m 989 406 l 1014 464 l 1042 464 l 1042 452 b 1036 443 1038 452 1036 449 l 1036 387 b 1042 385 1036 385 1038 385 l 1042 374 l 1004 374 l 1004 385 b 1011 386 1009 385 1011 385 l 1011 406 l 994 374 l 979 374 l 961 408 l 961 387 b 966 385 961 385 963 385 l 966 374 l 935 374 l 935 385 b 940 387 938 385 940 385 l 940 443 b 935 452 940 449 938 452 l 935 464 l 961 464 m 1032 663 b 1022 631 1032 649 1029 639 b 987 616 1015 621 1003 616 b 956 629 972 616 962 621 b 945 663 948 638 945 649 b 954 696 945 677 948 688 b 986 710 961 705 972 710 b 1022 696 1003 710 1015 705 b 1032 663 1029 688 1032 677 m 971 754 b 983 751 971 752 975 751 l 983 739 l 945 739 l 945 751 b 951 754 949 751 951 752 l 951 810 b 945 818 951 815 949 818 l 945 831 l 965 831 l 1004 782 l 1004 815 b 993 818 1004 817 1001 818 l 993 831 l 1032 831 l 1032 818 b 1025 815 1027 818 1025 817 l 1025 739 l 1011 739 l 971 785 m 292 199 l 275 199 b 271 212 275 208 273 212 l 268 212 l 268 151 b 277 149 268 149 271 149 l 277 138 l 235 138 l 235 149 b 243 151 240 149 243 149 l 243 212 l 240 212 b 236 199 237 212 236 208 l 220 199 l 220 228 l 292 228 m 257 644 l 282 701 l 309 701 l 309 690 b 302 681 304 690 302 687 l 302 625 b 309 623 302 623 304 623 l 309 610 l 272 610 l 272 623 b 279 625 277 623 279 623 l 279 644 l 262 610 l 245 610 l 229 646 l 229 625 b 233 623 229 623 231 623 l 233 610 l 203 610 l 203 623 b 208 625 206 623 208 623 l 208 681 b 203 690 208 687 206 690 l 203 701 l 229 701 m 298 411 b 290 378 298 397 296 386 b 256 366 283 370 271 366 b 224 378 240 366 229 370 b 212 411 216 386 212 397 b 222 443 212 425 216 436 b 254 457 229 452 239 457 b 290 443 271 457 283 452 b 298 411 296 436 298 425 m 237 260 b 250 257 237 258 242 257 l 250 244 l 212 244 l 212 257 b 220 260 217 257 220 258 l 220 315 b 212 322 220 320 217 322 l 212 335 l 232 335 l 272 288 l 272 319 b 261 322 272 321 268 322 l 261 335 l 298 335 l 298 322 b 292 319 294 322 292 321 l 292 244 l 279 244 l 237 290 m 749 170 l 774 227 l 800 227 l 800 215 b 794 205 796 215 794 212 l 794 150 b 800 147 794 148 796 147 l 800 136 l 764 136 l 764 147 b 770 150 768 147 770 148 l 770 170 l 754 136 l 739 136 l 721 171 l 721 150 b 726 147 721 148 723 147 l 726 136 l 694 136 l 694 147 b 700 150 698 147 700 148 l 700 205 b 694 215 700 212 698 215 l 694 227 l 720 227 m 465 214 b 500 228 472 223 484 228 b 533 214 514 228 525 223 b 543 180 540 206 543 195 b 532 147 543 168 539 157 b 498 136 524 140 513 136 b 465 149 484 136 472 140 b 456 180 459 157 456 168 b 465 214 456 195 459 206 m 364 150 b 376 147 364 148 368 147 l 376 136 l 339 136 l 339 147 b 345 150 343 147 345 148 l 345 205 b 339 215 345 212 343 215 l 339 227 l 358 227 l 399 179 l 399 212 b 386 215 399 214 394 215 l 386 227 l 424 227 l 424 215 b 416 212 419 215 416 214 l 416 136 l 404 136 l 364 182 m 283 522 l 267 522 l 267 528 l 254 528 l 254 505 b 264 500 254 502 257 500 l 264 489 l 222 489 l 222 500 b 231 503 228 500 231 501 l 231 564 b 222 567 231 566 228 567 l 222 579 l 290 579 l 290 550 l 283 550 "},"₥":{"ha":1244,"x_min":0,"x_max":0,"o":"m 639 197 l 635 197 l 635 191 l 622 191 l 622 212 l 636 212 b 639 197 638 212 639 207 m 1004 555 l 999 555 l 999 550 l 986 550 l 986 571 l 1000 571 b 1004 555 1003 571 1004 566 m 749 860 b 736 868 744 860 740 863 b 729 893 732 873 730 882 b 736 918 729 904 731 912 b 747 925 739 923 743 925 b 758 918 751 925 755 923 b 765 893 762 911 764 903 b 758 867 765 882 763 873 b 749 860 755 862 752 860 m 987 631 b 978 637 984 631 981 633 b 971 664 973 644 971 653 b 977 689 971 674 973 682 b 987 696 979 694 983 696 b 999 689 992 696 996 694 b 1006 664 1003 682 1006 674 b 1000 637 1006 652 1004 643 b 987 631 997 633 993 631 m 256 378 b 244 386 251 378 247 380 b 237 411 240 392 237 400 b 243 436 237 423 239 432 b 256 443 246 441 250 443 b 267 436 260 443 264 441 b 273 411 271 431 273 422 b 268 385 273 400 271 391 b 256 378 265 380 261 378 m 511 155 b 498 149 507 151 503 149 b 488 155 494 149 490 151 b 482 182 484 161 482 170 b 488 207 482 193 484 201 b 500 214 491 211 495 214 b 513 207 505 214 509 211 b 518 182 516 201 518 193 b 511 155 518 171 516 162 m 272 550 l 267 550 l 267 543 l 254 543 l 254 564 l 268 564 b 272 550 271 564 272 559 m 650 197 l 657 197 l 657 227 l 589 227 l 589 215 b 597 212 595 215 597 214 l 597 150 b 589 147 597 148 595 147 l 589 136 l 632 136 l 632 147 b 622 153 625 147 622 149 l 622 176 l 635 176 l 635 170 l 650 170 m 878 214 l 868 196 l 860 214 l 865 214 l 865 227 l 827 227 l 827 214 b 835 210 830 214 833 212 l 854 175 l 854 150 b 846 147 854 148 852 147 l 846 136 l 886 136 l 886 147 b 878 150 880 147 878 148 l 878 175 l 897 210 b 905 214 898 212 901 214 l 905 227 l 872 227 l 872 214 m 393 926 l 385 907 l 374 926 l 379 926 l 379 939 l 343 939 l 343 926 b 349 922 346 926 348 925 l 370 886 l 370 861 b 359 859 370 859 366 859 l 359 847 l 403 847 l 403 859 b 395 861 397 859 395 859 l 395 886 l 411 922 b 419 926 413 925 415 926 l 419 939 l 389 939 l 389 926 m 268 811 l 258 791 l 249 811 l 254 811 l 254 823 l 216 823 l 216 811 b 225 807 220 811 223 810 l 243 772 l 243 747 b 235 745 243 746 240 745 l 235 732 l 277 732 l 277 745 b 268 747 271 745 268 746 l 268 772 l 288 807 b 294 811 288 810 291 811 l 294 823 l 262 823 l 262 811 m 1015 555 l 1022 555 l 1022 586 l 954 586 l 954 574 b 962 571 960 574 962 573 l 962 510 b 954 507 962 508 960 507 l 954 494 l 996 494 l 996 507 b 986 513 989 507 986 509 l 986 534 l 999 534 l 999 529 l 1015 529 m 1000 329 l 990 311 l 982 329 l 986 329 l 986 342 l 949 342 l 949 329 b 957 325 952 329 955 328 l 977 290 l 977 265 b 968 262 977 263 974 262 l 968 252 l 1008 252 l 1008 262 b 1000 265 1003 262 1000 263 l 1000 290 l 1019 325 b 1028 329 1020 328 1023 329 l 1028 342 l 994 342 l 994 329 m 237 895 l 279 847 l 292 847 l 292 924 b 298 926 292 925 294 926 l 298 939 l 261 939 l 261 926 b 272 924 268 926 272 925 l 272 892 l 232 939 l 212 939 l 212 926 b 220 918 217 926 220 924 l 220 863 b 212 860 220 861 217 860 l 212 847 l 250 847 l 250 860 b 237 863 242 860 237 861 m 472 939 l 447 939 l 447 926 b 453 918 451 926 453 924 l 453 863 b 447 860 453 861 451 860 l 447 847 l 478 847 l 478 860 b 472 863 474 860 472 861 l 472 884 l 490 847 l 507 847 l 521 882 l 521 861 b 517 860 521 860 519 860 l 517 847 l 553 847 l 553 860 b 546 863 548 860 546 861 l 546 918 b 553 926 546 924 548 926 l 553 939 l 525 939 l 501 880 m 791 893 b 781 925 791 906 788 917 b 747 939 773 934 762 939 b 714 925 732 939 721 934 b 703 893 706 917 703 906 b 714 860 703 880 706 869 b 749 846 721 850 733 846 b 781 860 763 846 773 850 b 791 893 788 869 791 880 m 848 895 l 888 847 l 903 847 l 903 924 b 908 926 903 925 904 926 l 908 939 l 871 939 l 871 926 b 882 924 878 926 882 925 l 882 892 l 843 939 l 822 939 l 822 926 b 828 918 826 926 828 924 l 828 863 b 822 860 828 861 826 860 l 822 847 l 861 847 l 861 860 b 848 863 853 860 848 861 m 1025 939 l 951 939 l 951 908 l 969 908 b 974 924 969 918 971 924 l 977 924 l 977 863 b 968 860 977 861 974 860 l 968 847 l 1008 847 l 1008 860 b 1000 863 1003 860 1000 861 l 1000 924 l 1003 924 b 1007 908 1006 924 1007 918 l 1025 908 m 622 888 l 635 888 l 635 882 l 650 882 l 650 907 l 635 907 l 635 901 l 622 901 l 622 924 l 636 924 b 639 908 638 924 639 918 l 657 908 l 657 939 l 589 939 l 589 926 b 597 924 595 926 597 925 l 597 863 b 589 860 597 861 595 860 l 589 847 l 632 847 l 632 860 b 622 865 625 860 622 862 m 971 182 l 1011 136 l 1025 136 l 1025 211 b 1032 214 1025 213 1027 214 l 1032 227 l 993 227 l 993 214 b 1004 211 1001 214 1004 213 l 1004 179 l 965 227 l 945 227 l 945 214 b 951 205 949 214 951 211 l 951 150 b 945 147 951 148 949 147 l 945 136 l 983 136 l 983 147 b 971 150 975 147 971 148 m 961 464 l 935 464 l 935 452 b 940 443 938 452 940 449 l 940 387 b 935 385 940 385 938 385 l 935 374 l 966 374 l 966 385 b 961 387 963 385 961 385 l 961 408 l 979 374 l 994 374 l 1011 406 l 1011 386 b 1004 385 1011 385 1009 385 l 1004 374 l 1042 374 l 1042 385 b 1036 387 1038 385 1036 385 l 1036 443 b 1042 452 1036 449 1038 452 l 1042 464 l 1014 464 l 989 406 m 1032 663 b 1022 696 1032 677 1029 688 b 986 710 1015 705 1003 710 b 954 696 972 710 961 705 b 945 663 948 688 945 677 b 956 629 945 649 948 638 b 987 616 962 621 972 616 b 1022 631 1003 616 1015 621 b 1032 663 1029 639 1032 649 m 971 785 l 1011 739 l 1025 739 l 1025 815 b 1032 818 1025 817 1027 818 l 1032 831 l 993 831 l 993 818 b 1004 815 1001 818 1004 817 l 1004 782 l 965 831 l 945 831 l 945 818 b 951 810 949 818 951 815 l 951 754 b 945 751 951 752 949 751 l 945 739 l 983 739 l 983 751 b 971 754 975 751 971 752 m 292 228 l 220 228 l 220 199 l 236 199 b 240 212 236 208 237 212 l 243 212 l 243 151 b 235 149 243 149 240 149 l 235 138 l 277 138 l 277 149 b 268 151 271 149 268 149 l 268 212 l 271 212 b 275 199 273 212 275 208 l 292 199 m 229 701 l 203 701 l 203 690 b 208 681 206 690 208 687 l 208 625 b 203 623 208 623 206 623 l 203 610 l 233 610 l 233 623 b 229 625 231 623 229 623 l 229 646 l 245 610 l 262 610 l 279 644 l 279 625 b 272 623 279 623 277 623 l 272 610 l 309 610 l 309 623 b 302 625 304 623 302 623 l 302 681 b 309 690 302 687 304 690 l 309 701 l 282 701 l 257 644 m 298 411 b 290 443 298 425 296 436 b 254 457 283 452 271 457 b 222 443 239 457 229 452 b 212 411 216 436 212 425 b 224 378 212 397 216 386 b 256 366 229 370 240 366 b 290 378 271 366 283 370 b 298 411 296 386 298 397 m 237 290 l 279 244 l 292 244 l 292 319 b 298 322 292 321 294 322 l 298 335 l 261 335 l 261 322 b 272 319 268 322 272 321 l 272 288 l 232 335 l 212 335 l 212 322 b 220 315 217 322 220 320 l 220 260 b 212 257 220 258 217 257 l 212 244 l 250 244 l 250 257 b 237 260 242 257 237 258 m 720 227 l 694 227 l 694 215 b 700 205 698 215 700 212 l 700 150 b 694 147 700 148 698 147 l 694 136 l 726 136 l 726 147 b 721 150 723 147 721 148 l 721 171 l 739 136 l 754 136 l 770 170 l 770 150 b 764 147 770 148 768 147 l 764 136 l 800 136 l 800 147 b 794 150 796 147 794 148 l 794 205 b 800 215 794 212 796 215 l 800 227 l 774 227 l 749 170 m 465 214 b 456 180 459 206 456 195 b 465 149 456 168 459 157 b 498 136 472 140 484 136 b 532 147 513 136 524 140 b 543 180 539 157 543 168 b 533 214 543 195 540 206 b 500 228 525 223 514 228 b 465 214 484 228 472 223 m 364 182 l 404 136 l 416 136 l 416 212 b 424 215 416 214 419 215 l 424 227 l 386 227 l 386 215 b 399 212 394 215 399 214 l 399 179 l 358 227 l 339 227 l 339 215 b 345 205 343 215 345 212 l 345 150 b 339 147 345 148 343 147 l 339 136 l 376 136 l 376 147 b 364 150 368 147 364 148 m 283 550 l 290 550 l 290 579 l 222 579 l 222 567 b 231 564 228 567 231 566 l 231 503 b 222 500 231 501 228 500 l 222 489 l 264 489 l 264 500 b 254 505 257 500 254 502 l 254 528 l 267 528 l 267 522 l 283 522 "},"₦":{"ha":1244,"x_min":0,"x_max":0,"o":"m 639 197 b 636 212 639 207 638 212 l 622 212 l 622 191 l 635 191 l 635 197 l 639 197 m 1004 555 b 1000 571 1004 566 1003 571 l 986 571 l 986 550 l 999 550 l 999 555 l 1004 555 m 749 860 b 758 867 752 860 755 862 b 765 893 763 873 765 882 b 758 918 764 903 762 911 b 747 925 755 923 751 925 b 736 918 743 925 739 923 b 729 893 731 912 729 904 b 736 868 730 882 732 873 b 749 860 740 863 744 860 m 987 631 b 1000 637 993 631 997 633 b 1006 664 1004 643 1006 652 b 999 689 1006 674 1003 682 b 987 696 996 694 992 696 b 977 689 983 696 979 694 b 971 664 973 682 971 674 b 978 637 971 653 973 644 b 987 631 981 633 984 631 m 256 378 b 268 385 261 378 265 380 b 273 411 271 391 273 400 b 267 436 273 422 271 431 b 256 443 264 441 260 443 b 243 436 250 443 246 441 b 237 411 239 432 237 423 b 244 386 237 400 240 392 b 256 378 247 380 251 378 m 511 155 b 518 182 516 162 518 171 b 513 207 518 193 516 201 b 500 214 509 211 505 214 b 488 207 495 214 491 211 b 482 182 484 201 482 193 b 488 155 482 170 484 161 b 498 149 490 151 494 149 b 511 155 503 149 507 151 m 272 550 b 268 564 272 559 271 564 l 254 564 l 254 543 l 267 543 l 267 550 l 272 550 m 650 170 l 635 170 l 635 176 l 622 176 l 622 153 b 632 147 622 149 625 147 l 632 136 l 589 136 l 589 147 b 597 150 595 147 597 148 l 597 212 b 589 215 597 214 595 215 l 589 227 l 657 227 l 657 197 l 650 197 m 872 214 l 872 227 l 905 227 l 905 214 b 897 210 901 214 898 212 l 878 175 l 878 150 b 886 147 878 148 880 147 l 886 136 l 846 136 l 846 147 b 854 150 852 147 854 148 l 854 175 l 835 210 b 827 214 833 212 830 214 l 827 227 l 865 227 l 865 214 l 860 214 l 868 196 l 878 214 m 389 926 l 389 939 l 419 939 l 419 926 b 411 922 415 926 413 925 l 395 886 l 395 861 b 403 859 395 859 397 859 l 403 847 l 359 847 l 359 859 b 370 861 366 859 370 859 l 370 886 l 349 922 b 343 926 348 925 346 926 l 343 939 l 379 939 l 379 926 l 374 926 l 385 907 l 393 926 m 262 811 l 262 823 l 294 823 l 294 811 b 288 807 291 811 288 810 l 268 772 l 268 747 b 277 745 268 746 271 745 l 277 732 l 235 732 l 235 745 b 243 747 240 745 243 746 l 243 772 l 225 807 b 216 811 223 810 220 811 l 216 823 l 254 823 l 254 811 l 249 811 l 258 791 l 268 811 m 1015 529 l 999 529 l 999 534 l 986 534 l 986 513 b 996 507 986 509 989 507 l 996 494 l 954 494 l 954 507 b 962 510 960 507 962 508 l 962 571 b 954 574 962 573 960 574 l 954 586 l 1022 586 l 1022 555 l 1015 555 m 994 329 l 994 342 l 1028 342 l 1028 329 b 1019 325 1023 329 1020 328 l 1000 290 l 1000 265 b 1008 262 1000 263 1003 262 l 1008 252 l 968 252 l 968 262 b 977 265 974 262 977 263 l 977 290 l 957 325 b 949 329 955 328 952 329 l 949 342 l 986 342 l 986 329 l 982 329 l 990 311 l 1000 329 m 237 863 b 250 860 237 861 242 860 l 250 847 l 212 847 l 212 860 b 220 863 217 860 220 861 l 220 918 b 212 926 220 924 217 926 l 212 939 l 232 939 l 272 892 l 272 924 b 261 926 272 925 268 926 l 261 939 l 298 939 l 298 926 b 292 924 294 926 292 925 l 292 847 l 279 847 l 237 895 m 501 880 l 525 939 l 553 939 l 553 926 b 546 918 548 926 546 924 l 546 863 b 553 860 546 861 548 860 l 553 847 l 517 847 l 517 860 b 521 861 519 860 521 860 l 521 882 l 507 847 l 490 847 l 472 884 l 472 863 b 478 860 472 861 474 860 l 478 847 l 447 847 l 447 860 b 453 863 451 860 453 861 l 453 918 b 447 926 453 924 451 926 l 447 939 l 472 939 m 791 893 b 781 860 791 880 788 869 b 749 846 773 850 763 846 b 714 860 733 846 721 850 b 703 893 706 869 703 880 b 714 925 703 906 706 917 b 747 939 721 934 732 939 b 781 925 762 939 773 934 b 791 893 788 917 791 906 m 848 863 b 861 860 848 861 853 860 l 861 847 l 822 847 l 822 860 b 828 863 826 860 828 861 l 828 918 b 822 926 828 924 826 926 l 822 939 l 843 939 l 882 892 l 882 924 b 871 926 882 925 878 926 l 871 939 l 908 939 l 908 926 b 903 924 904 926 903 925 l 903 847 l 888 847 l 848 895 m 1025 908 l 1007 908 b 1003 924 1007 918 1006 924 l 1000 924 l 1000 863 b 1008 860 1000 861 1003 860 l 1008 847 l 968 847 l 968 860 b 977 863 974 860 977 861 l 977 924 l 974 924 b 969 908 971 924 969 918 l 951 908 l 951 939 l 1025 939 m 622 865 b 632 860 622 862 625 860 l 632 847 l 589 847 l 589 860 b 597 863 595 860 597 861 l 597 924 b 589 926 597 925 595 926 l 589 939 l 657 939 l 657 908 l 639 908 b 636 924 639 918 638 924 l 622 924 l 622 901 l 635 901 l 635 907 l 650 907 l 650 882 l 635 882 l 635 888 l 622 888 m 971 150 b 983 147 971 148 975 147 l 983 136 l 945 136 l 945 147 b 951 150 949 147 951 148 l 951 205 b 945 214 951 211 949 214 l 945 227 l 965 227 l 1004 179 l 1004 211 b 993 214 1004 213 1001 214 l 993 227 l 1032 227 l 1032 214 b 1025 211 1027 214 1025 213 l 1025 136 l 1011 136 l 971 182 m 989 406 l 1014 464 l 1042 464 l 1042 452 b 1036 443 1038 452 1036 449 l 1036 387 b 1042 385 1036 385 1038 385 l 1042 374 l 1004 374 l 1004 385 b 1011 386 1009 385 1011 385 l 1011 406 l 994 374 l 979 374 l 961 408 l 961 387 b 966 385 961 385 963 385 l 966 374 l 935 374 l 935 385 b 940 387 938 385 940 385 l 940 443 b 935 452 940 449 938 452 l 935 464 l 961 464 m 1032 663 b 1022 631 1032 649 1029 639 b 987 616 1015 621 1003 616 b 956 629 972 616 962 621 b 945 663 948 638 945 649 b 954 696 945 677 948 688 b 986 710 961 705 972 710 b 1022 696 1003 710 1015 705 b 1032 663 1029 688 1032 677 m 971 754 b 983 751 971 752 975 751 l 983 739 l 945 739 l 945 751 b 951 754 949 751 951 752 l 951 810 b 945 818 951 815 949 818 l 945 831 l 965 831 l 1004 782 l 1004 815 b 993 818 1004 817 1001 818 l 993 831 l 1032 831 l 1032 818 b 1025 815 1027 818 1025 817 l 1025 739 l 1011 739 l 971 785 m 292 199 l 275 199 b 271 212 275 208 273 212 l 268 212 l 268 151 b 277 149 268 149 271 149 l 277 138 l 235 138 l 235 149 b 243 151 240 149 243 149 l 243 212 l 240 212 b 236 199 237 212 236 208 l 220 199 l 220 228 l 292 228 m 257 644 l 282 701 l 309 701 l 309 690 b 302 681 304 690 302 687 l 302 625 b 309 623 302 623 304 623 l 309 610 l 272 610 l 272 623 b 279 625 277 623 279 623 l 279 644 l 262 610 l 245 610 l 229 646 l 229 625 b 233 623 229 623 231 623 l 233 610 l 203 610 l 203 623 b 208 625 206 623 208 623 l 208 681 b 203 690 208 687 206 690 l 203 701 l 229 701 m 298 411 b 290 378 298 397 296 386 b 256 366 283 370 271 366 b 224 378 240 366 229 370 b 212 411 216 386 212 397 b 222 443 212 425 216 436 b 254 457 229 452 239 457 b 290 443 271 457 283 452 b 298 411 296 436 298 425 m 237 260 b 250 257 237 258 242 257 l 250 244 l 212 244 l 212 257 b 220 260 217 257 220 258 l 220 315 b 212 322 220 320 217 322 l 212 335 l 232 335 l 272 288 l 272 319 b 261 322 272 321 268 322 l 261 335 l 298 335 l 298 322 b 292 319 294 322 292 321 l 292 244 l 279 244 l 237 290 m 749 170 l 774 227 l 800 227 l 800 215 b 794 205 796 215 794 212 l 794 150 b 800 147 794 148 796 147 l 800 136 l 764 136 l 764 147 b 770 150 768 147 770 148 l 770 170 l 754 136 l 739 136 l 721 171 l 721 150 b 726 147 721 148 723 147 l 726 136 l 694 136 l 694 147 b 700 150 698 147 700 148 l 700 205 b 694 215 700 212 698 215 l 694 227 l 720 227 m 465 214 b 500 228 472 223 484 228 b 533 214 514 228 525 223 b 543 180 540 206 543 195 b 532 147 543 168 539 157 b 498 136 524 140 513 136 b 465 149 484 136 472 140 b 456 180 459 157 456 168 b 465 214 456 195 459 206 m 364 150 b 376 147 364 148 368 147 l 376 136 l 339 136 l 339 147 b 345 150 343 147 345 148 l 345 205 b 339 215 345 212 343 215 l 339 227 l 358 227 l 399 179 l 399 212 b 386 215 399 214 394 215 l 386 227 l 424 227 l 424 215 b 416 212 419 215 416 214 l 416 136 l 404 136 l 364 182 m 283 522 l 267 522 l 267 528 l 254 528 l 254 505 b 264 500 254 502 257 500 l 264 489 l 222 489 l 222 500 b 231 503 228 500 231 501 l 231 564 b 222 567 231 566 228 567 l 222 579 l 290 579 l 290 550 l 283 550 "},"℣":{"ha":1244,"x_min":0,"x_max":0,"o":"m 639 197 l 635 197 l 635 191 l 622 191 l 622 212 l 636 212 b 639 197 638 212 639 207 m 1004 555 l 999 555 l 999 550 l 986 550 l 986 571 l 1000 571 b 1004 555 1003 571 1004 566 m 749 860 b 736 868 744 860 740 863 b 729 893 732 873 730 882 b 736 918 729 904 731 912 b 747 925 739 923 743 925 b 758 918 751 925 755 923 b 765 893 762 911 764 903 b 758 867 765 882 763 873 b 749 860 755 862 752 860 m 987 631 b 978 637 984 631 981 633 b 971 664 973 644 971 653 b 977 689 971 674 973 682 b 987 696 979 694 983 696 b 999 689 992 696 996 694 b 1006 664 1003 682 1006 674 b 1000 637 1006 652 1004 643 b 987 631 997 633 993 631 m 256 378 b 244 386 251 378 247 380 b 237 411 240 392 237 400 b 243 436 237 423 239 432 b 256 443 246 441 250 443 b 267 436 260 443 264 441 b 273 411 271 431 273 422 b 268 385 273 400 271 391 b 256 378 265 380 261 378 m 511 155 b 498 149 507 151 503 149 b 488 155 494 149 490 151 b 482 182 484 161 482 170 b 488 207 482 193 484 201 b 500 214 491 211 495 214 b 513 207 505 214 509 211 b 518 182 516 201 518 193 b 511 155 518 171 516 162 m 272 550 l 267 550 l 267 543 l 254 543 l 254 564 l 268 564 b 272 550 271 564 272 559 m 650 197 l 657 197 l 657 227 l 589 227 l 589 215 b 597 212 595 215 597 214 l 597 150 b 589 147 597 148 595 147 l 589 136 l 632 136 l 632 147 b 622 153 625 147 622 149 l 622 176 l 635 176 l 635 170 l 650 170 m 878 214 l 868 196 l 860 214 l 865 214 l 865 227 l 827 227 l 827 214 b 835 210 830 214 833 212 l 854 175 l 854 150 b 846 147 854 148 852 147 l 846 136 l 886 136 l 886 147 b 878 150 880 147 878 148 l 878 175 l 897 210 b 905 214 898 212 901 214 l 905 227 l 872 227 l 872 214 m 393 926 l 385 907 l 374 926 l 379 926 l 379 939 l 343 939 l 343 926 b 349 922 346 926 348 925 l 370 886 l 370 861 b 359 859 370 859 366 859 l 359 847 l 403 847 l 403 859 b 395 861 397 859 395 859 l 395 886 l 411 922 b 419 926 413 925 415 926 l 419 939 l 389 939 l 389 926 m 268 811 l 258 791 l 249 811 l 254 811 l 254 823 l 216 823 l 216 811 b 225 807 220 811 223 810 l 243 772 l 243 747 b 235 745 243 746 240 745 l 235 732 l 277 732 l 277 745 b 268 747 271 745 268 746 l 268 772 l 288 807 b 294 811 288 810 291 811 l 294 823 l 262 823 l 262 811 m 1015 555 l 1022 555 l 1022 586 l 954 586 l 954 574 b 962 571 960 574 962 573 l 962 510 b 954 507 962 508 960 507 l 954 494 l 996 494 l 996 507 b 986 513 989 507 986 509 l 986 534 l 999 534 l 999 529 l 1015 529 m 1000 329 l 990 311 l 982 329 l 986 329 l 986 342 l 949 342 l 949 329 b 957 325 952 329 955 328 l 977 290 l 977 265 b 968 262 977 263 974 262 l 968 252 l 1008 252 l 1008 262 b 1000 265 1003 262 1000 263 l 1000 290 l 1019 325 b 1028 329 1020 328 1023 329 l 1028 342 l 994 342 l 994 329 m 237 895 l 279 847 l 292 847 l 292 924 b 298 926 292 925 294 926 l 298 939 l 261 939 l 261 926 b 272 924 268 926 272 925 l 272 892 l 232 939 l 212 939 l 212 926 b 220 918 217 926 220 924 l 220 863 b 212 860 220 861 217 860 l 212 847 l 250 847 l 250 860 b 237 863 242 860 237 861 m 472 939 l 447 939 l 447 926 b 453 918 451 926 453 924 l 453 863 b 447 860 453 861 451 860 l 447 847 l 478 847 l 478 860 b 472 863 474 860 472 861 l 472 884 l 490 847 l 507 847 l 521 882 l 521 861 b 517 860 521 860 519 860 l 517 847 l 553 847 l 553 860 b 546 863 548 860 546 861 l 546 918 b 553 926 546 924 548 926 l 553 939 l 525 939 l 501 880 m 791 893 b 781 925 791 906 788 917 b 747 939 773 934 762 939 b 714 925 732 939 721 934 b 703 893 706 917 703 906 b 714 860 703 880 706 869 b 749 846 721 850 733 846 b 781 860 763 846 773 850 b 791 893 788 869 791 880 m 848 895 l 888 847 l 903 847 l 903 924 b 908 926 903 925 904 926 l 908 939 l 871 939 l 871 926 b 882 924 878 926 882 925 l 882 892 l 843 939 l 822 939 l 822 926 b 828 918 826 926 828 924 l 828 863 b 822 860 828 861 826 860 l 822 847 l 861 847 l 861 860 b 848 863 853 860 848 861 m 1025 939 l 951 939 l 951 908 l 969 908 b 974 924 969 918 971 924 l 977 924 l 977 863 b 968 860 977 861 974 860 l 968 847 l 1008 847 l 1008 860 b 1000 863 1003 860 1000 861 l 1000 924 l 1003 924 b 1007 908 1006 924 1007 918 l 1025 908 m 622 888 l 635 888 l 635 882 l 650 882 l 650 907 l 635 907 l 635 901 l 622 901 l 622 924 l 636 924 b 639 908 638 924 639 918 l 657 908 l 657 939 l 589 939 l 589 926 b 597 924 595 926 597 925 l 597 863 b 589 860 597 861 595 860 l 589 847 l 632 847 l 632 860 b 622 865 625 860 622 862 m 971 182 l 1011 136 l 1025 136 l 1025 211 b 1032 214 1025 213 1027 214 l 1032 227 l 993 227 l 993 214 b 1004 211 1001 214 1004 213 l 1004 179 l 965 227 l 945 227 l 945 214 b 951 205 949 214 951 211 l 951 150 b 945 147 951 148 949 147 l 945 136 l 983 136 l 983 147 b 971 150 975 147 971 148 m 961 464 l 935 464 l 935 452 b 940 443 938 452 940 449 l 940 387 b 935 385 940 385 938 385 l 935 374 l 966 374 l 966 385 b 961 387 963 385 961 385 l 961 408 l 979 374 l 994 374 l 1011 406 l 1011 386 b 1004 385 1011 385 1009 385 l 1004 374 l 1042 374 l 1042 385 b 1036 387 1038 385 1036 385 l 1036 443 b 1042 452 1036 449 1038 452 l 1042 464 l 1014 464 l 989 406 m 1032 663 b 1022 696 1032 677 1029 688 b 986 710 1015 705 1003 710 b 954 696 972 710 961 705 b 945 663 948 688 945 677 b 956 629 945 649 948 638 b 987 616 962 621 972 616 b 1022 631 1003 616 1015 621 b 1032 663 1029 639 1032 649 m 971 785 l 1011 739 l 1025 739 l 1025 815 b 1032 818 1025 817 1027 818 l 1032 831 l 993 831 l 993 818 b 1004 815 1001 818 1004 817 l 1004 782 l 965 831 l 945 831 l 945 818 b 951 810 949 818 951 815 l 951 754 b 945 751 951 752 949 751 l 945 739 l 983 739 l 983 751 b 971 754 975 751 971 752 m 292 228 l 220 228 l 220 199 l 236 199 b 240 212 236 208 237 212 l 243 212 l 243 151 b 235 149 243 149 240 149 l 235 138 l 277 138 l 277 149 b 268 151 271 149 268 149 l 268 212 l 271 212 b 275 199 273 212 275 208 l 292 199 m 229 701 l 203 701 l 203 690 b 208 681 206 690 208 687 l 208 625 b 203 623 208 623 206 623 l 203 610 l 233 610 l 233 623 b 229 625 231 623 229 623 l 229 646 l 245 610 l 262 610 l 279 644 l 279 625 b 272 623 279 623 277 623 l 272 610 l 309 610 l 309 623 b 302 625 304 623 302 623 l 302 681 b 309 690 302 687 304 690 l 309 701 l 282 701 l 257 644 m 298 411 b 290 443 298 425 296 436 b 254 457 283 452 271 457 b 222 443 239 457 229 452 b 212 411 216 436 212 425 b 224 378 212 397 216 386 b 256 366 229 370 240 366 b 290 378 271 366 283 370 b 298 411 296 386 298 397 m 237 290 l 279 244 l 292 244 l 292 319 b 298 322 292 321 294 322 l 298 335 l 261 335 l 261 322 b 272 319 268 322 272 321 l 272 288 l 232 335 l 212 335 l 212 322 b 220 315 217 322 220 320 l 220 260 b 212 257 220 258 217 257 l 212 244 l 250 244 l 250 257 b 237 260 242 257 237 258 m 720 227 l 694 227 l 694 215 b 700 205 698 215 700 212 l 700 150 b 694 147 700 148 698 147 l 694 136 l 726 136 l 726 147 b 721 150 723 147 721 148 l 721 171 l 739 136 l 754 136 l 770 170 l 770 150 b 764 147 770 148 768 147 l 764 136 l 800 136 l 800 147 b 794 150 796 147 794 148 l 794 205 b 800 215 794 212 796 215 l 800 227 l 774 227 l 749 170 m 465 214 b 456 180 459 206 456 195 b 465 149 456 168 459 157 b 498 136 472 140 484 136 b 532 147 513 136 524 140 b 543 180 539 157 543 168 b 533 214 543 195 540 206 b 500 228 525 223 514 228 b 465 214 484 228 472 223 m 364 182 l 404 136 l 416 136 l 416 212 b 424 215 416 214 419 215 l 424 227 l 386 227 l 386 215 b 399 212 394 215 399 214 l 399 179 l 358 227 l 339 227 l 339 215 b 345 205 343 215 345 212 l 345 150 b 339 147 345 148 343 147 l 339 136 l 376 136 l 376 147 b 364 150 368 147 364 148 m 283 550 l 290 550 l 290 579 l 222 579 l 222 567 b 231 564 228 567 231 566 l 231 503 b 222 500 231 501 228 500 l 222 489 l 264 489 l 264 500 b 254 505 257 500 254 502 l 254 528 l 267 528 l 267 522 l 283 522 "},"ℤ":{"ha":1244,"x_min":0,"x_max":0,"o":"m 639 197 b 636 212 639 207 638 212 l 622 212 l 622 191 l 635 191 l 635 197 l 639 197 m 1004 555 b 1000 571 1004 566 1003 571 l 986 571 l 986 550 l 999 550 l 999 555 l 1004 555 m 749 860 b 758 867 752 860 755 862 b 765 893 763 873 765 882 b 758 918 764 903 762 911 b 747 925 755 923 751 925 b 736 918 743 925 739 923 b 729 893 731 912 729 904 b 736 868 730 882 732 873 b 749 860 740 863 744 860 m 987 631 b 1000 637 993 631 997 633 b 1006 664 1004 643 1006 652 b 999 689 1006 674 1003 682 b 987 696 996 694 992 696 b 977 689 983 696 979 694 b 971 664 973 682 971 674 b 978 637 971 653 973 644 b 987 631 981 633 984 631 m 256 378 b 268 385 261 378 265 380 b 273 411 271 391 273 400 b 267 436 273 422 271 431 b 256 443 264 441 260 443 b 243 436 250 443 246 441 b 237 411 239 432 237 423 b 244 386 237 400 240 392 b 256 378 247 380 251 378 m 511 155 b 518 182 516 162 518 171 b 513 207 518 193 516 201 b 500 214 509 211 505 214 b 488 207 495 214 491 211 b 482 182 484 201 482 193 b 488 155 482 170 484 161 b 498 149 490 151 494 149 b 511 155 503 149 507 151 m 272 550 b 268 564 272 559 271 564 l 254 564 l 254 543 l 267 543 l 267 550 l 272 550 m 650 170 l 635 170 l 635 176 l 622 176 l 622 153 b 632 147 622 149 625 147 l 632 136 l 589 136 l 589 147 b 597 150 595 147 597 148 l 597 212 b 589 215 597 214 595 215 l 589 227 l 657 227 l 657 197 l 650 197 m 872 214 l 872 227 l 905 227 l 905 214 b 897 210 901 214 898 212 l 878 175 l 878 150 b 886 147 878 148 880 147 l 886 136 l 846 136 l 846 147 b 854 150 852 147 854 148 l 854 175 l 835 210 b 827 214 833 212 830 214 l 827 227 l 865 227 l 865 214 l 860 214 l 868 196 l 878 214 m 389 926 l 389 939 l 419 939 l 419 926 b 411 922 415 926 413 925 l 395 886 l 395 861 b 403 859 395 859 397 859 l 403 847 l 359 847 l 359 859 b 370 861 366 859 370 859 l 370 886 l 349 922 b 343 926 348 925 346 926 l 343 939 l 379 939 l 379 926 l 374 926 l 385 907 l 393 926 m 262 811 l 262 823 l 294 823 l 294 811 b 288 807 291 811 288 810 l 268 772 l 268 747 b 277 745 268 746 271 745 l 277 732 l 235 732 l 235 745 b 243 747 240 745 243 746 l 243 772 l 225 807 b 216 811 223 810 220 811 l 216 823 l 254 823 l 254 811 l 249 811 l 258 791 l 268 811 m 1015 529 l 999 529 l 999 534 l 986 534 l 986 513 b 996 507 986 509 989 507 l 996 494 l 954 494 l 954 507 b 962 510 960 507 962 508 l 962 571 b 954 574 962 573 960 574 l 954 586 l 1022 586 l 1022 555 l 1015 555 m 994 329 l 994 342 l 1028 342 l 1028 329 b 1019 325 1023 329 1020 328 l 1000 290 l 1000 265 b 1008 262 1000 263 1003 262 l 1008 252 l 968 252 l 968 262 b 977 265 974 262 977 263 l 977 290 l 957 325 b 949 329 955 328 952 329 l 949 342 l 986 342 l 986 329 l 982 329 l 990 311 l 1000 329 m 237 863 b 250 860 237 861 242 860 l 250 847 l 212 847 l 212 860 b 220 863 217 860 220 861 l 220 918 b 212 926 220 924 217 926 l 212 939 l 232 939 l 272 892 l 272 924 b 261 926 272 925 268 926 l 261 939 l 298 939 l 298 926 b 292 924 294 926 292 925 l 292 847 l 279 847 l 237 895 m 501 880 l 525 939 l 553 939 l 553 926 b 546 918 548 926 546 924 l 546 863 b 553 860 546 861 548 860 l 553 847 l 517 847 l 517 860 b 521 861 519 860 521 860 l 521 882 l 507 847 l 490 847 l 472 884 l 472 863 b 478 860 472 861 474 860 l 478 847 l 447 847 l 447 860 b 453 863 451 860 453 861 l 453 918 b 447 926 453 924 451 926 l 447 939 l 472 939 m 791 893 b 781 860 791 880 788 869 b 749 846 773 850 763 846 b 714 860 733 846 721 850 b 703 893 706 869 703 880 b 714 925 703 906 706 917 b 747 939 721 934 732 939 b 781 925 762 939 773 934 b 791 893 788 917 791 906 m 848 863 b 861 860 848 861 853 860 l 861 847 l 822 847 l 822 860 b 828 863 826 860 828 861 l 828 918 b 822 926 828 924 826 926 l 822 939 l 843 939 l 882 892 l 882 924 b 871 926 882 925 878 926 l 871 939 l 908 939 l 908 926 b 903 924 904 926 903 925 l 903 847 l 888 847 l 848 895 m 1025 908 l 1007 908 b 1003 924 1007 918 1006 924 l 1000 924 l 1000 863 b 1008 860 1000 861 1003 860 l 1008 847 l 968 847 l 968 860 b 977 863 974 860 977 861 l 977 924 l 974 924 b 969 908 971 924 969 918 l 951 908 l 951 939 l 1025 939 m 622 865 b 632 860 622 862 625 860 l 632 847 l 589 847 l 589 860 b 597 863 595 860 597 861 l 597 924 b 589 926 597 925 595 926 l 589 939 l 657 939 l 657 908 l 639 908 b 636 924 639 918 638 924 l 622 924 l 622 901 l 635 901 l 635 907 l 650 907 l 650 882 l 635 882 l 635 888 l 622 888 m 971 150 b 983 147 971 148 975 147 l 983 136 l 945 136 l 945 147 b 951 150 949 147 951 148 l 951 205 b 945 214 951 211 949 214 l 945 227 l 965 227 l 1004 179 l 1004 211 b 993 214 1004 213 1001 214 l 993 227 l 1032 227 l 1032 214 b 1025 211 1027 214 1025 213 l 1025 136 l 1011 136 l 971 182 m 989 406 l 1014 464 l 1042 464 l 1042 452 b 1036 443 1038 452 1036 449 l 1036 387 b 1042 385 1036 385 1038 385 l 1042 374 l 1004 374 l 1004 385 b 1011 386 1009 385 1011 385 l 1011 406 l 994 374 l 979 374 l 961 408 l 961 387 b 966 385 961 385 963 385 l 966 374 l 935 374 l 935 385 b 940 387 938 385 940 385 l 940 443 b 935 452 940 449 938 452 l 935 464 l 961 464 m 1032 663 b 1022 631 1032 649 1029 639 b 987 616 1015 621 1003 616 b 956 629 972 616 962 621 b 945 663 948 638 945 649 b 954 696 945 677 948 688 b 986 710 961 705 972 710 b 1022 696 1003 710 1015 705 b 1032 663 1029 688 1032 677 m 971 754 b 983 751 971 752 975 751 l 983 739 l 945 739 l 945 751 b 951 754 949 751 951 752 l 951 810 b 945 818 951 815 949 818 l 945 831 l 965 831 l 1004 782 l 1004 815 b 993 818 1004 817 1001 818 l 993 831 l 1032 831 l 1032 818 b 1025 815 1027 818 1025 817 l 1025 739 l 1011 739 l 971 785 m 292 199 l 275 199 b 271 212 275 208 273 212 l 268 212 l 268 151 b 277 149 268 149 271 149 l 277 138 l 235 138 l 235 149 b 243 151 240 149 243 149 l 243 212 l 240 212 b 236 199 237 212 236 208 l 220 199 l 220 228 l 292 228 m 257 644 l 282 701 l 309 701 l 309 690 b 302 681 304 690 302 687 l 302 625 b 309 623 302 623 304 623 l 309 610 l 272 610 l 272 623 b 279 625 277 623 279 623 l 279 644 l 262 610 l 245 610 l 229 646 l 229 625 b 233 623 229 623 231 623 l 233 610 l 203 610 l 203 623 b 208 625 206 623 208 623 l 208 681 b 203 690 208 687 206 690 l 203 701 l 229 701 m 298 411 b 290 378 298 397 296 386 b 256 366 283 370 271 366 b 224 378 240 366 229 370 b 212 411 216 386 212 397 b 222 443 212 425 216 436 b 254 457 229 452 239 457 b 290 443 271 457 283 452 b 298 411 296 436 298 425 m 237 260 b 250 257 237 258 242 257 l 250 244 l 212 244 l 212 257 b 220 260 217 257 220 258 l 220 315 b 212 322 220 320 217 322 l 212 335 l 232 335 l 272 288 l 272 319 b 261 322 272 321 268 322 l 261 335 l 298 335 l 298 322 b 292 319 294 322 292 321 l 292 244 l 279 244 l 237 290 m 749 170 l 774 227 l 800 227 l 800 215 b 794 205 796 215 794 212 l 794 150 b 800 147 794 148 796 147 l 800 136 l 764 136 l 764 147 b 770 150 768 147 770 148 l 770 170 l 754 136 l 739 136 l 721 171 l 721 150 b 726 147 721 148 723 147 l 726 136 l 694 136 l 694 147 b 700 150 698 147 700 148 l 700 205 b 694 215 700 212 698 215 l 694 227 l 720 227 m 465 214 b 500 228 472 223 484 228 b 533 214 514 228 525 223 b 543 180 540 206 543 195 b 532 147 543 168 539 157 b 498 136 524 140 513 136 b 465 149 484 136 472 140 b 456 180 459 157 456 168 b 465 214 456 195 459 206 m 364 150 b 376 147 364 148 368 147 l 376 136 l 339 136 l 339 147 b 345 150 343 147 345 148 l 345 205 b 339 215 345 212 343 215 l 339 227 l 358 227 l 399 179 l 399 212 b 386 215 399 214 394 215 l 386 227 l 424 227 l 424 215 b 416 212 419 215 416 214 l 416 136 l 404 136 l 364 182 m 283 522 l 267 522 l 267 528 l 254 528 l 254 505 b 264 500 254 502 257 500 l 264 489 l 222 489 l 222 500 b 231 503 228 500 231 501 l 231 564 b 222 567 231 566 228 567 l 222 579 l 290 579 l 290 550 l 283 550 "},"℥":{"ha":1244,"x_min":0,"x_max":0,"o":"m 639 197 l 635 197 l 635 191 l 622 191 l 622 212 l 636 212 b 639 197 638 212 639 207 m 1004 555 l 999 555 l 999 550 l 986 550 l 986 571 l 1000 571 b 1004 555 1003 571 1004 566 m 749 860 b 736 868 744 860 740 863 b 729 893 732 873 730 882 b 736 918 729 904 731 912 b 747 925 739 923 743 925 b 758 918 751 925 755 923 b 765 893 762 911 764 903 b 758 867 765 882 763 873 b 749 860 755 862 752 860 m 987 631 b 978 637 984 631 981 633 b 971 664 973 644 971 653 b 977 689 971 674 973 682 b 987 696 979 694 983 696 b 999 689 992 696 996 694 b 1006 664 1003 682 1006 674 b 1000 637 1006 652 1004 643 b 987 631 997 633 993 631 m 256 378 b 244 386 251 378 247 380 b 237 411 240 392 237 400 b 243 436 237 423 239 432 b 256 443 246 441 250 443 b 267 436 260 443 264 441 b 273 411 271 431 273 422 b 268 385 273 400 271 391 b 256 378 265 380 261 378 m 511 155 b 498 149 507 151 503 149 b 488 155 494 149 490 151 b 482 182 484 161 482 170 b 488 207 482 193 484 201 b 500 214 491 211 495 214 b 513 207 505 214 509 211 b 518 182 516 201 518 193 b 511 155 518 171 516 162 m 272 550 l 267 550 l 267 543 l 254 543 l 254 564 l 268 564 b 272 550 271 564 272 559 m 650 197 l 657 197 l 657 227 l 589 227 l 589 215 b 597 212 595 215 597 214 l 597 150 b 589 147 597 148 595 147 l 589 136 l 632 136 l 632 147 b 622 153 625 147 622 149 l 622 176 l 635 176 l 635 170 l 650 170 m 878 214 l 868 196 l 860 214 l 865 214 l 865 227 l 827 227 l 827 214 b 835 210 830 214 833 212 l 854 175 l 854 150 b 846 147 854 148 852 147 l 846 136 l 886 136 l 886 147 b 878 150 880 147 878 148 l 878 175 l 897 210 b 905 214 898 212 901 214 l 905 227 l 872 227 l 872 214 m 393 926 l 385 907 l 374 926 l 379 926 l 379 939 l 343 939 l 343 926 b 349 922 346 926 348 925 l 370 886 l 370 861 b 359 859 370 859 366 859 l 359 847 l 403 847 l 403 859 b 395 861 397 859 395 859 l 395 886 l 411 922 b 419 926 413 925 415 926 l 419 939 l 389 939 l 389 926 m 268 811 l 258 791 l 249 811 l 254 811 l 254 823 l 216 823 l 216 811 b 225 807 220 811 223 810 l 243 772 l 243 747 b 235 745 243 746 240 745 l 235 732 l 277 732 l 277 745 b 268 747 271 745 268 746 l 268 772 l 288 807 b 294 811 288 810 291 811 l 294 823 l 262 823 l 262 811 m 1015 555 l 1022 555 l 1022 586 l 954 586 l 954 574 b 962 571 960 574 962 573 l 962 510 b 954 507 962 508 960 507 l 954 494 l 996 494 l 996 507 b 986 513 989 507 986 509 l 986 534 l 999 534 l 999 529 l 1015 529 m 1000 329 l 990 311 l 982 329 l 986 329 l 986 342 l 949 342 l 949 329 b 957 325 952 329 955 328 l 977 290 l 977 265 b 968 262 977 263 974 262 l 968 252 l 1008 252 l 1008 262 b 1000 265 1003 262 1000 263 l 1000 290 l 1019 325 b 1028 329 1020 328 1023 329 l 1028 342 l 994 342 l 994 329 m 237 895 l 279 847 l 292 847 l 292 924 b 298 926 292 925 294 926 l 298 939 l 261 939 l 261 926 b 272 924 268 926 272 925 l 272 892 l 232 939 l 212 939 l 212 926 b 220 918 217 926 220 924 l 220 863 b 212 860 220 861 217 860 l 212 847 l 250 847 l 250 860 b 237 863 242 860 237 861 m 472 939 l 447 939 l 447 926 b 453 918 451 926 453 924 l 453 863 b 447 860 453 861 451 860 l 447 847 l 478 847 l 478 860 b 472 863 474 860 472 861 l 472 884 l 490 847 l 507 847 l 521 882 l 521 861 b 517 860 521 860 519 860 l 517 847 l 553 847 l 553 860 b 546 863 548 860 546 861 l 546 918 b 553 926 546 924 548 926 l 553 939 l 525 939 l 501 880 m 791 893 b 781 925 791 906 788 917 b 747 939 773 934 762 939 b 714 925 732 939 721 934 b 703 893 706 917 703 906 b 714 860 703 880 706 869 b 749 846 721 850 733 846 b 781 860 763 846 773 850 b 791 893 788 869 791 880 m 848 895 l 888 847 l 903 847 l 903 924 b 908 926 903 925 904 926 l 908 939 l 871 939 l 871 926 b 882 924 878 926 882 925 l 882 892 l 843 939 l 822 939 l 822 926 b 828 918 826 926 828 924 l 828 863 b 822 860 828 861 826 860 l 822 847 l 861 847 l 861 860 b 848 863 853 860 848 861 m 1025 939 l 951 939 l 951 908 l 969 908 b 974 924 969 918 971 924 l 977 924 l 977 863 b 968 860 977 861 974 860 l 968 847 l 1008 847 l 1008 860 b 1000 863 1003 860 1000 861 l 1000 924 l 1003 924 b 1007 908 1006 924 1007 918 l 1025 908 m 622 888 l 635 888 l 635 882 l 650 882 l 650 907 l 635 907 l 635 901 l 622 901 l 622 924 l 636 924 b 639 908 638 924 639 918 l 657 908 l 657 939 l 589 939 l 589 926 b 597 924 595 926 597 925 l 597 863 b 589 860 597 861 595 860 l 589 847 l 632 847 l 632 860 b 622 865 625 860 622 862 m 971 182 l 1011 136 l 1025 136 l 1025 211 b 1032 214 1025 213 1027 214 l 1032 227 l 993 227 l 993 214 b 1004 211 1001 214 1004 213 l 1004 179 l 965 227 l 945 227 l 945 214 b 951 205 949 214 951 211 l 951 150 b 945 147 951 148 949 147 l 945 136 l 983 136 l 983 147 b 971 150 975 147 971 148 m 961 464 l 935 464 l 935 452 b 940 443 938 452 940 449 l 940 387 b 935 385 940 385 938 385 l 935 374 l 966 374 l 966 385 b 961 387 963 385 961 385 l 961 408 l 979 374 l 994 374 l 1011 406 l 1011 386 b 1004 385 1011 385 1009 385 l 1004 374 l 1042 374 l 1042 385 b 1036 387 1038 385 1036 385 l 1036 443 b 1042 452 1036 449 1038 452 l 1042 464 l 1014 464 l 989 406 m 1032 663 b 1022 696 1032 677 1029 688 b 986 710 1015 705 1003 710 b 954 696 972 710 961 705 b 945 663 948 688 945 677 b 956 629 945 649 948 638 b 987 616 962 621 972 616 b 1022 631 1003 616 1015 621 b 1032 663 1029 639 1032 649 m 971 785 l 1011 739 l 1025 739 l 1025 815 b 1032 818 1025 817 1027 818 l 1032 831 l 993 831 l 993 818 b 1004 815 1001 818 1004 817 l 1004 782 l 965 831 l 945 831 l 945 818 b 951 810 949 818 951 815 l 951 754 b 945 751 951 752 949 751 l 945 739 l 983 739 l 983 751 b 971 754 975 751 971 752 m 292 228 l 220 228 l 220 199 l 236 199 b 240 212 236 208 237 212 l 243 212 l 243 151 b 235 149 243 149 240 149 l 235 138 l 277 138 l 277 149 b 268 151 271 149 268 149 l 268 212 l 271 212 b 275 199 273 212 275 208 l 292 199 m 229 701 l 203 701 l 203 690 b 208 681 206 690 208 687 l 208 625 b 203 623 208 623 206 623 l 203 610 l 233 610 l 233 623 b 229 625 231 623 229 623 l 229 646 l 245 610 l 262 610 l 279 644 l 279 625 b 272 623 279 623 277 623 l 272 610 l 309 610 l 309 623 b 302 625 304 623 302 623 l 302 681 b 309 690 302 687 304 690 l 309 701 l 282 701 l 257 644 m 298 411 b 290 443 298 425 296 436 b 254 457 283 452 271 457 b 222 443 239 457 229 452 b 212 411 216 436 212 425 b 224 378 212 397 216 386 b 256 366 229 370 240 366 b 290 378 271 366 283 370 b 298 411 296 386 298 397 m 237 290 l 279 244 l 292 244 l 292 319 b 298 322 292 321 294 322 l 298 335 l 261 335 l 261 322 b 272 319 268 322 272 321 l 272 288 l 232 335 l 212 335 l 212 322 b 220 315 217 322 220 320 l 220 260 b 212 257 220 258 217 257 l 212 244 l 250 244 l 250 257 b 237 260 242 257 237 258 m 720 227 l 694 227 l 694 215 b 700 205 698 215 700 212 l 700 150 b 694 147 700 148 698 147 l 694 136 l 726 136 l 726 147 b 721 150 723 147 721 148 l 721 171 l 739 136 l 754 136 l 770 170 l 770 150 b 764 147 770 148 768 147 l 764 136 l 800 136 l 800 147 b 794 150 796 147 794 148 l 794 205 b 800 215 794 212 796 215 l 800 227 l 774 227 l 749 170 m 465 214 b 456 180 459 206 456 195 b 465 149 456 168 459 157 b 498 136 472 140 484 136 b 532 147 513 136 524 140 b 543 180 539 157 543 168 b 533 214 543 195 540 206 b 500 228 525 223 514 228 b 465 214 484 228 472 223 m 364 182 l 404 136 l 416 136 l 416 212 b 424 215 416 214 419 215 l 424 227 l 386 227 l 386 215 b 399 212 394 215 399 214 l 399 179 l 358 227 l 339 227 l 339 215 b 345 205 343 215 345 212 l 345 150 b 339 147 345 148 343 147 l 339 136 l 376 136 l 376 147 b 364 150 368 147 364 148 m 283 550 l 290 550 l 290 579 l 222 579 l 222 567 b 231 564 228 567 231 566 l 231 503 b 222 500 231 501 228 500 l 222 489 l 264 489 l 264 500 b 254 505 257 500 254 502 l 254 528 l 267 528 l 267 522 l 283 522 "},"∃":{"ha":1244,"x_min":0,"x_max":0,"o":"m 639 197 b 636 212 639 207 638 212 l 622 212 l 622 191 l 635 191 l 635 197 l 639 197 m 1004 555 b 1000 571 1004 566 1003 571 l 986 571 l 986 550 l 999 550 l 999 555 l 1004 555 m 749 860 b 758 867 752 860 755 862 b 765 893 763 873 765 882 b 758 918 764 903 762 911 b 747 925 755 923 751 925 b 736 918 743 925 739 923 b 729 893 731 912 729 904 b 736 868 730 882 732 873 b 749 860 740 863 744 860 m 987 631 b 1000 637 993 631 997 633 b 1006 664 1004 643 1006 652 b 999 689 1006 674 1003 682 b 987 696 996 694 992 696 b 977 689 983 696 979 694 b 971 664 973 682 971 674 b 978 637 971 653 973 644 b 987 631 981 633 984 631 m 256 378 b 268 385 261 378 265 380 b 273 411 271 391 273 400 b 267 436 273 422 271 431 b 256 443 264 441 260 443 b 243 436 250 443 246 441 b 237 411 239 432 237 423 b 244 386 237 400 240 392 b 256 378 247 380 251 378 m 511 155 b 518 182 516 162 518 171 b 513 207 518 193 516 201 b 500 214 509 211 505 214 b 488 207 495 214 491 211 b 482 182 484 201 482 193 b 488 155 482 170 484 161 b 498 149 490 151 494 149 b 511 155 503 149 507 151 m 272 550 b 268 564 272 559 271 564 l 254 564 l 254 543 l 267 543 l 267 550 l 272 550 m 650 170 l 635 170 l 635 176 l 622 176 l 622 153 b 632 147 622 149 625 147 l 632 136 l 589 136 l 589 147 b 597 150 595 147 597 148 l 597 212 b 589 215 597 214 595 215 l 589 227 l 657 227 l 657 197 l 650 197 m 872 214 l 872 227 l 905 227 l 905 214 b 897 210 901 214 898 212 l 878 175 l 878 150 b 886 147 878 148 880 147 l 886 136 l 846 136 l 846 147 b 854 150 852 147 854 148 l 854 175 l 835 210 b 827 214 833 212 830 214 l 827 227 l 865 227 l 865 214 l 860 214 l 868 196 l 878 214 m 389 926 l 389 939 l 419 939 l 419 926 b 411 922 415 926 413 925 l 395 886 l 395 861 b 403 859 395 859 397 859 l 403 847 l 359 847 l 359 859 b 370 861 366 859 370 859 l 370 886 l 349 922 b 343 926 348 925 346 926 l 343 939 l 379 939 l 379 926 l 374 926 l 385 907 l 393 926 m 262 811 l 262 823 l 294 823 l 294 811 b 288 807 291 811 288 810 l 268 772 l 268 747 b 277 745 268 746 271 745 l 277 732 l 235 732 l 235 745 b 243 747 240 745 243 746 l 243 772 l 225 807 b 216 811 223 810 220 811 l 216 823 l 254 823 l 254 811 l 249 811 l 258 791 l 268 811 m 1015 529 l 999 529 l 999 534 l 986 534 l 986 513 b 996 507 986 509 989 507 l 996 494 l 954 494 l 954 507 b 962 510 960 507 962 508 l 962 571 b 954 574 962 573 960 574 l 954 586 l 1022 586 l 1022 555 l 1015 555 m 994 329 l 994 342 l 1028 342 l 1028 329 b 1019 325 1023 329 1020 328 l 1000 290 l 1000 265 b 1008 262 1000 263 1003 262 l 1008 252 l 968 252 l 968 262 b 977 265 974 262 977 263 l 977 290 l 957 325 b 949 329 955 328 952 329 l 949 342 l 986 342 l 986 329 l 982 329 l 990 311 l 1000 329 m 237 863 b 250 860 237 861 242 860 l 250 847 l 212 847 l 212 860 b 220 863 217 860 220 861 l 220 918 b 212 926 220 924 217 926 l 212 939 l 232 939 l 272 892 l 272 924 b 261 926 272 925 268 926 l 261 939 l 298 939 l 298 926 b 292 924 294 926 292 925 l 292 847 l 279 847 l 237 895 m 501 880 l 525 939 l 553 939 l 553 926 b 546 918 548 926 546 924 l 546 863 b 553 860 546 861 548 860 l 553 847 l 517 847 l 517 860 b 521 861 519 860 521 860 l 521 882 l 507 847 l 490 847 l 472 884 l 472 863 b 478 860 472 861 474 860 l 478 847 l 447 847 l 447 860 b 453 863 451 860 453 861 l 453 918 b 447 926 453 924 451 926 l 447 939 l 472 939 m 791 893 b 781 860 791 880 788 869 b 749 846 773 850 763 846 b 714 860 733 846 721 850 b 703 893 706 869 703 880 b 714 925 703 906 706 917 b 747 939 721 934 732 939 b 781 925 762 939 773 934 b 791 893 788 917 791 906 m 848 863 b 861 860 848 861 853 860 l 861 847 l 822 847 l 822 860 b 828 863 826 860 828 861 l 828 918 b 822 926 828 924 826 926 l 822 939 l 843 939 l 882 892 l 882 924 b 871 926 882 925 878 926 l 871 939 l 908 939 l 908 926 b 903 924 904 926 903 925 l 903 847 l 888 847 l 848 895 m 1025 908 l 1007 908 b 1003 924 1007 918 1006 924 l 1000 924 l 1000 863 b 1008 860 1000 861 1003 860 l 1008 847 l 968 847 l 968 860 b 977 863 974 860 977 861 l 977 924 l 974 924 b 969 908 971 924 969 918 l 951 908 l 951 939 l 1025 939 m 622 865 b 632 860 622 862 625 860 l 632 847 l 589 847 l 589 860 b 597 863 595 860 597 861 l 597 924 b 589 926 597 925 595 926 l 589 939 l 657 939 l 657 908 l 639 908 b 636 924 639 918 638 924 l 622 924 l 622 901 l 635 901 l 635 907 l 650 907 l 650 882 l 635 882 l 635 888 l 622 888 m 971 150 b 983 147 971 148 975 147 l 983 136 l 945 136 l 945 147 b 951 150 949 147 951 148 l 951 205 b 945 214 951 211 949 214 l 945 227 l 965 227 l 1004 179 l 1004 211 b 993 214 1004 213 1001 214 l 993 227 l 1032 227 l 1032 214 b 1025 211 1027 214 1025 213 l 1025 136 l 1011 136 l 971 182 m 989 406 l 1014 464 l 1042 464 l 1042 452 b 1036 443 1038 452 1036 449 l 1036 387 b 1042 385 1036 385 1038 385 l 1042 374 l 1004 374 l 1004 385 b 1011 386 1009 385 1011 385 l 1011 406 l 994 374 l 979 374 l 961 408 l 961 387 b 966 385 961 385 963 385 l 966 374 l 935 374 l 935 385 b 940 387 938 385 940 385 l 940 443 b 935 452 940 449 938 452 l 935 464 l 961 464 m 1032 663 b 1022 631 1032 649 1029 639 b 987 616 1015 621 1003 616 b 956 629 972 616 962 621 b 945 663 948 638 945 649 b 954 696 945 677 948 688 b 986 710 961 705 972 710 b 1022 696 1003 710 1015 705 b 1032 663 1029 688 1032 677 m 971 754 b 983 751 971 752 975 751 l 983 739 l 945 739 l 945 751 b 951 754 949 751 951 752 l 951 810 b 945 818 951 815 949 818 l 945 831 l 965 831 l 1004 782 l 1004 815 b 993 818 1004 817 1001 818 l 993 831 l 1032 831 l 1032 818 b 1025 815 1027 818 1025 817 l 1025 739 l 1011 739 l 971 785 m 292 199 l 275 199 b 271 212 275 208 273 212 l 268 212 l 268 151 b 277 149 268 149 271 149 l 277 138 l 235 138 l 235 149 b 243 151 240 149 243 149 l 243 212 l 240 212 b 236 199 237 212 236 208 l 220 199 l 220 228 l 292 228 m 257 644 l 282 701 l 309 701 l 309 690 b 302 681 304 690 302 687 l 302 625 b 309 623 302 623 304 623 l 309 610 l 272 610 l 272 623 b 279 625 277 623 279 623 l 279 644 l 262 610 l 245 610 l 229 646 l 229 625 b 233 623 229 623 231 623 l 233 610 l 203 610 l 203 623 b 208 625 206 623 208 623 l 208 681 b 203 690 208 687 206 690 l 203 701 l 229 701 m 298 411 b 290 378 298 397 296 386 b 256 366 283 370 271 366 b 224 378 240 366 229 370 b 212 411 216 386 212 397 b 222 443 212 425 216 436 b 254 457 229 452 239 457 b 290 443 271 457 283 452 b 298 411 296 436 298 425 m 237 260 b 250 257 237 258 242 257 l 250 244 l 212 244 l 212 257 b 220 260 217 257 220 258 l 220 315 b 212 322 220 320 217 322 l 212 335 l 232 335 l 272 288 l 272 319 b 261 322 272 321 268 322 l 261 335 l 298 335 l 298 322 b 292 319 294 322 292 321 l 292 244 l 279 244 l 237 290 m 749 170 l 774 227 l 800 227 l 800 215 b 794 205 796 215 794 212 l 794 150 b 800 147 794 148 796 147 l 800 136 l 764 136 l 764 147 b 770 150 768 147 770 148 l 770 170 l 754 136 l 739 136 l 721 171 l 721 150 b 726 147 721 148 723 147 l 726 136 l 694 136 l 694 147 b 700 150 698 147 700 148 l 700 205 b 694 215 700 212 698 215 l 694 227 l 720 227 m 465 214 b 500 228 472 223 484 228 b 533 214 514 228 525 223 b 543 180 540 206 543 195 b 532 147 543 168 539 157 b 498 136 524 140 513 136 b 465 149 484 136 472 140 b 456 180 459 157 456 168 b 465 214 456 195 459 206 m 364 150 b 376 147 364 148 368 147 l 376 136 l 339 136 l 339 147 b 345 150 343 147 345 148 l 345 205 b 339 215 345 212 343 215 l 339 227 l 358 227 l 399 179 l 399 212 b 386 215 399 214 394 215 l 386 227 l 424 227 l 424 215 b 416 212 419 215 416 214 l 416 136 l 404 136 l 364 182 m 283 522 l 267 522 l 267 528 l 254 528 l 254 505 b 264 500 254 502 257 500 l 264 489 l 222 489 l 222 500 b 231 503 228 500 231 501 l 231 564 b 222 567 231 566 228 567 l 222 579 l 290 579 l 290 550 l 283 550 "},"∄":{"ha":1244,"x_min":0,"x_max":0,"o":"m 639 197 l 635 197 l 635 191 l 622 191 l 622 212 l 636 212 b 639 197 638 212 639 207 m 1004 555 l 999 555 l 999 550 l 986 550 l 986 571 l 1000 571 b 1004 555 1003 571 1004 566 m 749 860 b 736 868 744 860 740 863 b 729 893 732 873 730 882 b 736 918 729 904 731 912 b 747 925 739 923 743 925 b 758 918 751 925 755 923 b 765 893 762 911 764 903 b 758 867 765 882 763 873 b 749 860 755 862 752 860 m 987 631 b 978 637 984 631 981 633 b 971 664 973 644 971 653 b 977 689 971 674 973 682 b 987 696 979 694 983 696 b 999 689 992 696 996 694 b 1006 664 1003 682 1006 674 b 1000 637 1006 652 1004 643 b 987 631 997 633 993 631 m 256 378 b 244 386 251 378 247 380 b 237 411 240 392 237 400 b 243 436 237 423 239 432 b 256 443 246 441 250 443 b 267 436 260 443 264 441 b 273 411 271 431 273 422 b 268 385 273 400 271 391 b 256 378 265 380 261 378 m 511 155 b 498 149 507 151 503 149 b 488 155 494 149 490 151 b 482 182 484 161 482 170 b 488 207 482 193 484 201 b 500 214 491 211 495 214 b 513 207 505 214 509 211 b 518 182 516 201 518 193 b 511 155 518 171 516 162 m 272 550 l 267 550 l 267 543 l 254 543 l 254 564 l 268 564 b 272 550 271 564 272 559 m 650 197 l 657 197 l 657 227 l 589 227 l 589 215 b 597 212 595 215 597 214 l 597 150 b 589 147 597 148 595 147 l 589 136 l 632 136 l 632 147 b 622 153 625 147 622 149 l 622 176 l 635 176 l 635 170 l 650 170 m 878 214 l 868 196 l 860 214 l 865 214 l 865 227 l 827 227 l 827 214 b 835 210 830 214 833 212 l 854 175 l 854 150 b 846 147 854 148 852 147 l 846 136 l 886 136 l 886 147 b 878 150 880 147 878 148 l 878 175 l 897 210 b 905 214 898 212 901 214 l 905 227 l 872 227 l 872 214 m 393 926 l 385 907 l 374 926 l 379 926 l 379 939 l 343 939 l 343 926 b 349 922 346 926 348 925 l 370 886 l 370 861 b 359 859 370 859 366 859 l 359 847 l 403 847 l 403 859 b 395 861 397 859 395 859 l 395 886 l 411 922 b 419 926 413 925 415 926 l 419 939 l 389 939 l 389 926 m 268 811 l 258 791 l 249 811 l 254 811 l 254 823 l 216 823 l 216 811 b 225 807 220 811 223 810 l 243 772 l 243 747 b 235 745 243 746 240 745 l 235 732 l 277 732 l 277 745 b 268 747 271 745 268 746 l 268 772 l 288 807 b 294 811 288 810 291 811 l 294 823 l 262 823 l 262 811 m 1015 555 l 1022 555 l 1022 586 l 954 586 l 954 574 b 962 571 960 574 962 573 l 962 510 b 954 507 962 508 960 507 l 954 494 l 996 494 l 996 507 b 986 513 989 507 986 509 l 986 534 l 999 534 l 999 529 l 1015 529 m 1000 329 l 990 311 l 982 329 l 986 329 l 986 342 l 949 342 l 949 329 b 957 325 952 329 955 328 l 977 290 l 977 265 b 968 262 977 263 974 262 l 968 252 l 1008 252 l 1008 262 b 1000 265 1003 262 1000 263 l 1000 290 l 1019 325 b 1028 329 1020 328 1023 329 l 1028 342 l 994 342 l 994 329 m 237 895 l 279 847 l 292 847 l 292 924 b 298 926 292 925 294 926 l 298 939 l 261 939 l 261 926 b 272 924 268 926 272 925 l 272 892 l 232 939 l 212 939 l 212 926 b 220 918 217 926 220 924 l 220 863 b 212 860 220 861 217 860 l 212 847 l 250 847 l 250 860 b 237 863 242 860 237 861 m 472 939 l 447 939 l 447 926 b 453 918 451 926 453 924 l 453 863 b 447 860 453 861 451 860 l 447 847 l 478 847 l 478 860 b 472 863 474 860 472 861 l 472 884 l 490 847 l 507 847 l 521 882 l 521 861 b 517 860 521 860 519 860 l 517 847 l 553 847 l 553 860 b 546 863 548 860 546 861 l 546 918 b 553 926 546 924 548 926 l 553 939 l 525 939 l 501 880 m 791 893 b 781 925 791 906 788 917 b 747 939 773 934 762 939 b 714 925 732 939 721 934 b 703 893 706 917 703 906 b 714 860 703 880 706 869 b 749 846 721 850 733 846 b 781 860 763 846 773 850 b 791 893 788 869 791 880 m 848 895 l 888 847 l 903 847 l 903 924 b 908 926 903 925 904 926 l 908 939 l 871 939 l 871 926 b 882 924 878 926 882 925 l 882 892 l 843 939 l 822 939 l 822 926 b 828 918 826 926 828 924 l 828 863 b 822 860 828 861 826 860 l 822 847 l 861 847 l 861 860 b 848 863 853 860 848 861 m 1025 939 l 951 939 l 951 908 l 969 908 b 974 924 969 918 971 924 l 977 924 l 977 863 b 968 860 977 861 974 860 l 968 847 l 1008 847 l 1008 860 b 1000 863 1003 860 1000 861 l 1000 924 l 1003 924 b 1007 908 1006 924 1007 918 l 1025 908 m 622 888 l 635 888 l 635 882 l 650 882 l 650 907 l 635 907 l 635 901 l 622 901 l 622 924 l 636 924 b 639 908 638 924 639 918 l 657 908 l 657 939 l 589 939 l 589 926 b 597 924 595 926 597 925 l 597 863 b 589 860 597 861 595 860 l 589 847 l 632 847 l 632 860 b 622 865 625 860 622 862 m 971 182 l 1011 136 l 1025 136 l 1025 211 b 1032 214 1025 213 1027 214 l 1032 227 l 993 227 l 993 214 b 1004 211 1001 214 1004 213 l 1004 179 l 965 227 l 945 227 l 945 214 b 951 205 949 214 951 211 l 951 150 b 945 147 951 148 949 147 l 945 136 l 983 136 l 983 147 b 971 150 975 147 971 148 m 961 464 l 935 464 l 935 452 b 940 443 938 452 940 449 l 940 387 b 935 385 940 385 938 385 l 935 374 l 966 374 l 966 385 b 961 387 963 385 961 385 l 961 408 l 979 374 l 994 374 l 1011 406 l 1011 386 b 1004 385 1011 385 1009 385 l 1004 374 l 1042 374 l 1042 385 b 1036 387 1038 385 1036 385 l 1036 443 b 1042 452 1036 449 1038 452 l 1042 464 l 1014 464 l 989 406 m 1032 663 b 1022 696 1032 677 1029 688 b 986 710 1015 705 1003 710 b 954 696 972 710 961 705 b 945 663 948 688 945 677 b 956 629 945 649 948 638 b 987 616 962 621 972 616 b 1022 631 1003 616 1015 621 b 1032 663 1029 639 1032 649 m 971 785 l 1011 739 l 1025 739 l 1025 815 b 1032 818 1025 817 1027 818 l 1032 831 l 993 831 l 993 818 b 1004 815 1001 818 1004 817 l 1004 782 l 965 831 l 945 831 l 945 818 b 951 810 949 818 951 815 l 951 754 b 945 751 951 752 949 751 l 945 739 l 983 739 l 983 751 b 971 754 975 751 971 752 m 292 228 l 220 228 l 220 199 l 236 199 b 240 212 236 208 237 212 l 243 212 l 243 151 b 235 149 243 149 240 149 l 235 138 l 277 138 l 277 149 b 268 151 271 149 268 149 l 268 212 l 271 212 b 275 199 273 212 275 208 l 292 199 m 229 701 l 203 701 l 203 690 b 208 681 206 690 208 687 l 208 625 b 203 623 208 623 206 623 l 203 610 l 233 610 l 233 623 b 229 625 231 623 229 623 l 229 646 l 245 610 l 262 610 l 279 644 l 279 625 b 272 623 279 623 277 623 l 272 610 l 309 610 l 309 623 b 302 625 304 623 302 623 l 302 681 b 309 690 302 687 304 690 l 309 701 l 282 701 l 257 644 m 298 411 b 290 443 298 425 296 436 b 254 457 283 452 271 457 b 222 443 239 457 229 452 b 212 411 216 436 212 425 b 224 378 212 397 216 386 b 256 366 229 370 240 366 b 290 378 271 366 283 370 b 298 411 296 386 298 397 m 237 290 l 279 244 l 292 244 l 292 319 b 298 322 292 321 294 322 l 298 335 l 261 335 l 261 322 b 272 319 268 322 272 321 l 272 288 l 232 335 l 212 335 l 212 322 b 220 315 217 322 220 320 l 220 260 b 212 257 220 258 217 257 l 212 244 l 250 244 l 250 257 b 237 260 242 257 237 258 m 720 227 l 694 227 l 694 215 b 700 205 698 215 700 212 l 700 150 b 694 147 700 148 698 147 l 694 136 l 726 136 l 726 147 b 721 150 723 147 721 148 l 721 171 l 739 136 l 754 136 l 770 170 l 770 150 b 764 147 770 148 768 147 l 764 136 l 800 136 l 800 147 b 794 150 796 147 794 148 l 794 205 b 800 215 794 212 796 215 l 800 227 l 774 227 l 749 170 m 465 214 b 456 180 459 206 456 195 b 465 149 456 168 459 157 b 498 136 472 140 484 136 b 532 147 513 136 524 140 b 543 180 539 157 543 168 b 533 214 543 195 540 206 b 500 228 525 223 514 228 b 465 214 484 228 472 223 m 364 182 l 404 136 l 416 136 l 416 212 b 424 215 416 214 419 215 l 424 227 l 386 227 l 386 215 b 399 212 394 215 399 214 l 399 179 l 358 227 l 339 227 l 339 215 b 345 205 343 215 345 212 l 345 150 b 339 147 345 148 343 147 l 339 136 l 376 136 l 376 147 b 364 150 368 147 364 148 m 283 550 l 290 550 l 290 579 l 222 579 l 222 567 b 231 564 228 567 231 566 l 231 503 b 222 500 231 501 228 500 l 222 489 l 264 489 l 264 500 b 254 505 257 500 254 502 l 254 528 l 267 528 l 267 522 l 283 522 "},"∅":{"ha":1244,"x_min":0,"x_max":0,"o":"m 639 197 b 636 212 639 207 638 212 l 622 212 l 622 191 l 635 191 l 635 197 l 639 197 m 1004 555 b 1000 571 1004 566 1003 571 l 986 571 l 986 550 l 999 550 l 999 555 l 1004 555 m 749 860 b 758 867 752 860 755 862 b 765 893 763 873 765 882 b 758 918 764 903 762 911 b 747 925 755 923 751 925 b 736 918 743 925 739 923 b 729 893 731 912 729 904 b 736 868 730 882 732 873 b 749 860 740 863 744 860 m 987 631 b 1000 637 993 631 997 633 b 1006 664 1004 643 1006 652 b 999 689 1006 674 1003 682 b 987 696 996 694 992 696 b 977 689 983 696 979 694 b 971 664 973 682 971 674 b 978 637 971 653 973 644 b 987 631 981 633 984 631 m 256 378 b 268 385 261 378 265 380 b 273 411 271 391 273 400 b 267 436 273 422 271 431 b 256 443 264 441 260 443 b 243 436 250 443 246 441 b 237 411 239 432 237 423 b 244 386 237 400 240 392 b 256 378 247 380 251 378 m 511 155 b 518 182 516 162 518 171 b 513 207 518 193 516 201 b 500 214 509 211 505 214 b 488 207 495 214 491 211 b 482 182 484 201 482 193 b 488 155 482 170 484 161 b 498 149 490 151 494 149 b 511 155 503 149 507 151 m 272 550 b 268 564 272 559 271 564 l 254 564 l 254 543 l 267 543 l 267 550 l 272 550 m 650 170 l 635 170 l 635 176 l 622 176 l 622 153 b 632 147 622 149 625 147 l 632 136 l 589 136 l 589 147 b 597 150 595 147 597 148 l 597 212 b 589 215 597 214 595 215 l 589 227 l 657 227 l 657 197 l 650 197 m 872 214 l 872 227 l 905 227 l 905 214 b 897 210 901 214 898 212 l 878 175 l 878 150 b 886 147 878 148 880 147 l 886 136 l 846 136 l 846 147 b 854 150 852 147 854 148 l 854 175 l 835 210 b 827 214 833 212 830 214 l 827 227 l 865 227 l 865 214 l 860 214 l 868 196 l 878 214 m 389 926 l 389 939 l 419 939 l 419 926 b 411 922 415 926 413 925 l 395 886 l 395 861 b 403 859 395 859 397 859 l 403 847 l 359 847 l 359 859 b 370 861 366 859 370 859 l 370 886 l 349 922 b 343 926 348 925 346 926 l 343 939 l 379 939 l 379 926 l 374 926 l 385 907 l 393 926 m 262 811 l 262 823 l 294 823 l 294 811 b 288 807 291 811 288 810 l 268 772 l 268 747 b 277 745 268 746 271 745 l 277 732 l 235 732 l 235 745 b 243 747 240 745 243 746 l 243 772 l 225 807 b 216 811 223 810 220 811 l 216 823 l 254 823 l 254 811 l 249 811 l 258 791 l 268 811 m 1015 529 l 999 529 l 999 534 l 986 534 l 986 513 b 996 507 986 509 989 507 l 996 494 l 954 494 l 954 507 b 962 510 960 507 962 508 l 962 571 b 954 574 962 573 960 574 l 954 586 l 1022 586 l 1022 555 l 1015 555 m 994 329 l 994 342 l 1028 342 l 1028 329 b 1019 325 1023 329 1020 328 l 1000 290 l 1000 265 b 1008 262 1000 263 1003 262 l 1008 252 l 968 252 l 968 262 b 977 265 974 262 977 263 l 977 290 l 957 325 b 949 329 955 328 952 329 l 949 342 l 986 342 l 986 329 l 982 329 l 990 311 l 1000 329 m 237 863 b 250 860 237 861 242 860 l 250 847 l 212 847 l 212 860 b 220 863 217 860 220 861 l 220 918 b 212 926 220 924 217 926 l 212 939 l 232 939 l 272 892 l 272 924 b 261 926 272 925 268 926 l 261 939 l 298 939 l 298 926 b 292 924 294 926 292 925 l 292 847 l 279 847 l 237 895 m 501 880 l 525 939 l 553 939 l 553 926 b 546 918 548 926 546 924 l 546 863 b 553 860 546 861 548 860 l 553 847 l 517 847 l 517 860 b 521 861 519 860 521 860 l 521 882 l 507 847 l 490 847 l 472 884 l 472 863 b 478 860 472 861 474 860 l 478 847 l 447 847 l 447 860 b 453 863 451 860 453 861 l 453 918 b 447 926 453 924 451 926 l 447 939 l 472 939 m 791 893 b 781 860 791 880 788 869 b 749 846 773 850 763 846 b 714 860 733 846 721 850 b 703 893 706 869 703 880 b 714 925 703 906 706 917 b 747 939 721 934 732 939 b 781 925 762 939 773 934 b 791 893 788 917 791 906 m 848 863 b 861 860 848 861 853 860 l 861 847 l 822 847 l 822 860 b 828 863 826 860 828 861 l 828 918 b 822 926 828 924 826 926 l 822 939 l 843 939 l 882 892 l 882 924 b 871 926 882 925 878 926 l 871 939 l 908 939 l 908 926 b 903 924 904 926 903 925 l 903 847 l 888 847 l 848 895 m 1025 908 l 1007 908 b 1003 924 1007 918 1006 924 l 1000 924 l 1000 863 b 1008 860 1000 861 1003 860 l 1008 847 l 968 847 l 968 860 b 977 863 974 860 977 861 l 977 924 l 974 924 b 969 908 971 924 969 918 l 951 908 l 951 939 l 1025 939 m 622 865 b 632 860 622 862 625 860 l 632 847 l 589 847 l 589 860 b 597 863 595 860 597 861 l 597 924 b 589 926 597 925 595 926 l 589 939 l 657 939 l 657 908 l 639 908 b 636 924 639 918 638 924 l 622 924 l 622 901 l 635 901 l 635 907 l 650 907 l 650 882 l 635 882 l 635 888 l 622 888 m 971 150 b 983 147 971 148 975 147 l 983 136 l 945 136 l 945 147 b 951 150 949 147 951 148 l 951 205 b 945 214 951 211 949 214 l 945 227 l 965 227 l 1004 179 l 1004 211 b 993 214 1004 213 1001 214 l 993 227 l 1032 227 l 1032 214 b 1025 211 1027 214 1025 213 l 1025 136 l 1011 136 l 971 182 m 989 406 l 1014 464 l 1042 464 l 1042 452 b 1036 443 1038 452 1036 449 l 1036 387 b 1042 385 1036 385 1038 385 l 1042 374 l 1004 374 l 1004 385 b 1011 386 1009 385 1011 385 l 1011 406 l 994 374 l 979 374 l 961 408 l 961 387 b 966 385 961 385 963 385 l 966 374 l 935 374 l 935 385 b 940 387 938 385 940 385 l 940 443 b 935 452 940 449 938 452 l 935 464 l 961 464 m 1032 663 b 1022 631 1032 649 1029 639 b 987 616 1015 621 1003 616 b 956 629 972 616 962 621 b 945 663 948 638 945 649 b 954 696 945 677 948 688 b 986 710 961 705 972 710 b 1022 696 1003 710 1015 705 b 1032 663 1029 688 1032 677 m 971 754 b 983 751 971 752 975 751 l 983 739 l 945 739 l 945 751 b 951 754 949 751 951 752 l 951 810 b 945 818 951 815 949 818 l 945 831 l 965 831 l 1004 782 l 1004 815 b 993 818 1004 817 1001 818 l 993 831 l 1032 831 l 1032 818 b 1025 815 1027 818 1025 817 l 1025 739 l 1011 739 l 971 785 m 292 199 l 275 199 b 271 212 275 208 273 212 l 268 212 l 268 151 b 277 149 268 149 271 149 l 277 138 l 235 138 l 235 149 b 243 151 240 149 243 149 l 243 212 l 240 212 b 236 199 237 212 236 208 l 220 199 l 220 228 l 292 228 m 257 644 l 282 701 l 309 701 l 309 690 b 302 681 304 690 302 687 l 302 625 b 309 623 302 623 304 623 l 309 610 l 272 610 l 272 623 b 279 625 277 623 279 623 l 279 644 l 262 610 l 245 610 l 229 646 l 229 625 b 233 623 229 623 231 623 l 233 610 l 203 610 l 203 623 b 208 625 206 623 208 623 l 208 681 b 203 690 208 687 206 690 l 203 701 l 229 701 m 298 411 b 290 378 298 397 296 386 b 256 366 283 370 271 366 b 224 378 240 366 229 370 b 212 411 216 386 212 397 b 222 443 212 425 216 436 b 254 457 229 452 239 457 b 290 443 271 457 283 452 b 298 411 296 436 298 425 m 237 260 b 250 257 237 258 242 257 l 250 244 l 212 244 l 212 257 b 220 260 217 257 220 258 l 220 315 b 212 322 220 320 217 322 l 212 335 l 232 335 l 272 288 l 272 319 b 261 322 272 321 268 322 l 261 335 l 298 335 l 298 322 b 292 319 294 322 292 321 l 292 244 l 279 244 l 237 290 m 749 170 l 774 227 l 800 227 l 800 215 b 794 205 796 215 794 212 l 794 150 b 800 147 794 148 796 147 l 800 136 l 764 136 l 764 147 b 770 150 768 147 770 148 l 770 170 l 754 136 l 739 136 l 721 171 l 721 150 b 726 147 721 148 723 147 l 726 136 l 694 136 l 694 147 b 700 150 698 147 700 148 l 700 205 b 694 215 700 212 698 215 l 694 227 l 720 227 m 465 214 b 500 228 472 223 484 228 b 533 214 514 228 525 223 b 543 180 540 206 543 195 b 532 147 543 168 539 157 b 498 136 524 140 513 136 b 465 149 484 136 472 140 b 456 180 459 157 456 168 b 465 214 456 195 459 206 m 364 150 b 376 147 364 148 368 147 l 376 136 l 339 136 l 339 147 b 345 150 343 147 345 148 l 345 205 b 339 215 345 212 343 215 l 339 227 l 358 227 l 399 179 l 399 212 b 386 215 399 214 394 215 l 386 227 l 424 227 l 424 215 b 416 212 419 215 416 214 l 416 136 l 404 136 l 364 182 m 283 522 l 267 522 l 267 528 l 254 528 l 254 505 b 264 500 254 502 257 500 l 264 489 l 222 489 l 222 500 b 231 503 228 500 231 501 l 231 564 b 222 567 231 566 228 567 l 222 579 l 290 579 l 290 550 l 283 550 "},"∐":{"ha":1244,"x_min":0,"x_max":0,"o":"m 639 197 l 635 197 l 635 191 l 622 191 l 622 212 l 636 212 b 639 197 638 212 639 207 m 1004 555 l 999 555 l 999 550 l 986 550 l 986 571 l 1000 571 b 1004 555 1003 571 1004 566 m 749 860 b 736 868 744 860 740 863 b 729 893 732 873 730 882 b 736 918 729 904 731 912 b 747 925 739 923 743 925 b 758 918 751 925 755 923 b 765 893 762 911 764 903 b 758 867 765 882 763 873 b 749 860 755 862 752 860 m 987 631 b 978 637 984 631 981 633 b 971 664 973 644 971 653 b 977 689 971 674 973 682 b 987 696 979 694 983 696 b 999 689 992 696 996 694 b 1006 664 1003 682 1006 674 b 1000 637 1006 652 1004 643 b 987 631 997 633 993 631 m 256 378 b 244 386 251 378 247 380 b 237 411 240 392 237 400 b 243 436 237 423 239 432 b 256 443 246 441 250 443 b 267 436 260 443 264 441 b 273 411 271 431 273 422 b 268 385 273 400 271 391 b 256 378 265 380 261 378 m 511 155 b 498 149 507 151 503 149 b 488 155 494 149 490 151 b 482 182 484 161 482 170 b 488 207 482 193 484 201 b 500 214 491 211 495 214 b 513 207 505 214 509 211 b 518 182 516 201 518 193 b 511 155 518 171 516 162 m 272 550 l 267 550 l 267 543 l 254 543 l 254 564 l 268 564 b 272 550 271 564 272 559 m 650 197 l 657 197 l 657 227 l 589 227 l 589 215 b 597 212 595 215 597 214 l 597 150 b 589 147 597 148 595 147 l 589 136 l 632 136 l 632 147 b 622 153 625 147 622 149 l 622 176 l 635 176 l 635 170 l 650 170 m 878 214 l 868 196 l 860 214 l 865 214 l 865 227 l 827 227 l 827 214 b 835 210 830 214 833 212 l 854 175 l 854 150 b 846 147 854 148 852 147 l 846 136 l 886 136 l 886 147 b 878 150 880 147 878 148 l 878 175 l 897 210 b 905 214 898 212 901 214 l 905 227 l 872 227 l 872 214 m 393 926 l 385 907 l 374 926 l 379 926 l 379 939 l 343 939 l 343 926 b 349 922 346 926 348 925 l 370 886 l 370 861 b 359 859 370 859 366 859 l 359 847 l 403 847 l 403 859 b 395 861 397 859 395 859 l 395 886 l 411 922 b 419 926 413 925 415 926 l 419 939 l 389 939 l 389 926 m 268 811 l 258 791 l 249 811 l 254 811 l 254 823 l 216 823 l 216 811 b 225 807 220 811 223 810 l 243 772 l 243 747 b 235 745 243 746 240 745 l 235 732 l 277 732 l 277 745 b 268 747 271 745 268 746 l 268 772 l 288 807 b 294 811 288 810 291 811 l 294 823 l 262 823 l 262 811 m 1015 555 l 1022 555 l 1022 586 l 954 586 l 954 574 b 962 571 960 574 962 573 l 962 510 b 954 507 962 508 960 507 l 954 494 l 996 494 l 996 507 b 986 513 989 507 986 509 l 986 534 l 999 534 l 999 529 l 1015 529 m 1000 329 l 990 311 l 982 329 l 986 329 l 986 342 l 949 342 l 949 329 b 957 325 952 329 955 328 l 977 290 l 977 265 b 968 262 977 263 974 262 l 968 252 l 1008 252 l 1008 262 b 1000 265 1003 262 1000 263 l 1000 290 l 1019 325 b 1028 329 1020 328 1023 329 l 1028 342 l 994 342 l 994 329 m 237 895 l 279 847 l 292 847 l 292 924 b 298 926 292 925 294 926 l 298 939 l 261 939 l 261 926 b 272 924 268 926 272 925 l 272 892 l 232 939 l 212 939 l 212 926 b 220 918 217 926 220 924 l 220 863 b 212 860 220 861 217 860 l 212 847 l 250 847 l 250 860 b 237 863 242 860 237 861 m 472 939 l 447 939 l 447 926 b 453 918 451 926 453 924 l 453 863 b 447 860 453 861 451 860 l 447 847 l 478 847 l 478 860 b 472 863 474 860 472 861 l 472 884 l 490 847 l 507 847 l 521 882 l 521 861 b 517 860 521 860 519 860 l 517 847 l 553 847 l 553 860 b 546 863 548 860 546 861 l 546 918 b 553 926 546 924 548 926 l 553 939 l 525 939 l 501 880 m 791 893 b 781 925 791 906 788 917 b 747 939 773 934 762 939 b 714 925 732 939 721 934 b 703 893 706 917 703 906 b 714 860 703 880 706 869 b 749 846 721 850 733 846 b 781 860 763 846 773 850 b 791 893 788 869 791 880 m 848 895 l 888 847 l 903 847 l 903 924 b 908 926 903 925 904 926 l 908 939 l 871 939 l 871 926 b 882 924 878 926 882 925 l 882 892 l 843 939 l 822 939 l 822 926 b 828 918 826 926 828 924 l 828 863 b 822 860 828 861 826 860 l 822 847 l 861 847 l 861 860 b 848 863 853 860 848 861 m 1025 939 l 951 939 l 951 908 l 969 908 b 974 924 969 918 971 924 l 977 924 l 977 863 b 968 860 977 861 974 860 l 968 847 l 1008 847 l 1008 860 b 1000 863 1003 860 1000 861 l 1000 924 l 1003 924 b 1007 908 1006 924 1007 918 l 1025 908 m 622 888 l 635 888 l 635 882 l 650 882 l 650 907 l 635 907 l 635 901 l 622 901 l 622 924 l 636 924 b 639 908 638 924 639 918 l 657 908 l 657 939 l 589 939 l 589 926 b 597 924 595 926 597 925 l 597 863 b 589 860 597 861 595 860 l 589 847 l 632 847 l 632 860 b 622 865 625 860 622 862 m 971 182 l 1011 136 l 1025 136 l 1025 211 b 1032 214 1025 213 1027 214 l 1032 227 l 993 227 l 993 214 b 1004 211 1001 214 1004 213 l 1004 179 l 965 227 l 945 227 l 945 214 b 951 205 949 214 951 211 l 951 150 b 945 147 951 148 949 147 l 945 136 l 983 136 l 983 147 b 971 150 975 147 971 148 m 961 464 l 935 464 l 935 452 b 940 443 938 452 940 449 l 940 387 b 935 385 940 385 938 385 l 935 374 l 966 374 l 966 385 b 961 387 963 385 961 385 l 961 408 l 979 374 l 994 374 l 1011 406 l 1011 386 b 1004 385 1011 385 1009 385 l 1004 374 l 1042 374 l 1042 385 b 1036 387 1038 385 1036 385 l 1036 443 b 1042 452 1036 449 1038 452 l 1042 464 l 1014 464 l 989 406 m 1032 663 b 1022 696 1032 677 1029 688 b 986 710 1015 705 1003 710 b 954 696 972 710 961 705 b 945 663 948 688 945 677 b 956 629 945 649 948 638 b 987 616 962 621 972 616 b 1022 631 1003 616 1015 621 b 1032 663 1029 639 1032 649 m 971 785 l 1011 739 l 1025 739 l 1025 815 b 1032 818 1025 817 1027 818 l 1032 831 l 993 831 l 993 818 b 1004 815 1001 818 1004 817 l 1004 782 l 965 831 l 945 831 l 945 818 b 951 810 949 818 951 815 l 951 754 b 945 751 951 752 949 751 l 945 739 l 983 739 l 983 751 b 971 754 975 751 971 752 m 292 228 l 220 228 l 220 199 l 236 199 b 240 212 236 208 237 212 l 243 212 l 243 151 b 235 149 243 149 240 149 l 235 138 l 277 138 l 277 149 b 268 151 271 149 268 149 l 268 212 l 271 212 b 275 199 273 212 275 208 l 292 199 m 229 701 l 203 701 l 203 690 b 208 681 206 690 208 687 l 208 625 b 203 623 208 623 206 623 l 203 610 l 233 610 l 233 623 b 229 625 231 623 229 623 l 229 646 l 245 610 l 262 610 l 279 644 l 279 625 b 272 623 279 623 277 623 l 272 610 l 309 610 l 309 623 b 302 625 304 623 302 623 l 302 681 b 309 690 302 687 304 690 l 309 701 l 282 701 l 257 644 m 298 411 b 290 443 298 425 296 436 b 254 457 283 452 271 457 b 222 443 239 457 229 452 b 212 411 216 436 212 425 b 224 378 212 397 216 386 b 256 366 229 370 240 366 b 290 378 271 366 283 370 b 298 411 296 386 298 397 m 237 290 l 279 244 l 292 244 l 292 319 b 298 322 292 321 294 322 l 298 335 l 261 335 l 261 322 b 272 319 268 322 272 321 l 272 288 l 232 335 l 212 335 l 212 322 b 220 315 217 322 220 320 l 220 260 b 212 257 220 258 217 257 l 212 244 l 250 244 l 250 257 b 237 260 242 257 237 258 m 720 227 l 694 227 l 694 215 b 700 205 698 215 700 212 l 700 150 b 694 147 700 148 698 147 l 694 136 l 726 136 l 726 147 b 721 150 723 147 721 148 l 721 171 l 739 136 l 754 136 l 770 170 l 770 150 b 764 147 770 148 768 147 l 764 136 l 800 136 l 800 147 b 794 150 796 147 794 148 l 794 205 b 800 215 794 212 796 215 l 800 227 l 774 227 l 749 170 m 465 214 b 456 180 459 206 456 195 b 465 149 456 168 459 157 b 498 136 472 140 484 136 b 532 147 513 136 524 140 b 543 180 539 157 543 168 b 533 214 543 195 540 206 b 500 228 525 223 514 228 b 465 214 484 228 472 223 m 364 182 l 404 136 l 416 136 l 416 212 b 424 215 416 214 419 215 l 424 227 l 386 227 l 386 215 b 399 212 394 215 399 214 l 399 179 l 358 227 l 339 227 l 339 215 b 345 205 343 215 345 212 l 345 150 b 339 147 345 148 343 147 l 339 136 l 376 136 l 376 147 b 364 150 368 147 364 148 m 283 550 l 290 550 l 290 579 l 222 579 l 222 567 b 231 564 228 567 231 566 l 231 503 b 222 500 231 501 228 500 l 222 489 l 264 489 l 264 500 b 254 505 257 500 254 502 l 254 528 l 267 528 l 267 522 l 283 522 "},"∓":{"ha":1244,"x_min":0,"x_max":0,"o":"m 639 197 b 636 212 639 207 638 212 l 622 212 l 622 191 l 635 191 l 635 197 l 639 197 m 1004 555 b 1000 571 1004 566 1003 571 l 986 571 l 986 550 l 999 550 l 999 555 l 1004 555 m 749 860 b 758 867 752 860 755 862 b 765 893 763 873 765 882 b 758 918 764 903 762 911 b 747 925 755 923 751 925 b 736 918 743 925 739 923 b 729 893 731 912 729 904 b 736 868 730 882 732 873 b 749 860 740 863 744 860 m 987 631 b 1000 637 993 631 997 633 b 1006 664 1004 643 1006 652 b 999 689 1006 674 1003 682 b 987 696 996 694 992 696 b 977 689 983 696 979 694 b 971 664 973 682 971 674 b 978 637 971 653 973 644 b 987 631 981 633 984 631 m 256 378 b 268 385 261 378 265 380 b 273 411 271 391 273 400 b 267 436 273 422 271 431 b 256 443 264 441 260 443 b 243 436 250 443 246 441 b 237 411 239 432 237 423 b 244 386 237 400 240 392 b 256 378 247 380 251 378 m 511 155 b 518 182 516 162 518 171 b 513 207 518 193 516 201 b 500 214 509 211 505 214 b 488 207 495 214 491 211 b 482 182 484 201 482 193 b 488 155 482 170 484 161 b 498 149 490 151 494 149 b 511 155 503 149 507 151 m 272 550 b 268 564 272 559 271 564 l 254 564 l 254 543 l 267 543 l 267 550 l 272 550 m 650 170 l 635 170 l 635 176 l 622 176 l 622 153 b 632 147 622 149 625 147 l 632 136 l 589 136 l 589 147 b 597 150 595 147 597 148 l 597 212 b 589 215 597 214 595 215 l 589 227 l 657 227 l 657 197 l 650 197 m 872 214 l 872 227 l 905 227 l 905 214 b 897 210 901 214 898 212 l 878 175 l 878 150 b 886 147 878 148 880 147 l 886 136 l 846 136 l 846 147 b 854 150 852 147 854 148 l 854 175 l 835 210 b 827 214 833 212 830 214 l 827 227 l 865 227 l 865 214 l 860 214 l 868 196 l 878 214 m 389 926 l 389 939 l 419 939 l 419 926 b 411 922 415 926 413 925 l 395 886 l 395 861 b 403 859 395 859 397 859 l 403 847 l 359 847 l 359 859 b 370 861 366 859 370 859 l 370 886 l 349 922 b 343 926 348 925 346 926 l 343 939 l 379 939 l 379 926 l 374 926 l 385 907 l 393 926 m 262 811 l 262 823 l 294 823 l 294 811 b 288 807 291 811 288 810 l 268 772 l 268 747 b 277 745 268 746 271 745 l 277 732 l 235 732 l 235 745 b 243 747 240 745 243 746 l 243 772 l 225 807 b 216 811 223 810 220 811 l 216 823 l 254 823 l 254 811 l 249 811 l 258 791 l 268 811 m 1015 529 l 999 529 l 999 534 l 986 534 l 986 513 b 996 507 986 509 989 507 l 996 494 l 954 494 l 954 507 b 962 510 960 507 962 508 l 962 571 b 954 574 962 573 960 574 l 954 586 l 1022 586 l 1022 555 l 1015 555 m 994 329 l 994 342 l 1028 342 l 1028 329 b 1019 325 1023 329 1020 328 l 1000 290 l 1000 265 b 1008 262 1000 263 1003 262 l 1008 252 l 968 252 l 968 262 b 977 265 974 262 977 263 l 977 290 l 957 325 b 949 329 955 328 952 329 l 949 342 l 986 342 l 986 329 l 982 329 l 990 311 l 1000 329 m 237 863 b 250 860 237 861 242 860 l 250 847 l 212 847 l 212 860 b 220 863 217 860 220 861 l 220 918 b 212 926 220 924 217 926 l 212 939 l 232 939 l 272 892 l 272 924 b 261 926 272 925 268 926 l 261 939 l 298 939 l 298 926 b 292 924 294 926 292 925 l 292 847 l 279 847 l 237 895 m 501 880 l 525 939 l 553 939 l 553 926 b 546 918 548 926 546 924 l 546 863 b 553 860 546 861 548 860 l 553 847 l 517 847 l 517 860 b 521 861 519 860 521 860 l 521 882 l 507 847 l 490 847 l 472 884 l 472 863 b 478 860 472 861 474 860 l 478 847 l 447 847 l 447 860 b 453 863 451 860 453 861 l 453 918 b 447 926 453 924 451 926 l 447 939 l 472 939 m 791 893 b 781 860 791 880 788 869 b 749 846 773 850 763 846 b 714 860 733 846 721 850 b 703 893 706 869 703 880 b 714 925 703 906 706 917 b 747 939 721 934 732 939 b 781 925 762 939 773 934 b 791 893 788 917 791 906 m 848 863 b 861 860 848 861 853 860 l 861 847 l 822 847 l 822 860 b 828 863 826 860 828 861 l 828 918 b 822 926 828 924 826 926 l 822 939 l 843 939 l 882 892 l 882 924 b 871 926 882 925 878 926 l 871 939 l 908 939 l 908 926 b 903 924 904 926 903 925 l 903 847 l 888 847 l 848 895 m 1025 908 l 1007 908 b 1003 924 1007 918 1006 924 l 1000 924 l 1000 863 b 1008 860 1000 861 1003 860 l 1008 847 l 968 847 l 968 860 b 977 863 974 860 977 861 l 977 924 l 974 924 b 969 908 971 924 969 918 l 951 908 l 951 939 l 1025 939 m 622 865 b 632 860 622 862 625 860 l 632 847 l 589 847 l 589 860 b 597 863 595 860 597 861 l 597 924 b 589 926 597 925 595 926 l 589 939 l 657 939 l 657 908 l 639 908 b 636 924 639 918 638 924 l 622 924 l 622 901 l 635 901 l 635 907 l 650 907 l 650 882 l 635 882 l 635 888 l 622 888 m 971 150 b 983 147 971 148 975 147 l 983 136 l 945 136 l 945 147 b 951 150 949 147 951 148 l 951 205 b 945 214 951 211 949 214 l 945 227 l 965 227 l 1004 179 l 1004 211 b 993 214 1004 213 1001 214 l 993 227 l 1032 227 l 1032 214 b 1025 211 1027 214 1025 213 l 1025 136 l 1011 136 l 971 182 m 989 406 l 1014 464 l 1042 464 l 1042 452 b 1036 443 1038 452 1036 449 l 1036 387 b 1042 385 1036 385 1038 385 l 1042 374 l 1004 374 l 1004 385 b 1011 386 1009 385 1011 385 l 1011 406 l 994 374 l 979 374 l 961 408 l 961 387 b 966 385 961 385 963 385 l 966 374 l 935 374 l 935 385 b 940 387 938 385 940 385 l 940 443 b 935 452 940 449 938 452 l 935 464 l 961 464 m 1032 663 b 1022 631 1032 649 1029 639 b 987 616 1015 621 1003 616 b 956 629 972 616 962 621 b 945 663 948 638 945 649 b 954 696 945 677 948 688 b 986 710 961 705 972 710 b 1022 696 1003 710 1015 705 b 1032 663 1029 688 1032 677 m 971 754 b 983 751 971 752 975 751 l 983 739 l 945 739 l 945 751 b 951 754 949 751 951 752 l 951 810 b 945 818 951 815 949 818 l 945 831 l 965 831 l 1004 782 l 1004 815 b 993 818 1004 817 1001 818 l 993 831 l 1032 831 l 1032 818 b 1025 815 1027 818 1025 817 l 1025 739 l 1011 739 l 971 785 m 292 199 l 275 199 b 271 212 275 208 273 212 l 268 212 l 268 151 b 277 149 268 149 271 149 l 277 138 l 235 138 l 235 149 b 243 151 240 149 243 149 l 243 212 l 240 212 b 236 199 237 212 236 208 l 220 199 l 220 228 l 292 228 m 257 644 l 282 701 l 309 701 l 309 690 b 302 681 304 690 302 687 l 302 625 b 309 623 302 623 304 623 l 309 610 l 272 610 l 272 623 b 279 625 277 623 279 623 l 279 644 l 262 610 l 245 610 l 229 646 l 229 625 b 233 623 229 623 231 623 l 233 610 l 203 610 l 203 623 b 208 625 206 623 208 623 l 208 681 b 203 690 208 687 206 690 l 203 701 l 229 701 m 298 411 b 290 378 298 397 296 386 b 256 366 283 370 271 366 b 224 378 240 366 229 370 b 212 411 216 386 212 397 b 222 443 212 425 216 436 b 254 457 229 452 239 457 b 290 443 271 457 283 452 b 298 411 296 436 298 425 m 237 260 b 250 257 237 258 242 257 l 250 244 l 212 244 l 212 257 b 220 260 217 257 220 258 l 220 315 b 212 322 220 320 217 322 l 212 335 l 232 335 l 272 288 l 272 319 b 261 322 272 321 268 322 l 261 335 l 298 335 l 298 322 b 292 319 294 322 292 321 l 292 244 l 279 244 l 237 290 m 749 170 l 774 227 l 800 227 l 800 215 b 794 205 796 215 794 212 l 794 150 b 800 147 794 148 796 147 l 800 136 l 764 136 l 764 147 b 770 150 768 147 770 148 l 770 170 l 754 136 l 739 136 l 721 171 l 721 150 b 726 147 721 148 723 147 l 726 136 l 694 136 l 694 147 b 700 150 698 147 700 148 l 700 205 b 694 215 700 212 698 215 l 694 227 l 720 227 m 465 214 b 500 228 472 223 484 228 b 533 214 514 228 525 223 b 543 180 540 206 543 195 b 532 147 543 168 539 157 b 498 136 524 140 513 136 b 465 149 484 136 472 140 b 456 180 459 157 456 168 b 465 214 456 195 459 206 m 364 150 b 376 147 364 148 368 147 l 376 136 l 339 136 l 339 147 b 345 150 343 147 345 148 l 345 205 b 339 215 345 212 343 215 l 339 227 l 358 227 l 399 179 l 399 212 b 386 215 399 214 394 215 l 386 227 l 424 227 l 424 215 b 416 212 419 215 416 214 l 416 136 l 404 136 l 364 182 m 283 522 l 267 522 l 267 528 l 254 528 l 254 505 b 264 500 254 502 257 500 l 264 489 l 222 489 l 222 500 b 231 503 228 500 231 501 l 231 564 b 222 567 231 566 228 567 l 222 579 l 290 579 l 290 550 l 283 550 "},"∔":{"ha":1244,"x_min":0,"x_max":0,"o":"m 639 197 l 635 197 l 635 191 l 622 191 l 622 212 l 636 212 b 639 197 638 212 639 207 m 1004 555 l 999 555 l 999 550 l 986 550 l 986 571 l 1000 571 b 1004 555 1003 571 1004 566 m 749 860 b 736 868 744 860 740 863 b 729 893 732 873 730 882 b 736 918 729 904 731 912 b 747 925 739 923 743 925 b 758 918 751 925 755 923 b 765 893 762 911 764 903 b 758 867 765 882 763 873 b 749 860 755 862 752 860 m 987 631 b 978 637 984 631 981 633 b 971 664 973 644 971 653 b 977 689 971 674 973 682 b 987 696 979 694 983 696 b 999 689 992 696 996 694 b 1006 664 1003 682 1006 674 b 1000 637 1006 652 1004 643 b 987 631 997 633 993 631 m 256 378 b 244 386 251 378 247 380 b 237 411 240 392 237 400 b 243 436 237 423 239 432 b 256 443 246 441 250 443 b 267 436 260 443 264 441 b 273 411 271 431 273 422 b 268 385 273 400 271 391 b 256 378 265 380 261 378 m 511 155 b 498 149 507 151 503 149 b 488 155 494 149 490 151 b 482 182 484 161 482 170 b 488 207 482 193 484 201 b 500 214 491 211 495 214 b 513 207 505 214 509 211 b 518 182 516 201 518 193 b 511 155 518 171 516 162 m 272 550 l 267 550 l 267 543 l 254 543 l 254 564 l 268 564 b 272 550 271 564 272 559 m 650 197 l 657 197 l 657 227 l 589 227 l 589 215 b 597 212 595 215 597 214 l 597 150 b 589 147 597 148 595 147 l 589 136 l 632 136 l 632 147 b 622 153 625 147 622 149 l 622 176 l 635 176 l 635 170 l 650 170 m 878 214 l 868 196 l 860 214 l 865 214 l 865 227 l 827 227 l 827 214 b 835 210 830 214 833 212 l 854 175 l 854 150 b 846 147 854 148 852 147 l 846 136 l 886 136 l 886 147 b 878 150 880 147 878 148 l 878 175 l 897 210 b 905 214 898 212 901 214 l 905 227 l 872 227 l 872 214 m 393 926 l 385 907 l 374 926 l 379 926 l 379 939 l 343 939 l 343 926 b 349 922 346 926 348 925 l 370 886 l 370 861 b 359 859 370 859 366 859 l 359 847 l 403 847 l 403 859 b 395 861 397 859 395 859 l 395 886 l 411 922 b 419 926 413 925 415 926 l 419 939 l 389 939 l 389 926 m 268 811 l 258 791 l 249 811 l 254 811 l 254 823 l 216 823 l 216 811 b 225 807 220 811 223 810 l 243 772 l 243 747 b 235 745 243 746 240 745 l 235 732 l 277 732 l 277 745 b 268 747 271 745 268 746 l 268 772 l 288 807 b 294 811 288 810 291 811 l 294 823 l 262 823 l 262 811 m 1015 555 l 1022 555 l 1022 586 l 954 586 l 954 574 b 962 571 960 574 962 573 l 962 510 b 954 507 962 508 960 507 l 954 494 l 996 494 l 996 507 b 986 513 989 507 986 509 l 986 534 l 999 534 l 999 529 l 1015 529 m 1000 329 l 990 311 l 982 329 l 986 329 l 986 342 l 949 342 l 949 329 b 957 325 952 329 955 328 l 977 290 l 977 265 b 968 262 977 263 974 262 l 968 252 l 1008 252 l 1008 262 b 1000 265 1003 262 1000 263 l 1000 290 l 1019 325 b 1028 329 1020 328 1023 329 l 1028 342 l 994 342 l 994 329 m 237 895 l 279 847 l 292 847 l 292 924 b 298 926 292 925 294 926 l 298 939 l 261 939 l 261 926 b 272 924 268 926 272 925 l 272 892 l 232 939 l 212 939 l 212 926 b 220 918 217 926 220 924 l 220 863 b 212 860 220 861 217 860 l 212 847 l 250 847 l 250 860 b 237 863 242 860 237 861 m 472 939 l 447 939 l 447 926 b 453 918 451 926 453 924 l 453 863 b 447 860 453 861 451 860 l 447 847 l 478 847 l 478 860 b 472 863 474 860 472 861 l 472 884 l 490 847 l 507 847 l 521 882 l 521 861 b 517 860 521 860 519 860 l 517 847 l 553 847 l 553 860 b 546 863 548 860 546 861 l 546 918 b 553 926 546 924 548 926 l 553 939 l 525 939 l 501 880 m 791 893 b 781 925 791 906 788 917 b 747 939 773 934 762 939 b 714 925 732 939 721 934 b 703 893 706 917 703 906 b 714 860 703 880 706 869 b 749 846 721 850 733 846 b 781 860 763 846 773 850 b 791 893 788 869 791 880 m 848 895 l 888 847 l 903 847 l 903 924 b 908 926 903 925 904 926 l 908 939 l 871 939 l 871 926 b 882 924 878 926 882 925 l 882 892 l 843 939 l 822 939 l 822 926 b 828 918 826 926 828 924 l 828 863 b 822 860 828 861 826 860 l 822 847 l 861 847 l 861 860 b 848 863 853 860 848 861 m 1025 939 l 951 939 l 951 908 l 969 908 b 974 924 969 918 971 924 l 977 924 l 977 863 b 968 860 977 861 974 860 l 968 847 l 1008 847 l 1008 860 b 1000 863 1003 860 1000 861 l 1000 924 l 1003 924 b 1007 908 1006 924 1007 918 l 1025 908 m 622 888 l 635 888 l 635 882 l 650 882 l 650 907 l 635 907 l 635 901 l 622 901 l 622 924 l 636 924 b 639 908 638 924 639 918 l 657 908 l 657 939 l 589 939 l 589 926 b 597 924 595 926 597 925 l 597 863 b 589 860 597 861 595 860 l 589 847 l 632 847 l 632 860 b 622 865 625 860 622 862 m 971 182 l 1011 136 l 1025 136 l 1025 211 b 1032 214 1025 213 1027 214 l 1032 227 l 993 227 l 993 214 b 1004 211 1001 214 1004 213 l 1004 179 l 965 227 l 945 227 l 945 214 b 951 205 949 214 951 211 l 951 150 b 945 147 951 148 949 147 l 945 136 l 983 136 l 983 147 b 971 150 975 147 971 148 m 961 464 l 935 464 l 935 452 b 940 443 938 452 940 449 l 940 387 b 935 385 940 385 938 385 l 935 374 l 966 374 l 966 385 b 961 387 963 385 961 385 l 961 408 l 979 374 l 994 374 l 1011 406 l 1011 386 b 1004 385 1011 385 1009 385 l 1004 374 l 1042 374 l 1042 385 b 1036 387 1038 385 1036 385 l 1036 443 b 1042 452 1036 449 1038 452 l 1042 464 l 1014 464 l 989 406 m 1032 663 b 1022 696 1032 677 1029 688 b 986 710 1015 705 1003 710 b 954 696 972 710 961 705 b 945 663 948 688 945 677 b 956 629 945 649 948 638 b 987 616 962 621 972 616 b 1022 631 1003 616 1015 621 b 1032 663 1029 639 1032 649 m 971 785 l 1011 739 l 1025 739 l 1025 815 b 1032 818 1025 817 1027 818 l 1032 831 l 993 831 l 993 818 b 1004 815 1001 818 1004 817 l 1004 782 l 965 831 l 945 831 l 945 818 b 951 810 949 818 951 815 l 951 754 b 945 751 951 752 949 751 l 945 739 l 983 739 l 983 751 b 971 754 975 751 971 752 m 292 228 l 220 228 l 220 199 l 236 199 b 240 212 236 208 237 212 l 243 212 l 243 151 b 235 149 243 149 240 149 l 235 138 l 277 138 l 277 149 b 268 151 271 149 268 149 l 268 212 l 271 212 b 275 199 273 212 275 208 l 292 199 m 229 701 l 203 701 l 203 690 b 208 681 206 690 208 687 l 208 625 b 203 623 208 623 206 623 l 203 610 l 233 610 l 233 623 b 229 625 231 623 229 623 l 229 646 l 245 610 l 262 610 l 279 644 l 279 625 b 272 623 279 623 277 623 l 272 610 l 309 610 l 309 623 b 302 625 304 623 302 623 l 302 681 b 309 690 302 687 304 690 l 309 701 l 282 701 l 257 644 m 298 411 b 290 443 298 425 296 436 b 254 457 283 452 271 457 b 222 443 239 457 229 452 b 212 411 216 436 212 425 b 224 378 212 397 216 386 b 256 366 229 370 240 366 b 290 378 271 366 283 370 b 298 411 296 386 298 397 m 237 290 l 279 244 l 292 244 l 292 319 b 298 322 292 321 294 322 l 298 335 l 261 335 l 261 322 b 272 319 268 322 272 321 l 272 288 l 232 335 l 212 335 l 212 322 b 220 315 217 322 220 320 l 220 260 b 212 257 220 258 217 257 l 212 244 l 250 244 l 250 257 b 237 260 242 257 237 258 m 720 227 l 694 227 l 694 215 b 700 205 698 215 700 212 l 700 150 b 694 147 700 148 698 147 l 694 136 l 726 136 l 726 147 b 721 150 723 147 721 148 l 721 171 l 739 136 l 754 136 l 770 170 l 770 150 b 764 147 770 148 768 147 l 764 136 l 800 136 l 800 147 b 794 150 796 147 794 148 l 794 205 b 800 215 794 212 796 215 l 800 227 l 774 227 l 749 170 m 465 214 b 456 180 459 206 456 195 b 465 149 456 168 459 157 b 498 136 472 140 484 136 b 532 147 513 136 524 140 b 543 180 539 157 543 168 b 533 214 543 195 540 206 b 500 228 525 223 514 228 b 465 214 484 228 472 223 m 364 182 l 404 136 l 416 136 l 416 212 b 424 215 416 214 419 215 l 424 227 l 386 227 l 386 215 b 399 212 394 215 399 214 l 399 179 l 358 227 l 339 227 l 339 215 b 345 205 343 215 345 212 l 345 150 b 339 147 345 148 343 147 l 339 136 l 376 136 l 376 147 b 364 150 368 147 364 148 m 283 550 l 290 550 l 290 579 l 222 579 l 222 567 b 231 564 228 567 231 566 l 231 503 b 222 500 231 501 228 500 l 222 489 l 264 489 l 264 500 b 254 505 257 500 254 502 l 254 528 l 267 528 l 267 522 l 283 522 "},"∖":{"ha":1244,"x_min":0,"x_max":0,"o":"m 639 197 b 636 212 639 207 638 212 l 622 212 l 622 191 l 635 191 l 635 197 l 639 197 m 1004 555 b 1000 571 1004 566 1003 571 l 986 571 l 986 550 l 999 550 l 999 555 l 1004 555 m 749 860 b 758 867 752 860 755 862 b 765 893 763 873 765 882 b 758 918 764 903 762 911 b 747 925 755 923 751 925 b 736 918 743 925 739 923 b 729 893 731 912 729 904 b 736 868 730 882 732 873 b 749 860 740 863 744 860 m 987 631 b 1000 637 993 631 997 633 b 1006 664 1004 643 1006 652 b 999 689 1006 674 1003 682 b 987 696 996 694 992 696 b 977 689 983 696 979 694 b 971 664 973 682 971 674 b 978 637 971 653 973 644 b 987 631 981 633 984 631 m 256 378 b 268 385 261 378 265 380 b 273 411 271 391 273 400 b 267 436 273 422 271 431 b 256 443 264 441 260 443 b 243 436 250 443 246 441 b 237 411 239 432 237 423 b 244 386 237 400 240 392 b 256 378 247 380 251 378 m 511 155 b 518 182 516 162 518 171 b 513 207 518 193 516 201 b 500 214 509 211 505 214 b 488 207 495 214 491 211 b 482 182 484 201 482 193 b 488 155 482 170 484 161 b 498 149 490 151 494 149 b 511 155 503 149 507 151 m 272 550 b 268 564 272 559 271 564 l 254 564 l 254 543 l 267 543 l 267 550 l 272 550 m 650 170 l 635 170 l 635 176 l 622 176 l 622 153 b 632 147 622 149 625 147 l 632 136 l 589 136 l 589 147 b 597 150 595 147 597 148 l 597 212 b 589 215 597 214 595 215 l 589 227 l 657 227 l 657 197 l 650 197 m 872 214 l 872 227 l 905 227 l 905 214 b 897 210 901 214 898 212 l 878 175 l 878 150 b 886 147 878 148 880 147 l 886 136 l 846 136 l 846 147 b 854 150 852 147 854 148 l 854 175 l 835 210 b 827 214 833 212 830 214 l 827 227 l 865 227 l 865 214 l 860 214 l 868 196 l 878 214 m 389 926 l 389 939 l 419 939 l 419 926 b 411 922 415 926 413 925 l 395 886 l 395 861 b 403 859 395 859 397 859 l 403 847 l 359 847 l 359 859 b 370 861 366 859 370 859 l 370 886 l 349 922 b 343 926 348 925 346 926 l 343 939 l 379 939 l 379 926 l 374 926 l 385 907 l 393 926 m 262 811 l 262 823 l 294 823 l 294 811 b 288 807 291 811 288 810 l 268 772 l 268 747 b 277 745 268 746 271 745 l 277 732 l 235 732 l 235 745 b 243 747 240 745 243 746 l 243 772 l 225 807 b 216 811 223 810 220 811 l 216 823 l 254 823 l 254 811 l 249 811 l 258 791 l 268 811 m 1015 529 l 999 529 l 999 534 l 986 534 l 986 513 b 996 507 986 509 989 507 l 996 494 l 954 494 l 954 507 b 962 510 960 507 962 508 l 962 571 b 954 574 962 573 960 574 l 954 586 l 1022 586 l 1022 555 l 1015 555 m 994 329 l 994 342 l 1028 342 l 1028 329 b 1019 325 1023 329 1020 328 l 1000 290 l 1000 265 b 1008 262 1000 263 1003 262 l 1008 252 l 968 252 l 968 262 b 977 265 974 262 977 263 l 977 290 l 957 325 b 949 329 955 328 952 329 l 949 342 l 986 342 l 986 329 l 982 329 l 990 311 l 1000 329 m 237 863 b 250 860 237 861 242 860 l 250 847 l 212 847 l 212 860 b 220 863 217 860 220 861 l 220 918 b 212 926 220 924 217 926 l 212 939 l 232 939 l 272 892 l 272 924 b 261 926 272 925 268 926 l 261 939 l 298 939 l 298 926 b 292 924 294 926 292 925 l 292 847 l 279 847 l 237 895 m 501 880 l 525 939 l 553 939 l 553 926 b 546 918 548 926 546 924 l 546 863 b 553 860 546 861 548 860 l 553 847 l 517 847 l 517 860 b 521 861 519 860 521 860 l 521 882 l 507 847 l 490 847 l 472 884 l 472 863 b 478 860 472 861 474 860 l 478 847 l 447 847 l 447 860 b 453 863 451 860 453 861 l 453 918 b 447 926 453 924 451 926 l 447 939 l 472 939 m 791 893 b 781 860 791 880 788 869 b 749 846 773 850 763 846 b 714 860 733 846 721 850 b 703 893 706 869 703 880 b 714 925 703 906 706 917 b 747 939 721 934 732 939 b 781 925 762 939 773 934 b 791 893 788 917 791 906 m 848 863 b 861 860 848 861 853 860 l 861 847 l 822 847 l 822 860 b 828 863 826 860 828 861 l 828 918 b 822 926 828 924 826 926 l 822 939 l 843 939 l 882 892 l 882 924 b 871 926 882 925 878 926 l 871 939 l 908 939 l 908 926 b 903 924 904 926 903 925 l 903 847 l 888 847 l 848 895 m 1025 908 l 1007 908 b 1003 924 1007 918 1006 924 l 1000 924 l 1000 863 b 1008 860 1000 861 1003 860 l 1008 847 l 968 847 l 968 860 b 977 863 974 860 977 861 l 977 924 l 974 924 b 969 908 971 924 969 918 l 951 908 l 951 939 l 1025 939 m 622 865 b 632 860 622 862 625 860 l 632 847 l 589 847 l 589 860 b 597 863 595 860 597 861 l 597 924 b 589 926 597 925 595 926 l 589 939 l 657 939 l 657 908 l 639 908 b 636 924 639 918 638 924 l 622 924 l 622 901 l 635 901 l 635 907 l 650 907 l 650 882 l 635 882 l 635 888 l 622 888 m 971 150 b 983 147 971 148 975 147 l 983 136 l 945 136 l 945 147 b 951 150 949 147 951 148 l 951 205 b 945 214 951 211 949 214 l 945 227 l 965 227 l 1004 179 l 1004 211 b 993 214 1004 213 1001 214 l 993 227 l 1032 227 l 1032 214 b 1025 211 1027 214 1025 213 l 1025 136 l 1011 136 l 971 182 m 989 406 l 1014 464 l 1042 464 l 1042 452 b 1036 443 1038 452 1036 449 l 1036 387 b 1042 385 1036 385 1038 385 l 1042 374 l 1004 374 l 1004 385 b 1011 386 1009 385 1011 385 l 1011 406 l 994 374 l 979 374 l 961 408 l 961 387 b 966 385 961 385 963 385 l 966 374 l 935 374 l 935 385 b 940 387 938 385 940 385 l 940 443 b 935 452 940 449 938 452 l 935 464 l 961 464 m 1032 663 b 1022 631 1032 649 1029 639 b 987 616 1015 621 1003 616 b 956 629 972 616 962 621 b 945 663 948 638 945 649 b 954 696 945 677 948 688 b 986 710 961 705 972 710 b 1022 696 1003 710 1015 705 b 1032 663 1029 688 1032 677 m 971 754 b 983 751 971 752 975 751 l 983 739 l 945 739 l 945 751 b 951 754 949 751 951 752 l 951 810 b 945 818 951 815 949 818 l 945 831 l 965 831 l 1004 782 l 1004 815 b 993 818 1004 817 1001 818 l 993 831 l 1032 831 l 1032 818 b 1025 815 1027 818 1025 817 l 1025 739 l 1011 739 l 971 785 m 292 199 l 275 199 b 271 212 275 208 273 212 l 268 212 l 268 151 b 277 149 268 149 271 149 l 277 138 l 235 138 l 235 149 b 243 151 240 149 243 149 l 243 212 l 240 212 b 236 199 237 212 236 208 l 220 199 l 220 228 l 292 228 m 257 644 l 282 701 l 309 701 l 309 690 b 302 681 304 690 302 687 l 302 625 b 309 623 302 623 304 623 l 309 610 l 272 610 l 272 623 b 279 625 277 623 279 623 l 279 644 l 262 610 l 245 610 l 229 646 l 229 625 b 233 623 229 623 231 623 l 233 610 l 203 610 l 203 623 b 208 625 206 623 208 623 l 208 681 b 203 690 208 687 206 690 l 203 701 l 229 701 m 298 411 b 290 378 298 397 296 386 b 256 366 283 370 271 366 b 224 378 240 366 229 370 b 212 411 216 386 212 397 b 222 443 212 425 216 436 b 254 457 229 452 239 457 b 290 443 271 457 283 452 b 298 411 296 436 298 425 m 237 260 b 250 257 237 258 242 257 l 250 244 l 212 244 l 212 257 b 220 260 217 257 220 258 l 220 315 b 212 322 220 320 217 322 l 212 335 l 232 335 l 272 288 l 272 319 b 261 322 272 321 268 322 l 261 335 l 298 335 l 298 322 b 292 319 294 322 292 321 l 292 244 l 279 244 l 237 290 m 749 170 l 774 227 l 800 227 l 800 215 b 794 205 796 215 794 212 l 794 150 b 800 147 794 148 796 147 l 800 136 l 764 136 l 764 147 b 770 150 768 147 770 148 l 770 170 l 754 136 l 739 136 l 721 171 l 721 150 b 726 147 721 148 723 147 l 726 136 l 694 136 l 694 147 b 700 150 698 147 700 148 l 700 205 b 694 215 700 212 698 215 l 694 227 l 720 227 m 465 214 b 500 228 472 223 484 228 b 533 214 514 228 525 223 b 543 180 540 206 543 195 b 532 147 543 168 539 157 b 498 136 524 140 513 136 b 465 149 484 136 472 140 b 456 180 459 157 456 168 b 465 214 456 195 459 206 m 364 150 b 376 147 364 148 368 147 l 376 136 l 339 136 l 339 147 b 345 150 343 147 345 148 l 345 205 b 339 215 345 212 343 215 l 339 227 l 358 227 l 399 179 l 399 212 b 386 215 399 214 394 215 l 386 227 l 424 227 l 424 215 b 416 212 419 215 416 214 l 416 136 l 404 136 l 364 182 m 283 522 l 267 522 l 267 528 l 254 528 l 254 505 b 264 500 254 502 257 500 l 264 489 l 222 489 l 222 500 b 231 503 228 500 231 501 l 231 564 b 222 567 231 566 228 567 l 222 579 l 290 579 l 290 550 l 283 550 "},"∗":{"ha":1244,"x_min":0,"x_max":0,"o":"m 639 197 l 635 197 l 635 191 l 622 191 l 622 212 l 636 212 b 639 197 638 212 639 207 m 1004 555 l 999 555 l 999 550 l 986 550 l 986 571 l 1000 571 b 1004 555 1003 571 1004 566 m 749 860 b 736 868 744 860 740 863 b 729 893 732 873 730 882 b 736 918 729 904 731 912 b 747 925 739 923 743 925 b 758 918 751 925 755 923 b 765 893 762 911 764 903 b 758 867 765 882 763 873 b 749 860 755 862 752 860 m 987 631 b 978 637 984 631 981 633 b 971 664 973 644 971 653 b 977 689 971 674 973 682 b 987 696 979 694 983 696 b 999 689 992 696 996 694 b 1006 664 1003 682 1006 674 b 1000 637 1006 652 1004 643 b 987 631 997 633 993 631 m 256 378 b 244 386 251 378 247 380 b 237 411 240 392 237 400 b 243 436 237 423 239 432 b 256 443 246 441 250 443 b 267 436 260 443 264 441 b 273 411 271 431 273 422 b 268 385 273 400 271 391 b 256 378 265 380 261 378 m 511 155 b 498 149 507 151 503 149 b 488 155 494 149 490 151 b 482 182 484 161 482 170 b 488 207 482 193 484 201 b 500 214 491 211 495 214 b 513 207 505 214 509 211 b 518 182 516 201 518 193 b 511 155 518 171 516 162 m 272 550 l 267 550 l 267 543 l 254 543 l 254 564 l 268 564 b 272 550 271 564 272 559 m 650 197 l 657 197 l 657 227 l 589 227 l 589 215 b 597 212 595 215 597 214 l 597 150 b 589 147 597 148 595 147 l 589 136 l 632 136 l 632 147 b 622 153 625 147 622 149 l 622 176 l 635 176 l 635 170 l 650 170 m 878 214 l 868 196 l 860 214 l 865 214 l 865 227 l 827 227 l 827 214 b 835 210 830 214 833 212 l 854 175 l 854 150 b 846 147 854 148 852 147 l 846 136 l 886 136 l 886 147 b 878 150 880 147 878 148 l 878 175 l 897 210 b 905 214 898 212 901 214 l 905 227 l 872 227 l 872 214 m 393 926 l 385 907 l 374 926 l 379 926 l 379 939 l 343 939 l 343 926 b 349 922 346 926 348 925 l 370 886 l 370 861 b 359 859 370 859 366 859 l 359 847 l 403 847 l 403 859 b 395 861 397 859 395 859 l 395 886 l 411 922 b 419 926 413 925 415 926 l 419 939 l 389 939 l 389 926 m 268 811 l 258 791 l 249 811 l 254 811 l 254 823 l 216 823 l 216 811 b 225 807 220 811 223 810 l 243 772 l 243 747 b 235 745 243 746 240 745 l 235 732 l 277 732 l 277 745 b 268 747 271 745 268 746 l 268 772 l 288 807 b 294 811 288 810 291 811 l 294 823 l 262 823 l 262 811 m 1015 555 l 1022 555 l 1022 586 l 954 586 l 954 574 b 962 571 960 574 962 573 l 962 510 b 954 507 962 508 960 507 l 954 494 l 996 494 l 996 507 b 986 513 989 507 986 509 l 986 534 l 999 534 l 999 529 l 1015 529 m 1000 329 l 990 311 l 982 329 l 986 329 l 986 342 l 949 342 l 949 329 b 957 325 952 329 955 328 l 977 290 l 977 265 b 968 262 977 263 974 262 l 968 252 l 1008 252 l 1008 262 b 1000 265 1003 262 1000 263 l 1000 290 l 1019 325 b 1028 329 1020 328 1023 329 l 1028 342 l 994 342 l 994 329 m 237 895 l 279 847 l 292 847 l 292 924 b 298 926 292 925 294 926 l 298 939 l 261 939 l 261 926 b 272 924 268 926 272 925 l 272 892 l 232 939 l 212 939 l 212 926 b 220 918 217 926 220 924 l 220 863 b 212 860 220 861 217 860 l 212 847 l 250 847 l 250 860 b 237 863 242 860 237 861 m 472 939 l 447 939 l 447 926 b 453 918 451 926 453 924 l 453 863 b 447 860 453 861 451 860 l 447 847 l 478 847 l 478 860 b 472 863 474 860 472 861 l 472 884 l 490 847 l 507 847 l 521 882 l 521 861 b 517 860 521 860 519 860 l 517 847 l 553 847 l 553 860 b 546 863 548 860 546 861 l 546 918 b 553 926 546 924 548 926 l 553 939 l 525 939 l 501 880 m 791 893 b 781 925 791 906 788 917 b 747 939 773 934 762 939 b 714 925 732 939 721 934 b 703 893 706 917 703 906 b 714 860 703 880 706 869 b 749 846 721 850 733 846 b 781 860 763 846 773 850 b 791 893 788 869 791 880 m 848 895 l 888 847 l 903 847 l 903 924 b 908 926 903 925 904 926 l 908 939 l 871 939 l 871 926 b 882 924 878 926 882 925 l 882 892 l 843 939 l 822 939 l 822 926 b 828 918 826 926 828 924 l 828 863 b 822 860 828 861 826 860 l 822 847 l 861 847 l 861 860 b 848 863 853 860 848 861 m 1025 939 l 951 939 l 951 908 l 969 908 b 974 924 969 918 971 924 l 977 924 l 977 863 b 968 860 977 861 974 860 l 968 847 l 1008 847 l 1008 860 b 1000 863 1003 860 1000 861 l 1000 924 l 1003 924 b 1007 908 1006 924 1007 918 l 1025 908 m 622 888 l 635 888 l 635 882 l 650 882 l 650 907 l 635 907 l 635 901 l 622 901 l 622 924 l 636 924 b 639 908 638 924 639 918 l 657 908 l 657 939 l 589 939 l 589 926 b 597 924 595 926 597 925 l 597 863 b 589 860 597 861 595 860 l 589 847 l 632 847 l 632 860 b 622 865 625 860 622 862 m 971 182 l 1011 136 l 1025 136 l 1025 211 b 1032 214 1025 213 1027 214 l 1032 227 l 993 227 l 993 214 b 1004 211 1001 214 1004 213 l 1004 179 l 965 227 l 945 227 l 945 214 b 951 205 949 214 951 211 l 951 150 b 945 147 951 148 949 147 l 945 136 l 983 136 l 983 147 b 971 150 975 147 971 148 m 961 464 l 935 464 l 935 452 b 940 443 938 452 940 449 l 940 387 b 935 385 940 385 938 385 l 935 374 l 966 374 l 966 385 b 961 387 963 385 961 385 l 961 408 l 979 374 l 994 374 l 1011 406 l 1011 386 b 1004 385 1011 385 1009 385 l 1004 374 l 1042 374 l 1042 385 b 1036 387 1038 385 1036 385 l 1036 443 b 1042 452 1036 449 1038 452 l 1042 464 l 1014 464 l 989 406 m 1032 663 b 1022 696 1032 677 1029 688 b 986 710 1015 705 1003 710 b 954 696 972 710 961 705 b 945 663 948 688 945 677 b 956 629 945 649 948 638 b 987 616 962 621 972 616 b 1022 631 1003 616 1015 621 b 1032 663 1029 639 1032 649 m 971 785 l 1011 739 l 1025 739 l 1025 815 b 1032 818 1025 817 1027 818 l 1032 831 l 993 831 l 993 818 b 1004 815 1001 818 1004 817 l 1004 782 l 965 831 l 945 831 l 945 818 b 951 810 949 818 951 815 l 951 754 b 945 751 951 752 949 751 l 945 739 l 983 739 l 983 751 b 971 754 975 751 971 752 m 292 228 l 220 228 l 220 199 l 236 199 b 240 212 236 208 237 212 l 243 212 l 243 151 b 235 149 243 149 240 149 l 235 138 l 277 138 l 277 149 b 268 151 271 149 268 149 l 268 212 l 271 212 b 275 199 273 212 275 208 l 292 199 m 229 701 l 203 701 l 203 690 b 208 681 206 690 208 687 l 208 625 b 203 623 208 623 206 623 l 203 610 l 233 610 l 233 623 b 229 625 231 623 229 623 l 229 646 l 245 610 l 262 610 l 279 644 l 279 625 b 272 623 279 623 277 623 l 272 610 l 309 610 l 309 623 b 302 625 304 623 302 623 l 302 681 b 309 690 302 687 304 690 l 309 701 l 282 701 l 257 644 m 298 411 b 290 443 298 425 296 436 b 254 457 283 452 271 457 b 222 443 239 457 229 452 b 212 411 216 436 212 425 b 224 378 212 397 216 386 b 256 366 229 370 240 366 b 290 378 271 366 283 370 b 298 411 296 386 298 397 m 237 290 l 279 244 l 292 244 l 292 319 b 298 322 292 321 294 322 l 298 335 l 261 335 l 261 322 b 272 319 268 322 272 321 l 272 288 l 232 335 l 212 335 l 212 322 b 220 315 217 322 220 320 l 220 260 b 212 257 220 258 217 257 l 212 244 l 250 244 l 250 257 b 237 260 242 257 237 258 m 720 227 l 694 227 l 694 215 b 700 205 698 215 700 212 l 700 150 b 694 147 700 148 698 147 l 694 136 l 726 136 l 726 147 b 721 150 723 147 721 148 l 721 171 l 739 136 l 754 136 l 770 170 l 770 150 b 764 147 770 148 768 147 l 764 136 l 800 136 l 800 147 b 794 150 796 147 794 148 l 794 205 b 800 215 794 212 796 215 l 800 227 l 774 227 l 749 170 m 465 214 b 456 180 459 206 456 195 b 465 149 456 168 459 157 b 498 136 472 140 484 136 b 532 147 513 136 524 140 b 543 180 539 157 543 168 b 533 214 543 195 540 206 b 500 228 525 223 514 228 b 465 214 484 228 472 223 m 364 182 l 404 136 l 416 136 l 416 212 b 424 215 416 214 419 215 l 424 227 l 386 227 l 386 215 b 399 212 394 215 399 214 l 399 179 l 358 227 l 339 227 l 339 215 b 345 205 343 215 345 212 l 345 150 b 339 147 345 148 343 147 l 339 136 l 376 136 l 376 147 b 364 150 368 147 364 148 m 283 550 l 290 550 l 290 579 l 222 579 l 222 567 b 231 564 228 567 231 566 l 231 503 b 222 500 231 501 228 500 l 222 489 l 264 489 l 264 500 b 254 505 257 500 254 502 l 254 528 l 267 528 l 267 522 l 283 522 "},"∘":{"ha":1244,"x_min":0,"x_max":0,"o":"m 639 197 b 636 212 639 207 638 212 l 622 212 l 622 191 l 635 191 l 635 197 l 639 197 m 1004 555 b 1000 571 1004 566 1003 571 l 986 571 l 986 550 l 999 550 l 999 555 l 1004 555 m 749 860 b 758 867 752 860 755 862 b 765 893 763 873 765 882 b 758 918 764 903 762 911 b 747 925 755 923 751 925 b 736 918 743 925 739 923 b 729 893 731 912 729 904 b 736 868 730 882 732 873 b 749 860 740 863 744 860 m 987 631 b 1000 637 993 631 997 633 b 1006 664 1004 643 1006 652 b 999 689 1006 674 1003 682 b 987 696 996 694 992 696 b 977 689 983 696 979 694 b 971 664 973 682 971 674 b 978 637 971 653 973 644 b 987 631 981 633 984 631 m 256 378 b 268 385 261 378 265 380 b 273 411 271 391 273 400 b 267 436 273 422 271 431 b 256 443 264 441 260 443 b 243 436 250 443 246 441 b 237 411 239 432 237 423 b 244 386 237 400 240 392 b 256 378 247 380 251 378 m 511 155 b 518 182 516 162 518 171 b 513 207 518 193 516 201 b 500 214 509 211 505 214 b 488 207 495 214 491 211 b 482 182 484 201 482 193 b 488 155 482 170 484 161 b 498 149 490 151 494 149 b 511 155 503 149 507 151 m 272 550 b 268 564 272 559 271 564 l 254 564 l 254 543 l 267 543 l 267 550 l 272 550 m 650 170 l 635 170 l 635 176 l 622 176 l 622 153 b 632 147 622 149 625 147 l 632 136 l 589 136 l 589 147 b 597 150 595 147 597 148 l 597 212 b 589 215 597 214 595 215 l 589 227 l 657 227 l 657 197 l 650 197 m 872 214 l 872 227 l 905 227 l 905 214 b 897 210 901 214 898 212 l 878 175 l 878 150 b 886 147 878 148 880 147 l 886 136 l 846 136 l 846 147 b 854 150 852 147 854 148 l 854 175 l 835 210 b 827 214 833 212 830 214 l 827 227 l 865 227 l 865 214 l 860 214 l 868 196 l 878 214 m 389 926 l 389 939 l 419 939 l 419 926 b 411 922 415 926 413 925 l 395 886 l 395 861 b 403 859 395 859 397 859 l 403 847 l 359 847 l 359 859 b 370 861 366 859 370 859 l 370 886 l 349 922 b 343 926 348 925 346 926 l 343 939 l 379 939 l 379 926 l 374 926 l 385 907 l 393 926 m 262 811 l 262 823 l 294 823 l 294 811 b 288 807 291 811 288 810 l 268 772 l 268 747 b 277 745 268 746 271 745 l 277 732 l 235 732 l 235 745 b 243 747 240 745 243 746 l 243 772 l 225 807 b 216 811 223 810 220 811 l 216 823 l 254 823 l 254 811 l 249 811 l 258 791 l 268 811 m 1015 529 l 999 529 l 999 534 l 986 534 l 986 513 b 996 507 986 509 989 507 l 996 494 l 954 494 l 954 507 b 962 510 960 507 962 508 l 962 571 b 954 574 962 573 960 574 l 954 586 l 1022 586 l 1022 555 l 1015 555 m 994 329 l 994 342 l 1028 342 l 1028 329 b 1019 325 1023 329 1020 328 l 1000 290 l 1000 265 b 1008 262 1000 263 1003 262 l 1008 252 l 968 252 l 968 262 b 977 265 974 262 977 263 l 977 290 l 957 325 b 949 329 955 328 952 329 l 949 342 l 986 342 l 986 329 l 982 329 l 990 311 l 1000 329 m 237 863 b 250 860 237 861 242 860 l 250 847 l 212 847 l 212 860 b 220 863 217 860 220 861 l 220 918 b 212 926 220 924 217 926 l 212 939 l 232 939 l 272 892 l 272 924 b 261 926 272 925 268 926 l 261 939 l 298 939 l 298 926 b 292 924 294 926 292 925 l 292 847 l 279 847 l 237 895 m 501 880 l 525 939 l 553 939 l 553 926 b 546 918 548 926 546 924 l 546 863 b 553 860 546 861 548 860 l 553 847 l 517 847 l 517 860 b 521 861 519 860 521 860 l 521 882 l 507 847 l 490 847 l 472 884 l 472 863 b 478 860 472 861 474 860 l 478 847 l 447 847 l 447 860 b 453 863 451 860 453 861 l 453 918 b 447 926 453 924 451 926 l 447 939 l 472 939 m 791 893 b 781 860 791 880 788 869 b 749 846 773 850 763 846 b 714 860 733 846 721 850 b 703 893 706 869 703 880 b 714 925 703 906 706 917 b 747 939 721 934 732 939 b 781 925 762 939 773 934 b 791 893 788 917 791 906 m 848 863 b 861 860 848 861 853 860 l 861 847 l 822 847 l 822 860 b 828 863 826 860 828 861 l 828 918 b 822 926 828 924 826 926 l 822 939 l 843 939 l 882 892 l 882 924 b 871 926 882 925 878 926 l 871 939 l 908 939 l 908 926 b 903 924 904 926 903 925 l 903 847 l 888 847 l 848 895 m 1025 908 l 1007 908 b 1003 924 1007 918 1006 924 l 1000 924 l 1000 863 b 1008 860 1000 861 1003 860 l 1008 847 l 968 847 l 968 860 b 977 863 974 860 977 861 l 977 924 l 974 924 b 969 908 971 924 969 918 l 951 908 l 951 939 l 1025 939 m 622 865 b 632 860 622 862 625 860 l 632 847 l 589 847 l 589 860 b 597 863 595 860 597 861 l 597 924 b 589 926 597 925 595 926 l 589 939 l 657 939 l 657 908 l 639 908 b 636 924 639 918 638 924 l 622 924 l 622 901 l 635 901 l 635 907 l 650 907 l 650 882 l 635 882 l 635 888 l 622 888 m 971 150 b 983 147 971 148 975 147 l 983 136 l 945 136 l 945 147 b 951 150 949 147 951 148 l 951 205 b 945 214 951 211 949 214 l 945 227 l 965 227 l 1004 179 l 1004 211 b 993 214 1004 213 1001 214 l 993 227 l 1032 227 l 1032 214 b 1025 211 1027 214 1025 213 l 1025 136 l 1011 136 l 971 182 m 989 406 l 1014 464 l 1042 464 l 1042 452 b 1036 443 1038 452 1036 449 l 1036 387 b 1042 385 1036 385 1038 385 l 1042 374 l 1004 374 l 1004 385 b 1011 386 1009 385 1011 385 l 1011 406 l 994 374 l 979 374 l 961 408 l 961 387 b 966 385 961 385 963 385 l 966 374 l 935 374 l 935 385 b 940 387 938 385 940 385 l 940 443 b 935 452 940 449 938 452 l 935 464 l 961 464 m 1032 663 b 1022 631 1032 649 1029 639 b 987 616 1015 621 1003 616 b 956 629 972 616 962 621 b 945 663 948 638 945 649 b 954 696 945 677 948 688 b 986 710 961 705 972 710 b 1022 696 1003 710 1015 705 b 1032 663 1029 688 1032 677 m 971 754 b 983 751 971 752 975 751 l 983 739 l 945 739 l 945 751 b 951 754 949 751 951 752 l 951 810 b 945 818 951 815 949 818 l 945 831 l 965 831 l 1004 782 l 1004 815 b 993 818 1004 817 1001 818 l 993 831 l 1032 831 l 1032 818 b 1025 815 1027 818 1025 817 l 1025 739 l 1011 739 l 971 785 m 292 199 l 275 199 b 271 212 275 208 273 212 l 268 212 l 268 151 b 277 149 268 149 271 149 l 277 138 l 235 138 l 235 149 b 243 151 240 149 243 149 l 243 212 l 240 212 b 236 199 237 212 236 208 l 220 199 l 220 228 l 292 228 m 257 644 l 282 701 l 309 701 l 309 690 b 302 681 304 690 302 687 l 302 625 b 309 623 302 623 304 623 l 309 610 l 272 610 l 272 623 b 279 625 277 623 279 623 l 279 644 l 262 610 l 245 610 l 229 646 l 229 625 b 233 623 229 623 231 623 l 233 610 l 203 610 l 203 623 b 208 625 206 623 208 623 l 208 681 b 203 690 208 687 206 690 l 203 701 l 229 701 m 298 411 b 290 378 298 397 296 386 b 256 366 283 370 271 366 b 224 378 240 366 229 370 b 212 411 216 386 212 397 b 222 443 212 425 216 436 b 254 457 229 452 239 457 b 290 443 271 457 283 452 b 298 411 296 436 298 425 m 237 260 b 250 257 237 258 242 257 l 250 244 l 212 244 l 212 257 b 220 260 217 257 220 258 l 220 315 b 212 322 220 320 217 322 l 212 335 l 232 335 l 272 288 l 272 319 b 261 322 272 321 268 322 l 261 335 l 298 335 l 298 322 b 292 319 294 322 292 321 l 292 244 l 279 244 l 237 290 m 749 170 l 774 227 l 800 227 l 800 215 b 794 205 796 215 794 212 l 794 150 b 800 147 794 148 796 147 l 800 136 l 764 136 l 764 147 b 770 150 768 147 770 148 l 770 170 l 754 136 l 739 136 l 721 171 l 721 150 b 726 147 721 148 723 147 l 726 136 l 694 136 l 694 147 b 700 150 698 147 700 148 l 700 205 b 694 215 700 212 698 215 l 694 227 l 720 227 m 465 214 b 500 228 472 223 484 228 b 533 214 514 228 525 223 b 543 180 540 206 543 195 b 532 147 543 168 539 157 b 498 136 524 140 513 136 b 465 149 484 136 472 140 b 456 180 459 157 456 168 b 465 214 456 195 459 206 m 364 150 b 376 147 364 148 368 147 l 376 136 l 339 136 l 339 147 b 345 150 343 147 345 148 l 345 205 b 339 215 345 212 343 215 l 339 227 l 358 227 l 399 179 l 399 212 b 386 215 399 214 394 215 l 386 227 l 424 227 l 424 215 b 416 212 419 215 416 214 l 416 136 l 404 136 l 364 182 m 283 522 l 267 522 l 267 528 l 254 528 l 254 505 b 264 500 254 502 257 500 l 264 489 l 222 489 l 222 500 b 231 503 228 500 231 501 l 231 564 b 222 567 231 566 228 567 l 222 579 l 290 579 l 290 550 l 283 550 "},"∛":{"ha":1244,"x_min":0,"x_max":0,"o":"m 639 197 l 635 197 l 635 191 l 622 191 l 622 212 l 636 212 b 639 197 638 212 639 207 m 1004 555 l 999 555 l 999 550 l 986 550 l 986 571 l 1000 571 b 1004 555 1003 571 1004 566 m 749 860 b 736 868 744 860 740 863 b 729 893 732 873 730 882 b 736 918 729 904 731 912 b 747 925 739 923 743 925 b 758 918 751 925 755 923 b 765 893 762 911 764 903 b 758 867 765 882 763 873 b 749 860 755 862 752 860 m 987 631 b 978 637 984 631 981 633 b 971 664 973 644 971 653 b 977 689 971 674 973 682 b 987 696 979 694 983 696 b 999 689 992 696 996 694 b 1006 664 1003 682 1006 674 b 1000 637 1006 652 1004 643 b 987 631 997 633 993 631 m 256 378 b 244 386 251 378 247 380 b 237 411 240 392 237 400 b 243 436 237 423 239 432 b 256 443 246 441 250 443 b 267 436 260 443 264 441 b 273 411 271 431 273 422 b 268 385 273 400 271 391 b 256 378 265 380 261 378 m 511 155 b 498 149 507 151 503 149 b 488 155 494 149 490 151 b 482 182 484 161 482 170 b 488 207 482 193 484 201 b 500 214 491 211 495 214 b 513 207 505 214 509 211 b 518 182 516 201 518 193 b 511 155 518 171 516 162 m 272 550 l 267 550 l 267 543 l 254 543 l 254 564 l 268 564 b 272 550 271 564 272 559 m 650 197 l 657 197 l 657 227 l 589 227 l 589 215 b 597 212 595 215 597 214 l 597 150 b 589 147 597 148 595 147 l 589 136 l 632 136 l 632 147 b 622 153 625 147 622 149 l 622 176 l 635 176 l 635 170 l 650 170 m 878 214 l 868 196 l 860 214 l 865 214 l 865 227 l 827 227 l 827 214 b 835 210 830 214 833 212 l 854 175 l 854 150 b 846 147 854 148 852 147 l 846 136 l 886 136 l 886 147 b 878 150 880 147 878 148 l 878 175 l 897 210 b 905 214 898 212 901 214 l 905 227 l 872 227 l 872 214 m 393 926 l 385 907 l 374 926 l 379 926 l 379 939 l 343 939 l 343 926 b 349 922 346 926 348 925 l 370 886 l 370 861 b 359 859 370 859 366 859 l 359 847 l 403 847 l 403 859 b 395 861 397 859 395 859 l 395 886 l 411 922 b 419 926 413 925 415 926 l 419 939 l 389 939 l 389 926 m 268 811 l 258 791 l 249 811 l 254 811 l 254 823 l 216 823 l 216 811 b 225 807 220 811 223 810 l 243 772 l 243 747 b 235 745 243 746 240 745 l 235 732 l 277 732 l 277 745 b 268 747 271 745 268 746 l 268 772 l 288 807 b 294 811 288 810 291 811 l 294 823 l 262 823 l 262 811 m 1015 555 l 1022 555 l 1022 586 l 954 586 l 954 574 b 962 571 960 574 962 573 l 962 510 b 954 507 962 508 960 507 l 954 494 l 996 494 l 996 507 b 986 513 989 507 986 509 l 986 534 l 999 534 l 999 529 l 1015 529 m 1000 329 l 990 311 l 982 329 l 986 329 l 986 342 l 949 342 l 949 329 b 957 325 952 329 955 328 l 977 290 l 977 265 b 968 262 977 263 974 262 l 968 252 l 1008 252 l 1008 262 b 1000 265 1003 262 1000 263 l 1000 290 l 1019 325 b 1028 329 1020 328 1023 329 l 1028 342 l 994 342 l 994 329 m 237 895 l 279 847 l 292 847 l 292 924 b 298 926 292 925 294 926 l 298 939 l 261 939 l 261 926 b 272 924 268 926 272 925 l 272 892 l 232 939 l 212 939 l 212 926 b 220 918 217 926 220 924 l 220 863 b 212 860 220 861 217 860 l 212 847 l 250 847 l 250 860 b 237 863 242 860 237 861 m 472 939 l 447 939 l 447 926 b 453 918 451 926 453 924 l 453 863 b 447 860 453 861 451 860 l 447 847 l 478 847 l 478 860 b 472 863 474 860 472 861 l 472 884 l 490 847 l 507 847 l 521 882 l 521 861 b 517 860 521 860 519 860 l 517 847 l 553 847 l 553 860 b 546 863 548 860 546 861 l 546 918 b 553 926 546 924 548 926 l 553 939 l 525 939 l 501 880 m 791 893 b 781 925 791 906 788 917 b 747 939 773 934 762 939 b 714 925 732 939 721 934 b 703 893 706 917 703 906 b 714 860 703 880 706 869 b 749 846 721 850 733 846 b 781 860 763 846 773 850 b 791 893 788 869 791 880 m 848 895 l 888 847 l 903 847 l 903 924 b 908 926 903 925 904 926 l 908 939 l 871 939 l 871 926 b 882 924 878 926 882 925 l 882 892 l 843 939 l 822 939 l 822 926 b 828 918 826 926 828 924 l 828 863 b 822 860 828 861 826 860 l 822 847 l 861 847 l 861 860 b 848 863 853 860 848 861 m 1025 939 l 951 939 l 951 908 l 969 908 b 974 924 969 918 971 924 l 977 924 l 977 863 b 968 860 977 861 974 860 l 968 847 l 1008 847 l 1008 860 b 1000 863 1003 860 1000 861 l 1000 924 l 1003 924 b 1007 908 1006 924 1007 918 l 1025 908 m 622 888 l 635 888 l 635 882 l 650 882 l 650 907 l 635 907 l 635 901 l 622 901 l 622 924 l 636 924 b 639 908 638 924 639 918 l 657 908 l 657 939 l 589 939 l 589 926 b 597 924 595 926 597 925 l 597 863 b 589 860 597 861 595 860 l 589 847 l 632 847 l 632 860 b 622 865 625 860 622 862 m 971 182 l 1011 136 l 1025 136 l 1025 211 b 1032 214 1025 213 1027 214 l 1032 227 l 993 227 l 993 214 b 1004 211 1001 214 1004 213 l 1004 179 l 965 227 l 945 227 l 945 214 b 951 205 949 214 951 211 l 951 150 b 945 147 951 148 949 147 l 945 136 l 983 136 l 983 147 b 971 150 975 147 971 148 m 961 464 l 935 464 l 935 452 b 940 443 938 452 940 449 l 940 387 b 935 385 940 385 938 385 l 935 374 l 966 374 l 966 385 b 961 387 963 385 961 385 l 961 408 l 979 374 l 994 374 l 1011 406 l 1011 386 b 1004 385 1011 385 1009 385 l 1004 374 l 1042 374 l 1042 385 b 1036 387 1038 385 1036 385 l 1036 443 b 1042 452 1036 449 1038 452 l 1042 464 l 1014 464 l 989 406 m 1032 663 b 1022 696 1032 677 1029 688 b 986 710 1015 705 1003 710 b 954 696 972 710 961 705 b 945 663 948 688 945 677 b 956 629 945 649 948 638 b 987 616 962 621 972 616 b 1022 631 1003 616 1015 621 b 1032 663 1029 639 1032 649 m 971 785 l 1011 739 l 1025 739 l 1025 815 b 1032 818 1025 817 1027 818 l 1032 831 l 993 831 l 993 818 b 1004 815 1001 818 1004 817 l 1004 782 l 965 831 l 945 831 l 945 818 b 951 810 949 818 951 815 l 951 754 b 945 751 951 752 949 751 l 945 739 l 983 739 l 983 751 b 971 754 975 751 971 752 m 292 228 l 220 228 l 220 199 l 236 199 b 240 212 236 208 237 212 l 243 212 l 243 151 b 235 149 243 149 240 149 l 235 138 l 277 138 l 277 149 b 268 151 271 149 268 149 l 268 212 l 271 212 b 275 199 273 212 275 208 l 292 199 m 229 701 l 203 701 l 203 690 b 208 681 206 690 208 687 l 208 625 b 203 623 208 623 206 623 l 203 610 l 233 610 l 233 623 b 229 625 231 623 229 623 l 229 646 l 245 610 l 262 610 l 279 644 l 279 625 b 272 623 279 623 277 623 l 272 610 l 309 610 l 309 623 b 302 625 304 623 302 623 l 302 681 b 309 690 302 687 304 690 l 309 701 l 282 701 l 257 644 m 298 411 b 290 443 298 425 296 436 b 254 457 283 452 271 457 b 222 443 239 457 229 452 b 212 411 216 436 212 425 b 224 378 212 397 216 386 b 256 366 229 370 240 366 b 290 378 271 366 283 370 b 298 411 296 386 298 397 m 237 290 l 279 244 l 292 244 l 292 319 b 298 322 292 321 294 322 l 298 335 l 261 335 l 261 322 b 272 319 268 322 272 321 l 272 288 l 232 335 l 212 335 l 212 322 b 220 315 217 322 220 320 l 220 260 b 212 257 220 258 217 257 l 212 244 l 250 244 l 250 257 b 237 260 242 257 237 258 m 720 227 l 694 227 l 694 215 b 700 205 698 215 700 212 l 700 150 b 694 147 700 148 698 147 l 694 136 l 726 136 l 726 147 b 721 150 723 147 721 148 l 721 171 l 739 136 l 754 136 l 770 170 l 770 150 b 764 147 770 148 768 147 l 764 136 l 800 136 l 800 147 b 794 150 796 147 794 148 l 794 205 b 800 215 794 212 796 215 l 800 227 l 774 227 l 749 170 m 465 214 b 456 180 459 206 456 195 b 465 149 456 168 459 157 b 498 136 472 140 484 136 b 532 147 513 136 524 140 b 543 180 539 157 543 168 b 533 214 543 195 540 206 b 500 228 525 223 514 228 b 465 214 484 228 472 223 m 364 182 l 404 136 l 416 136 l 416 212 b 424 215 416 214 419 215 l 424 227 l 386 227 l 386 215 b 399 212 394 215 399 214 l 399 179 l 358 227 l 339 227 l 339 215 b 345 205 343 215 345 212 l 345 150 b 339 147 345 148 343 147 l 339 136 l 376 136 l 376 147 b 364 150 368 147 364 148 m 283 550 l 290 550 l 290 579 l 222 579 l 222 567 b 231 564 228 567 231 566 l 231 503 b 222 500 231 501 228 500 l 222 489 l 264 489 l 264 500 b 254 505 257 500 254 502 l 254 528 l 267 528 l 267 522 l 283 522 "},"∜":{"ha":1244,"x_min":0,"x_max":0,"o":"m 639 197 b 636 212 639 207 638 212 l 622 212 l 622 191 l 635 191 l 635 197 l 639 197 m 1004 555 b 1000 571 1004 566 1003 571 l 986 571 l 986 550 l 999 550 l 999 555 l 1004 555 m 749 860 b 758 867 752 860 755 862 b 765 893 763 873 765 882 b 758 918 764 903 762 911 b 747 925 755 923 751 925 b 736 918 743 925 739 923 b 729 893 731 912 729 904 b 736 868 730 882 732 873 b 749 860 740 863 744 860 m 987 631 b 1000 637 993 631 997 633 b 1006 664 1004 643 1006 652 b 999 689 1006 674 1003 682 b 987 696 996 694 992 696 b 977 689 983 696 979 694 b 971 664 973 682 971 674 b 978 637 971 653 973 644 b 987 631 981 633 984 631 m 256 378 b 268 385 261 378 265 380 b 273 411 271 391 273 400 b 267 436 273 422 271 431 b 256 443 264 441 260 443 b 243 436 250 443 246 441 b 237 411 239 432 237 423 b 244 386 237 400 240 392 b 256 378 247 380 251 378 m 511 155 b 518 182 516 162 518 171 b 513 207 518 193 516 201 b 500 214 509 211 505 214 b 488 207 495 214 491 211 b 482 182 484 201 482 193 b 488 155 482 170 484 161 b 498 149 490 151 494 149 b 511 155 503 149 507 151 m 272 550 b 268 564 272 559 271 564 l 254 564 l 254 543 l 267 543 l 267 550 l 272 550 m 650 170 l 635 170 l 635 176 l 622 176 l 622 153 b 632 147 622 149 625 147 l 632 136 l 589 136 l 589 147 b 597 150 595 147 597 148 l 597 212 b 589 215 597 214 595 215 l 589 227 l 657 227 l 657 197 l 650 197 m 872 214 l 872 227 l 905 227 l 905 214 b 897 210 901 214 898 212 l 878 175 l 878 150 b 886 147 878 148 880 147 l 886 136 l 846 136 l 846 147 b 854 150 852 147 854 148 l 854 175 l 835 210 b 827 214 833 212 830 214 l 827 227 l 865 227 l 865 214 l 860 214 l 868 196 l 878 214 m 389 926 l 389 939 l 419 939 l 419 926 b 411 922 415 926 413 925 l 395 886 l 395 861 b 403 859 395 859 397 859 l 403 847 l 359 847 l 359 859 b 370 861 366 859 370 859 l 370 886 l 349 922 b 343 926 348 925 346 926 l 343 939 l 379 939 l 379 926 l 374 926 l 385 907 l 393 926 m 262 811 l 262 823 l 294 823 l 294 811 b 288 807 291 811 288 810 l 268 772 l 268 747 b 277 745 268 746 271 745 l 277 732 l 235 732 l 235 745 b 243 747 240 745 243 746 l 243 772 l 225 807 b 216 811 223 810 220 811 l 216 823 l 254 823 l 254 811 l 249 811 l 258 791 l 268 811 m 1015 529 l 999 529 l 999 534 l 986 534 l 986 513 b 996 507 986 509 989 507 l 996 494 l 954 494 l 954 507 b 962 510 960 507 962 508 l 962 571 b 954 574 962 573 960 574 l 954 586 l 1022 586 l 1022 555 l 1015 555 m 994 329 l 994 342 l 1028 342 l 1028 329 b 1019 325 1023 329 1020 328 l 1000 290 l 1000 265 b 1008 262 1000 263 1003 262 l 1008 252 l 968 252 l 968 262 b 977 265 974 262 977 263 l 977 290 l 957 325 b 949 329 955 328 952 329 l 949 342 l 986 342 l 986 329 l 982 329 l 990 311 l 1000 329 m 237 863 b 250 860 237 861 242 860 l 250 847 l 212 847 l 212 860 b 220 863 217 860 220 861 l 220 918 b 212 926 220 924 217 926 l 212 939 l 232 939 l 272 892 l 272 924 b 261 926 272 925 268 926 l 261 939 l 298 939 l 298 926 b 292 924 294 926 292 925 l 292 847 l 279 847 l 237 895 m 501 880 l 525 939 l 553 939 l 553 926 b 546 918 548 926 546 924 l 546 863 b 553 860 546 861 548 860 l 553 847 l 517 847 l 517 860 b 521 861 519 860 521 860 l 521 882 l 507 847 l 490 847 l 472 884 l 472 863 b 478 860 472 861 474 860 l 478 847 l 447 847 l 447 860 b 453 863 451 860 453 861 l 453 918 b 447 926 453 924 451 926 l 447 939 l 472 939 m 791 893 b 781 860 791 880 788 869 b 749 846 773 850 763 846 b 714 860 733 846 721 850 b 703 893 706 869 703 880 b 714 925 703 906 706 917 b 747 939 721 934 732 939 b 781 925 762 939 773 934 b 791 893 788 917 791 906 m 848 863 b 861 860 848 861 853 860 l 861 847 l 822 847 l 822 860 b 828 863 826 860 828 861 l 828 918 b 822 926 828 924 826 926 l 822 939 l 843 939 l 882 892 l 882 924 b 871 926 882 925 878 926 l 871 939 l 908 939 l 908 926 b 903 924 904 926 903 925 l 903 847 l 888 847 l 848 895 m 1025 908 l 1007 908 b 1003 924 1007 918 1006 924 l 1000 924 l 1000 863 b 1008 860 1000 861 1003 860 l 1008 847 l 968 847 l 968 860 b 977 863 974 860 977 861 l 977 924 l 974 924 b 969 908 971 924 969 918 l 951 908 l 951 939 l 1025 939 m 622 865 b 632 860 622 862 625 860 l 632 847 l 589 847 l 589 860 b 597 863 595 860 597 861 l 597 924 b 589 926 597 925 595 926 l 589 939 l 657 939 l 657 908 l 639 908 b 636 924 639 918 638 924 l 622 924 l 622 901 l 635 901 l 635 907 l 650 907 l 650 882 l 635 882 l 635 888 l 622 888 m 971 150 b 983 147 971 148 975 147 l 983 136 l 945 136 l 945 147 b 951 150 949 147 951 148 l 951 205 b 945 214 951 211 949 214 l 945 227 l 965 227 l 1004 179 l 1004 211 b 993 214 1004 213 1001 214 l 993 227 l 1032 227 l 1032 214 b 1025 211 1027 214 1025 213 l 1025 136 l 1011 136 l 971 182 m 989 406 l 1014 464 l 1042 464 l 1042 452 b 1036 443 1038 452 1036 449 l 1036 387 b 1042 385 1036 385 1038 385 l 1042 374 l 1004 374 l 1004 385 b 1011 386 1009 385 1011 385 l 1011 406 l 994 374 l 979 374 l 961 408 l 961 387 b 966 385 961 385 963 385 l 966 374 l 935 374 l 935 385 b 940 387 938 385 940 385 l 940 443 b 935 452 940 449 938 452 l 935 464 l 961 464 m 1032 663 b 1022 631 1032 649 1029 639 b 987 616 1015 621 1003 616 b 956 629 972 616 962 621 b 945 663 948 638 945 649 b 954 696 945 677 948 688 b 986 710 961 705 972 710 b 1022 696 1003 710 1015 705 b 1032 663 1029 688 1032 677 m 971 754 b 983 751 971 752 975 751 l 983 739 l 945 739 l 945 751 b 951 754 949 751 951 752 l 951 810 b 945 818 951 815 949 818 l 945 831 l 965 831 l 1004 782 l 1004 815 b 993 818 1004 817 1001 818 l 993 831 l 1032 831 l 1032 818 b 1025 815 1027 818 1025 817 l 1025 739 l 1011 739 l 971 785 m 292 199 l 275 199 b 271 212 275 208 273 212 l 268 212 l 268 151 b 277 149 268 149 271 149 l 277 138 l 235 138 l 235 149 b 243 151 240 149 243 149 l 243 212 l 240 212 b 236 199 237 212 236 208 l 220 199 l 220 228 l 292 228 m 257 644 l 282 701 l 309 701 l 309 690 b 302 681 304 690 302 687 l 302 625 b 309 623 302 623 304 623 l 309 610 l 272 610 l 272 623 b 279 625 277 623 279 623 l 279 644 l 262 610 l 245 610 l 229 646 l 229 625 b 233 623 229 623 231 623 l 233 610 l 203 610 l 203 623 b 208 625 206 623 208 623 l 208 681 b 203 690 208 687 206 690 l 203 701 l 229 701 m 298 411 b 290 378 298 397 296 386 b 256 366 283 370 271 366 b 224 378 240 366 229 370 b 212 411 216 386 212 397 b 222 443 212 425 216 436 b 254 457 229 452 239 457 b 290 443 271 457 283 452 b 298 411 296 436 298 425 m 237 260 b 250 257 237 258 242 257 l 250 244 l 212 244 l 212 257 b 220 260 217 257 220 258 l 220 315 b 212 322 220 320 217 322 l 212 335 l 232 335 l 272 288 l 272 319 b 261 322 272 321 268 322 l 261 335 l 298 335 l 298 322 b 292 319 294 322 292 321 l 292 244 l 279 244 l 237 290 m 749 170 l 774 227 l 800 227 l 800 215 b 794 205 796 215 794 212 l 794 150 b 800 147 794 148 796 147 l 800 136 l 764 136 l 764 147 b 770 150 768 147 770 148 l 770 170 l 754 136 l 739 136 l 721 171 l 721 150 b 726 147 721 148 723 147 l 726 136 l 694 136 l 694 147 b 700 150 698 147 700 148 l 700 205 b 694 215 700 212 698 215 l 694 227 l 720 227 m 465 214 b 500 228 472 223 484 228 b 533 214 514 228 525 223 b 543 180 540 206 543 195 b 532 147 543 168 539 157 b 498 136 524 140 513 136 b 465 149 484 136 472 140 b 456 180 459 157 456 168 b 465 214 456 195 459 206 m 364 150 b 376 147 364 148 368 147 l 376 136 l 339 136 l 339 147 b 345 150 343 147 345 148 l 345 205 b 339 215 345 212 343 215 l 339 227 l 358 227 l 399 179 l 399 212 b 386 215 399 214 394 215 l 386 227 l 424 227 l 424 215 b 416 212 419 215 416 214 l 416 136 l 404 136 l 364 182 m 283 522 l 267 522 l 267 528 l 254 528 l 254 505 b 264 500 254 502 257 500 l 264 489 l 222 489 l 222 500 b 231 503 228 500 231 501 l 231 564 b 222 567 231 566 228 567 l 222 579 l 290 579 l 290 550 l 283 550 "},"∝":{"ha":1244,"x_min":0,"x_max":0,"o":"m 639 197 l 635 197 l 635 191 l 622 191 l 622 212 l 636 212 b 639 197 638 212 639 207 m 1004 555 l 999 555 l 999 550 l 986 550 l 986 571 l 1000 571 b 1004 555 1003 571 1004 566 m 749 860 b 736 868 744 860 740 863 b 729 893 732 873 730 882 b 736 918 729 904 731 912 b 747 925 739 923 743 925 b 758 918 751 925 755 923 b 765 893 762 911 764 903 b 758 867 765 882 763 873 b 749 860 755 862 752 860 m 987 631 b 978 637 984 631 981 633 b 971 664 973 644 971 653 b 977 689 971 674 973 682 b 987 696 979 694 983 696 b 999 689 992 696 996 694 b 1006 664 1003 682 1006 674 b 1000 637 1006 652 1004 643 b 987 631 997 633 993 631 m 256 378 b 244 386 251 378 247 380 b 237 411 240 392 237 400 b 243 436 237 423 239 432 b 256 443 246 441 250 443 b 267 436 260 443 264 441 b 273 411 271 431 273 422 b 268 385 273 400 271 391 b 256 378 265 380 261 378 m 511 155 b 498 149 507 151 503 149 b 488 155 494 149 490 151 b 482 182 484 161 482 170 b 488 207 482 193 484 201 b 500 214 491 211 495 214 b 513 207 505 214 509 211 b 518 182 516 201 518 193 b 511 155 518 171 516 162 m 272 550 l 267 550 l 267 543 l 254 543 l 254 564 l 268 564 b 272 550 271 564 272 559 m 650 197 l 657 197 l 657 227 l 589 227 l 589 215 b 597 212 595 215 597 214 l 597 150 b 589 147 597 148 595 147 l 589 136 l 632 136 l 632 147 b 622 153 625 147 622 149 l 622 176 l 635 176 l 635 170 l 650 170 m 878 214 l 868 196 l 860 214 l 865 214 l 865 227 l 827 227 l 827 214 b 835 210 830 214 833 212 l 854 175 l 854 150 b 846 147 854 148 852 147 l 846 136 l 886 136 l 886 147 b 878 150 880 147 878 148 l 878 175 l 897 210 b 905 214 898 212 901 214 l 905 227 l 872 227 l 872 214 m 393 926 l 385 907 l 374 926 l 379 926 l 379 939 l 343 939 l 343 926 b 349 922 346 926 348 925 l 370 886 l 370 861 b 359 859 370 859 366 859 l 359 847 l 403 847 l 403 859 b 395 861 397 859 395 859 l 395 886 l 411 922 b 419 926 413 925 415 926 l 419 939 l 389 939 l 389 926 m 268 811 l 258 791 l 249 811 l 254 811 l 254 823 l 216 823 l 216 811 b 225 807 220 811 223 810 l 243 772 l 243 747 b 235 745 243 746 240 745 l 235 732 l 277 732 l 277 745 b 268 747 271 745 268 746 l 268 772 l 288 807 b 294 811 288 810 291 811 l 294 823 l 262 823 l 262 811 m 1015 555 l 1022 555 l 1022 586 l 954 586 l 954 574 b 962 571 960 574 962 573 l 962 510 b 954 507 962 508 960 507 l 954 494 l 996 494 l 996 507 b 986 513 989 507 986 509 l 986 534 l 999 534 l 999 529 l 1015 529 m 1000 329 l 990 311 l 982 329 l 986 329 l 986 342 l 949 342 l 949 329 b 957 325 952 329 955 328 l 977 290 l 977 265 b 968 262 977 263 974 262 l 968 252 l 1008 252 l 1008 262 b 1000 265 1003 262 1000 263 l 1000 290 l 1019 325 b 1028 329 1020 328 1023 329 l 1028 342 l 994 342 l 994 329 m 237 895 l 279 847 l 292 847 l 292 924 b 298 926 292 925 294 926 l 298 939 l 261 939 l 261 926 b 272 924 268 926 272 925 l 272 892 l 232 939 l 212 939 l 212 926 b 220 918 217 926 220 924 l 220 863 b 212 860 220 861 217 860 l 212 847 l 250 847 l 250 860 b 237 863 242 860 237 861 m 472 939 l 447 939 l 447 926 b 453 918 451 926 453 924 l 453 863 b 447 860 453 861 451 860 l 447 847 l 478 847 l 478 860 b 472 863 474 860 472 861 l 472 884 l 490 847 l 507 847 l 521 882 l 521 861 b 517 860 521 860 519 860 l 517 847 l 553 847 l 553 860 b 546 863 548 860 546 861 l 546 918 b 553 926 546 924 548 926 l 553 939 l 525 939 l 501 880 m 791 893 b 781 925 791 906 788 917 b 747 939 773 934 762 939 b 714 925 732 939 721 934 b 703 893 706 917 703 906 b 714 860 703 880 706 869 b 749 846 721 850 733 846 b 781 860 763 846 773 850 b 791 893 788 869 791 880 m 848 895 l 888 847 l 903 847 l 903 924 b 908 926 903 925 904 926 l 908 939 l 871 939 l 871 926 b 882 924 878 926 882 925 l 882 892 l 843 939 l 822 939 l 822 926 b 828 918 826 926 828 924 l 828 863 b 822 860 828 861 826 860 l 822 847 l 861 847 l 861 860 b 848 863 853 860 848 861 m 1025 939 l 951 939 l 951 908 l 969 908 b 974 924 969 918 971 924 l 977 924 l 977 863 b 968 860 977 861 974 860 l 968 847 l 1008 847 l 1008 860 b 1000 863 1003 860 1000 861 l 1000 924 l 1003 924 b 1007 908 1006 924 1007 918 l 1025 908 m 622 888 l 635 888 l 635 882 l 650 882 l 650 907 l 635 907 l 635 901 l 622 901 l 622 924 l 636 924 b 639 908 638 924 639 918 l 657 908 l 657 939 l 589 939 l 589 926 b 597 924 595 926 597 925 l 597 863 b 589 860 597 861 595 860 l 589 847 l 632 847 l 632 860 b 622 865 625 860 622 862 m 971 182 l 1011 136 l 1025 136 l 1025 211 b 1032 214 1025 213 1027 214 l 1032 227 l 993 227 l 993 214 b 1004 211 1001 214 1004 213 l 1004 179 l 965 227 l 945 227 l 945 214 b 951 205 949 214 951 211 l 951 150 b 945 147 951 148 949 147 l 945 136 l 983 136 l 983 147 b 971 150 975 147 971 148 m 961 464 l 935 464 l 935 452 b 940 443 938 452 940 449 l 940 387 b 935 385 940 385 938 385 l 935 374 l 966 374 l 966 385 b 961 387 963 385 961 385 l 961 408 l 979 374 l 994 374 l 1011 406 l 1011 386 b 1004 385 1011 385 1009 385 l 1004 374 l 1042 374 l 1042 385 b 1036 387 1038 385 1036 385 l 1036 443 b 1042 452 1036 449 1038 452 l 1042 464 l 1014 464 l 989 406 m 1032 663 b 1022 696 1032 677 1029 688 b 986 710 1015 705 1003 710 b 954 696 972 710 961 705 b 945 663 948 688 945 677 b 956 629 945 649 948 638 b 987 616 962 621 972 616 b 1022 631 1003 616 1015 621 b 1032 663 1029 639 1032 649 m 971 785 l 1011 739 l 1025 739 l 1025 815 b 1032 818 1025 817 1027 818 l 1032 831 l 993 831 l 993 818 b 1004 815 1001 818 1004 817 l 1004 782 l 965 831 l 945 831 l 945 818 b 951 810 949 818 951 815 l 951 754 b 945 751 951 752 949 751 l 945 739 l 983 739 l 983 751 b 971 754 975 751 971 752 m 292 228 l 220 228 l 220 199 l 236 199 b 240 212 236 208 237 212 l 243 212 l 243 151 b 235 149 243 149 240 149 l 235 138 l 277 138 l 277 149 b 268 151 271 149 268 149 l 268 212 l 271 212 b 275 199 273 212 275 208 l 292 199 m 229 701 l 203 701 l 203 690 b 208 681 206 690 208 687 l 208 625 b 203 623 208 623 206 623 l 203 610 l 233 610 l 233 623 b 229 625 231 623 229 623 l 229 646 l 245 610 l 262 610 l 279 644 l 279 625 b 272 623 279 623 277 623 l 272 610 l 309 610 l 309 623 b 302 625 304 623 302 623 l 302 681 b 309 690 302 687 304 690 l 309 701 l 282 701 l 257 644 m 298 411 b 290 443 298 425 296 436 b 254 457 283 452 271 457 b 222 443 239 457 229 452 b 212 411 216 436 212 425 b 224 378 212 397 216 386 b 256 366 229 370 240 366 b 290 378 271 366 283 370 b 298 411 296 386 298 397 m 237 290 l 279 244 l 292 244 l 292 319 b 298 322 292 321 294 322 l 298 335 l 261 335 l 261 322 b 272 319 268 322 272 321 l 272 288 l 232 335 l 212 335 l 212 322 b 220 315 217 322 220 320 l 220 260 b 212 257 220 258 217 257 l 212 244 l 250 244 l 250 257 b 237 260 242 257 237 258 m 720 227 l 694 227 l 694 215 b 700 205 698 215 700 212 l 700 150 b 694 147 700 148 698 147 l 694 136 l 726 136 l 726 147 b 721 150 723 147 721 148 l 721 171 l 739 136 l 754 136 l 770 170 l 770 150 b 764 147 770 148 768 147 l 764 136 l 800 136 l 800 147 b 794 150 796 147 794 148 l 794 205 b 800 215 794 212 796 215 l 800 227 l 774 227 l 749 170 m 465 214 b 456 180 459 206 456 195 b 465 149 456 168 459 157 b 498 136 472 140 484 136 b 532 147 513 136 524 140 b 543 180 539 157 543 168 b 533 214 543 195 540 206 b 500 228 525 223 514 228 b 465 214 484 228 472 223 m 364 182 l 404 136 l 416 136 l 416 212 b 424 215 416 214 419 215 l 424 227 l 386 227 l 386 215 b 399 212 394 215 399 214 l 399 179 l 358 227 l 339 227 l 339 215 b 345 205 343 215 345 212 l 345 150 b 339 147 345 148 343 147 l 339 136 l 376 136 l 376 147 b 364 150 368 147 364 148 m 283 550 l 290 550 l 290 579 l 222 579 l 222 567 b 231 564 228 567 231 566 l 231 503 b 222 500 231 501 228 500 l 222 489 l 264 489 l 264 500 b 254 505 257 500 254 502 l 254 528 l 267 528 l 267 522 l 283 522 "},"≢":{"ha":1244,"x_min":0,"x_max":0,"o":"m 639 197 b 636 212 639 207 638 212 l 622 212 l 622 191 l 635 191 l 635 197 l 639 197 m 1004 555 b 1000 571 1004 566 1003 571 l 986 571 l 986 550 l 999 550 l 999 555 l 1004 555 m 749 860 b 758 867 752 860 755 862 b 765 893 763 873 765 882 b 758 918 764 903 762 911 b 747 925 755 923 751 925 b 736 918 743 925 739 923 b 729 893 731 912 729 904 b 736 868 730 882 732 873 b 749 860 740 863 744 860 m 987 631 b 1000 637 993 631 997 633 b 1006 664 1004 643 1006 652 b 999 689 1006 674 1003 682 b 987 696 996 694 992 696 b 977 689 983 696 979 694 b 971 664 973 682 971 674 b 978 637 971 653 973 644 b 987 631 981 633 984 631 m 256 378 b 268 385 261 378 265 380 b 273 411 271 391 273 400 b 267 436 273 422 271 431 b 256 443 264 441 260 443 b 243 436 250 443 246 441 b 237 411 239 432 237 423 b 244 386 237 400 240 392 b 256 378 247 380 251 378 m 511 155 b 518 182 516 162 518 171 b 513 207 518 193 516 201 b 500 214 509 211 505 214 b 488 207 495 214 491 211 b 482 182 484 201 482 193 b 488 155 482 170 484 161 b 498 149 490 151 494 149 b 511 155 503 149 507 151 m 272 550 b 268 564 272 559 271 564 l 254 564 l 254 543 l 267 543 l 267 550 l 272 550 m 650 170 l 635 170 l 635 176 l 622 176 l 622 153 b 632 147 622 149 625 147 l 632 136 l 589 136 l 589 147 b 597 150 595 147 597 148 l 597 212 b 589 215 597 214 595 215 l 589 227 l 657 227 l 657 197 l 650 197 m 872 214 l 872 227 l 905 227 l 905 214 b 897 210 901 214 898 212 l 878 175 l 878 150 b 886 147 878 148 880 147 l 886 136 l 846 136 l 846 147 b 854 150 852 147 854 148 l 854 175 l 835 210 b 827 214 833 212 830 214 l 827 227 l 865 227 l 865 214 l 860 214 l 868 196 l 878 214 m 389 926 l 389 939 l 419 939 l 419 926 b 411 922 415 926 413 925 l 395 886 l 395 861 b 403 859 395 859 397 859 l 403 847 l 359 847 l 359 859 b 370 861 366 859 370 859 l 370 886 l 349 922 b 343 926 348 925 346 926 l 343 939 l 379 939 l 379 926 l 374 926 l 385 907 l 393 926 m 262 811 l 262 823 l 294 823 l 294 811 b 288 807 291 811 288 810 l 268 772 l 268 747 b 277 745 268 746 271 745 l 277 732 l 235 732 l 235 745 b 243 747 240 745 243 746 l 243 772 l 225 807 b 216 811 223 810 220 811 l 216 823 l 254 823 l 254 811 l 249 811 l 258 791 l 268 811 m 1015 529 l 999 529 l 999 534 l 986 534 l 986 513 b 996 507 986 509 989 507 l 996 494 l 954 494 l 954 507 b 962 510 960 507 962 508 l 962 571 b 954 574 962 573 960 574 l 954 586 l 1022 586 l 1022 555 l 1015 555 m 994 329 l 994 342 l 1028 342 l 1028 329 b 1019 325 1023 329 1020 328 l 1000 290 l 1000 265 b 1008 262 1000 263 1003 262 l 1008 252 l 968 252 l 968 262 b 977 265 974 262 977 263 l 977 290 l 957 325 b 949 329 955 328 952 329 l 949 342 l 986 342 l 986 329 l 982 329 l 990 311 l 1000 329 m 237 863 b 250 860 237 861 242 860 l 250 847 l 212 847 l 212 860 b 220 863 217 860 220 861 l 220 918 b 212 926 220 924 217 926 l 212 939 l 232 939 l 272 892 l 272 924 b 261 926 272 925 268 926 l 261 939 l 298 939 l 298 926 b 292 924 294 926 292 925 l 292 847 l 279 847 l 237 895 m 501 880 l 525 939 l 553 939 l 553 926 b 546 918 548 926 546 924 l 546 863 b 553 860 546 861 548 860 l 553 847 l 517 847 l 517 860 b 521 861 519 860 521 860 l 521 882 l 507 847 l 490 847 l 472 884 l 472 863 b 478 860 472 861 474 860 l 478 847 l 447 847 l 447 860 b 453 863 451 860 453 861 l 453 918 b 447 926 453 924 451 926 l 447 939 l 472 939 m 791 893 b 781 860 791 880 788 869 b 749 846 773 850 763 846 b 714 860 733 846 721 850 b 703 893 706 869 703 880 b 714 925 703 906 706 917 b 747 939 721 934 732 939 b 781 925 762 939 773 934 b 791 893 788 917 791 906 m 848 863 b 861 860 848 861 853 860 l 861 847 l 822 847 l 822 860 b 828 863 826 860 828 861 l 828 918 b 822 926 828 924 826 926 l 822 939 l 843 939 l 882 892 l 882 924 b 871 926 882 925 878 926 l 871 939 l 908 939 l 908 926 b 903 924 904 926 903 925 l 903 847 l 888 847 l 848 895 m 1025 908 l 1007 908 b 1003 924 1007 918 1006 924 l 1000 924 l 1000 863 b 1008 860 1000 861 1003 860 l 1008 847 l 968 847 l 968 860 b 977 863 974 860 977 861 l 977 924 l 974 924 b 969 908 971 924 969 918 l 951 908 l 951 939 l 1025 939 m 622 865 b 632 860 622 862 625 860 l 632 847 l 589 847 l 589 860 b 597 863 595 860 597 861 l 597 924 b 589 926 597 925 595 926 l 589 939 l 657 939 l 657 908 l 639 908 b 636 924 639 918 638 924 l 622 924 l 622 901 l 635 901 l 635 907 l 650 907 l 650 882 l 635 882 l 635 888 l 622 888 m 971 150 b 983 147 971 148 975 147 l 983 136 l 945 136 l 945 147 b 951 150 949 147 951 148 l 951 205 b 945 214 951 211 949 214 l 945 227 l 965 227 l 1004 179 l 1004 211 b 993 214 1004 213 1001 214 l 993 227 l 1032 227 l 1032 214 b 1025 211 1027 214 1025 213 l 1025 136 l 1011 136 l 971 182 m 989 406 l 1014 464 l 1042 464 l 1042 452 b 1036 443 1038 452 1036 449 l 1036 387 b 1042 385 1036 385 1038 385 l 1042 374 l 1004 374 l 1004 385 b 1011 386 1009 385 1011 385 l 1011 406 l 994 374 l 979 374 l 961 408 l 961 387 b 966 385 961 385 963 385 l 966 374 l 935 374 l 935 385 b 940 387 938 385 940 385 l 940 443 b 935 452 940 449 938 452 l 935 464 l 961 464 m 1032 663 b 1022 631 1032 649 1029 639 b 987 616 1015 621 1003 616 b 956 629 972 616 962 621 b 945 663 948 638 945 649 b 954 696 945 677 948 688 b 986 710 961 705 972 710 b 1022 696 1003 710 1015 705 b 1032 663 1029 688 1032 677 m 971 754 b 983 751 971 752 975 751 l 983 739 l 945 739 l 945 751 b 951 754 949 751 951 752 l 951 810 b 945 818 951 815 949 818 l 945 831 l 965 831 l 1004 782 l 1004 815 b 993 818 1004 817 1001 818 l 993 831 l 1032 831 l 1032 818 b 1025 815 1027 818 1025 817 l 1025 739 l 1011 739 l 971 785 m 292 199 l 275 199 b 271 212 275 208 273 212 l 268 212 l 268 151 b 277 149 268 149 271 149 l 277 138 l 235 138 l 235 149 b 243 151 240 149 243 149 l 243 212 l 240 212 b 236 199 237 212 236 208 l 220 199 l 220 228 l 292 228 m 257 644 l 282 701 l 309 701 l 309 690 b 302 681 304 690 302 687 l 302 625 b 309 623 302 623 304 623 l 309 610 l 272 610 l 272 623 b 279 625 277 623 279 623 l 279 644 l 262 610 l 245 610 l 229 646 l 229 625 b 233 623 229 623 231 623 l 233 610 l 203 610 l 203 623 b 208 625 206 623 208 623 l 208 681 b 203 690 208 687 206 690 l 203 701 l 229 701 m 298 411 b 290 378 298 397 296 386 b 256 366 283 370 271 366 b 224 378 240 366 229 370 b 212 411 216 386 212 397 b 222 443 212 425 216 436 b 254 457 229 452 239 457 b 290 443 271 457 283 452 b 298 411 296 436 298 425 m 237 260 b 250 257 237 258 242 257 l 250 244 l 212 244 l 212 257 b 220 260 217 257 220 258 l 220 315 b 212 322 220 320 217 322 l 212 335 l 232 335 l 272 288 l 272 319 b 261 322 272 321 268 322 l 261 335 l 298 335 l 298 322 b 292 319 294 322 292 321 l 292 244 l 279 244 l 237 290 m 749 170 l 774 227 l 800 227 l 800 215 b 794 205 796 215 794 212 l 794 150 b 800 147 794 148 796 147 l 800 136 l 764 136 l 764 147 b 770 150 768 147 770 148 l 770 170 l 754 136 l 739 136 l 721 171 l 721 150 b 726 147 721 148 723 147 l 726 136 l 694 136 l 694 147 b 700 150 698 147 700 148 l 700 205 b 694 215 700 212 698 215 l 694 227 l 720 227 m 465 214 b 500 228 472 223 484 228 b 533 214 514 228 525 223 b 543 180 540 206 543 195 b 532 147 543 168 539 157 b 498 136 524 140 513 136 b 465 149 484 136 472 140 b 456 180 459 157 456 168 b 465 214 456 195 459 206 m 364 150 b 376 147 364 148 368 147 l 376 136 l 339 136 l 339 147 b 345 150 343 147 345 148 l 345 205 b 339 215 345 212 343 215 l 339 227 l 358 227 l 399 179 l 399 212 b 386 215 399 214 394 215 l 386 227 l 424 227 l 424 215 b 416 212 419 215 416 214 l 416 136 l 404 136 l 364 182 m 283 522 l 267 522 l 267 528 l 254 528 l 254 505 b 264 500 254 502 257 500 l 264 489 l 222 489 l 222 500 b 231 503 228 500 231 501 l 231 564 b 222 567 231 566 228 567 l 222 579 l 290 579 l 290 550 l 283 550 "}}}
